<svg xmlns="http://www.w3.org/2000/svg" xmlns:xlink="http://www.w3.org/1999/xlink" width="2000" zoomAndPan="magnify" viewBox="0 0 1500 1499.999933" height="2000" preserveAspectRatio="xMidYMid meet" version="1.0"><defs><g/><clipPath id="bd5b28566d"><rect x="0" width="509" y="0" height="67"/></clipPath><clipPath id="f9a243d9d4"><path d="M 538.289062 468.941406 L 602.414062 468.941406 L 602.414062 533.070312 L 538.289062 533.070312 Z M 538.289062 468.941406 " clip-rule="nonzero"/></clipPath><clipPath id="a42b0581ba"><path d="M 588.863281 474.265625 L 583.175781 488.179688 L 597.09375 482.375 L 602.414062 495.199219 L 588.5 501.007812 L 602.414062 506.816406 L 597.09375 519.640625 L 583.175781 513.832031 L 588.863281 527.746094 L 576.039062 533.070312 L 570.351562 519.15625 L 564.542969 533.070312 L 551.71875 527.746094 L 557.527344 513.832031 L 543.613281 519.640625 L 538.289062 506.816406 L 552.203125 501.007812 L 538.289062 495.199219 L 543.613281 482.375 L 557.527344 488.179688 L 551.71875 474.265625 L 564.542969 468.941406 L 570.351562 482.859375 L 576.039062 468.941406 Z M 588.863281 474.265625 " clip-rule="nonzero"/></clipPath><clipPath id="2c514f4408"><path d="M 0.289062 0.941406 L 64.414062 0.941406 L 64.414062 65.070312 L 0.289062 65.070312 Z M 0.289062 0.941406 " clip-rule="nonzero"/></clipPath><clipPath id="fcd8b82da0"><path d="M 50.863281 6.265625 L 45.175781 20.179688 L 59.09375 14.375 L 64.414062 27.199219 L 50.5 33.007812 L 64.414062 38.816406 L 59.09375 51.640625 L 45.175781 45.832031 L 50.863281 59.746094 L 38.039062 65.070312 L 32.351562 51.15625 L 26.542969 65.070312 L 13.71875 59.746094 L 19.527344 45.832031 L 5.613281 51.640625 L 0.289062 38.816406 L 14.203125 33.007812 L 0.289062 27.199219 L 5.613281 14.375 L 19.527344 20.179688 L 13.71875 6.265625 L 26.542969 0.941406 L 32.351562 14.859375 L 38.039062 0.941406 Z M 50.863281 6.265625 " clip-rule="nonzero"/></clipPath><clipPath id="7b6b790804"><rect x="0" width="65" y="0" height="66"/></clipPath></defs><rect x="-150" width="1800" fill="#ffffff" y="-149.999993" height="1799.99992" fill-opacity="1"/><rect x="-150" width="1800" fill="#d20f0f" y="-149.999993" height="1799.99992" fill-opacity="1"/><g fill="#eee6d9" fill-opacity="1"><g transform="translate(244.140269, 667.535011)"><g><path d="M 251.484375 -150.453125 C 251.484375 -148.796875 250.46875 -146.675781 248.4375 -144.09375 C 246.414062 -141.519531 245.035156 -138.671875 244.296875 -135.546875 C 243.015625 -130.566406 241.035156 -125.363281 238.359375 -119.9375 C 235.691406 -114.507812 231.140625 -107.472656 224.703125 -98.828125 C 219.921875 -92.929688 215.457031 -86.023438 211.3125 -78.109375 C 207.175781 -70.203125 203.632812 -62.203125 200.6875 -54.109375 C 197.738281 -45.085938 193.550781 -37.492188 188.125 -31.328125 C 182.695312 -25.160156 177.867188 -22.078125 173.640625 -22.078125 C 172.898438 -22.078125 171.609375 -22.90625 169.765625 -24.5625 C 167.929688 -26.21875 166.226562 -27.828125 164.65625 -29.390625 C 163.09375 -30.960938 162.3125 -31.75 162.3125 -31.75 C 162.3125 -31.75 161.894531 -33.265625 161.0625 -36.296875 C 160.238281 -39.335938 158.632812 -43.34375 156.25 -48.3125 C 155.320312 -50.882812 154.488281 -53.179688 153.75 -55.203125 C 153.019531 -57.234375 152.285156 -59.628906 151.546875 -62.390625 C 151.179688 -65.148438 150.257812 -67.675781 148.78125 -69.96875 C 147.3125 -72.269531 145.9375 -74.988281 144.65625 -78.125 C 143.363281 -81.25 142.71875 -84.832031 142.71875 -88.875 C 142.71875 -92.925781 142.625 -96.425781 142.4375 -99.375 C 142.257812 -102.320312 141.25 -103.796875 139.40625 -103.796875 C 138.664062 -103.796875 137.878906 -103.65625 137.046875 -103.375 C 136.222656 -103.101562 135.351562 -102.226562 134.4375 -100.75 L 132.21875 -96.609375 L 129.46875 -87.234375 C 129.46875 -87.234375 128.546875 -85.851562 126.703125 -83.09375 C 124.859375 -80.332031 122.785156 -76.878906 120.484375 -72.734375 C 118.191406 -68.597656 116.125 -64.410156 114.28125 -60.171875 C 111.519531 -54.097656 108.253906 -48.023438 104.484375 -41.953125 C 100.710938 -35.878906 97.03125 -30.863281 93.4375 -26.90625 C 89.851562 -22.957031 86.769531 -20.984375 84.1875 -20.984375 C 81.25 -20.984375 78.304688 -22.269531 75.359375 -24.84375 C 72.410156 -27.414062 70.753906 -30.453125 70.390625 -33.953125 L 69.84375 -40.859375 C 69.289062 -45.453125 67.910156 -49.175781 65.703125 -52.03125 C 63.492188 -54.882812 61.5625 -58.425781 59.90625 -62.65625 C 57.875 -68 56.351562 -72.738281 55.34375 -76.875 C 54.332031 -81.019531 52.816406 -85.664062 50.796875 -90.8125 C 48.953125 -95.78125 46.695312 -101.117188 44.03125 -106.828125 C 41.363281 -112.535156 39.015625 -117.410156 36.984375 -121.453125 C 34.960938 -125.503906 33.953125 -127.53125 33.953125 -127.53125 L 23.734375 -143.828125 L 23.734375 -152.109375 C 23.554688 -153.023438 23.144531 -154.398438 22.5 -156.234375 C 21.851562 -158.078125 21.53125 -159.644531 21.53125 -160.9375 C 21.53125 -164.0625 22.769531 -166.632812 25.25 -168.65625 C 27.738281 -170.6875 31.007812 -171.703125 35.0625 -171.703125 C 40.394531 -171.703125 45.546875 -169.171875 50.515625 -164.109375 C 55.484375 -159.046875 60.359375 -150.535156 65.140625 -138.578125 L 68.1875 -130.015625 L 70.9375 -125.875 L 73.15625 -114.28125 L 76.1875 -109.03125 L 79.78125 -99.65625 C 82.351562 -92.65625 84.097656 -86.851562 85.015625 -82.25 C 85.941406 -77.65625 87.140625 -75.359375 88.609375 -75.359375 C 90.265625 -75.359375 91.96875 -77.703125 93.71875 -82.390625 C 95.46875 -87.085938 98 -92.929688 101.3125 -99.921875 C 102.226562 -101.953125 104.296875 -105.679688 107.515625 -111.109375 C 110.734375 -116.535156 114.1875 -123.207031 117.875 -131.125 C 118.238281 -132.40625 118.972656 -134.425781 120.078125 -137.1875 C 121.179688 -139.957031 121.734375 -141.34375 121.734375 -141.34375 L 124.21875 -144.375 L 125.59375 -153.765625 C 125.59375 -153.765625 125.914062 -154.128906 126.5625 -154.859375 C 127.207031 -155.597656 127.53125 -156.0625 127.53125 -156.25 C 129 -164.707031 131.160156 -169.992188 134.015625 -172.109375 C 136.867188 -174.234375 141.703125 -175.296875 148.515625 -175.296875 C 149.804688 -175.296875 151.460938 -174.421875 153.484375 -172.671875 C 155.503906 -170.921875 157.34375 -168.664062 159 -165.90625 C 160.65625 -163.144531 161.484375 -160.203125 161.484375 -157.078125 L 162.875 -130.296875 C 162.875 -128.085938 163.238281 -125.050781 163.96875 -121.1875 C 164.707031 -117.320312 165.582031 -113.6875 166.59375 -110.28125 C 167.601562 -106.875 168.296875 -104.710938 168.671875 -103.796875 C 169.773438 -101.765625 170.460938 -98.769531 170.734375 -94.8125 C 171.015625 -90.863281 171.519531 -87.320312 172.25 -84.1875 C 172.988281 -81.0625 174.738281 -79.5 177.5 -79.5 C 178.96875 -79.5 180.300781 -80.785156 181.5 -83.359375 C 182.695312 -85.941406 183.941406 -88.148438 185.234375 -89.984375 L 194.34375 -104.34375 L 198.484375 -115.109375 L 202.890625 -120.078125 L 208.421875 -134.4375 L 213.65625 -139.6875 C 214.03125 -140.238281 214.628906 -141.382812 215.453125 -143.125 C 216.285156 -144.875 217.160156 -146.671875 218.078125 -148.515625 C 220.097656 -151.640625 222.304688 -154.535156 224.703125 -157.203125 C 227.097656 -159.878906 230.316406 -161.304688 234.359375 -161.484375 C 238.410156 -161.484375 242.273438 -160.285156 245.953125 -157.890625 C 249.640625 -155.503906 251.484375 -153.023438 251.484375 -150.453125 Z M 251.484375 -150.453125 "/></g></g></g><g fill="#eee6d9" fill-opacity="1"><g transform="translate(471.048527, 667.535011)"><g><path d="M 126.703125 -33.953125 C 126.703125 -33.953125 126.5625 -32.753906 126.28125 -30.359375 C 126.007812 -27.972656 125.597656 -25.210938 125.046875 -22.078125 C 124.492188 -18.953125 123.800781 -16.097656 122.96875 -13.515625 C 122.144531 -10.941406 121.179688 -9.472656 120.078125 -9.109375 C 118.785156 -8.554688 117.3125 -8.28125 115.65625 -8.28125 C 113.632812 -8.28125 111.703125 -8.554688 109.859375 -9.109375 C 108.023438 -9.660156 107.109375 -9.9375 107.109375 -9.9375 L 97.71875 -16.28125 L 78.125 -12.140625 C 73.707031 -11.410156 69.425781 -10.859375 65.28125 -10.484375 C 61.144531 -10.117188 57.328125 -9.9375 53.828125 -9.9375 C 47.753906 -9.9375 42.832031 -11.773438 39.0625 -15.453125 C 35.289062 -19.140625 31.5625 -23.28125 27.875 -27.875 C 24.75 -31.738281 22.128906 -35.785156 20.015625 -40.015625 C 17.898438 -44.253906 16.84375 -47.570312 16.84375 -49.96875 C 16.84375 -56.40625 17.804688 -62.472656 19.734375 -68.171875 C 21.671875 -73.878906 23.925781 -78.941406 26.5 -83.359375 C 29.070312 -87.773438 31.320312 -91.222656 33.25 -93.703125 C 35.1875 -96.191406 36.15625 -97.4375 36.15625 -97.4375 L 44.171875 -107.9375 L 49.40625 -110.421875 C 49.40625 -110.421875 51.195312 -111.289062 54.78125 -113.03125 C 58.375 -114.78125 62.289062 -115.65625 66.53125 -115.65625 C 68.738281 -115.65625 71.175781 -114.78125 73.84375 -113.03125 C 76.507812 -111.289062 78.765625 -110.421875 80.609375 -110.421875 C 81.335938 -110.421875 81.890625 -110.601562 82.265625 -110.96875 L 88.328125 -116.765625 C 88.328125 -116.765625 89.289062 -117.128906 91.21875 -117.859375 C 93.15625 -118.597656 94.953125 -118.96875 96.609375 -118.96875 C 98.816406 -118.96875 101.300781 -117.445312 104.0625 -114.40625 C 106.820312 -111.375 109.304688 -107.554688 111.515625 -102.953125 C 113.722656 -98.359375 115.101562 -93.757812 115.65625 -89.15625 L 117.046875 -78.671875 L 122.84375 -54.109375 L 123.109375 -43.34375 C 123.109375 -43.34375 123.429688 -42.554688 124.078125 -40.984375 C 124.722656 -39.421875 125.320312 -37.859375 125.875 -36.296875 C 126.425781 -34.734375 126.703125 -33.953125 126.703125 -33.953125 Z M 90.8125 -58.796875 C 90.8125 -60.265625 90.535156 -61.6875 89.984375 -63.0625 C 89.429688 -64.445312 89.15625 -65.140625 89.15625 -65.140625 L 83.640625 -73.703125 L 80.875 -80.609375 C 80.144531 -82.265625 79.085938 -83.367188 77.703125 -83.921875 C 76.328125 -84.472656 74.625 -84.75 72.59375 -84.75 C 71.488281 -84.75 70.335938 -84.703125 69.140625 -84.609375 C 67.953125 -84.515625 66.710938 -84.46875 65.421875 -84.46875 C 61.742188 -84.46875 58.109375 -83.269531 54.515625 -80.875 C 50.929688 -78.488281 47.941406 -75.40625 45.546875 -71.625 C 43.148438 -67.851562 41.953125 -63.851562 41.953125 -59.625 C 41.953125 -58.882812 42.320312 -57.59375 43.0625 -55.75 C 43.800781 -53.914062 44.488281 -52.257812 45.125 -50.78125 C 45.769531 -49.3125 46.09375 -48.578125 46.09375 -48.578125 L 52.171875 -44.171875 L 54.9375 -39.75 C 55.851562 -38.457031 57.460938 -37.671875 59.765625 -37.390625 C 62.066406 -37.117188 63.582031 -36.984375 64.3125 -36.984375 C 72.414062 -36.984375 78.859375 -39.007812 83.640625 -43.0625 C 88.421875 -47.113281 90.8125 -52.359375 90.8125 -58.796875 Z M 90.8125 -58.796875 "/></g></g></g><g fill="#eee6d9" fill-opacity="1"><g transform="translate(587.262926, 667.535011)"><g><path d="M 123.109375 -118.140625 C 123.109375 -115.929688 122.003906 -113.492188 119.796875 -110.828125 C 117.585938 -108.160156 114.78125 -105.859375 111.375 -103.921875 C 107.976562 -101.992188 104.4375 -100.847656 100.75 -100.484375 C 94.3125 -99.742188 88.285156 -98.128906 82.671875 -95.640625 C 77.054688 -93.160156 73.882812 -89.894531 73.15625 -85.84375 L 72.046875 -79.21875 L 66.25 -65.96875 C 66.25 -65.96875 66.15625 -65.320312 65.96875 -64.03125 C 65.789062 -62.75 65.703125 -60.546875 65.703125 -57.421875 C 65.703125 -50.796875 66.484375 -44.90625 68.046875 -39.75 C 69.609375 -34.59375 70.390625 -30.726562 70.390625 -28.15625 C 70.390625 -25.582031 69.742188 -22.546875 68.453125 -19.046875 C 67.171875 -15.546875 65.285156 -12.507812 62.796875 -9.9375 C 60.316406 -7.363281 57.421875 -6.078125 54.109375 -6.078125 C 51.710938 -6.078125 49.457031 -7.269531 47.34375 -9.65625 C 45.226562 -12.050781 43.617188 -14.535156 42.515625 -17.109375 L 40.03125 -23.734375 L 36.984375 -30.359375 L 37.265625 -46.09375 L 36.15625 -51.625 L 36.4375 -61 L 35.609375 -68.453125 L 37.8125 -80.875 L 36.4375 -99.09375 L 33.40625 -114.28125 L 32.296875 -131.390625 C 32.296875 -131.578125 32.296875 -131.757812 32.296875 -131.9375 C 32.296875 -132.125 32.296875 -132.3125 32.296875 -132.5 C 32.296875 -136 33.535156 -139.035156 36.015625 -141.609375 C 38.503906 -144.191406 42.050781 -145.484375 46.65625 -145.484375 C 49.226562 -145.484375 52.125 -144.238281 55.34375 -141.75 C 58.5625 -139.269531 60.171875 -136.738281 60.171875 -134.15625 L 59.90625 -131.671875 L 61.5625 -126.703125 L 61.5625 -123.109375 L 62.390625 -120.078125 C 62.753906 -118.972656 63.210938 -117.957031 63.765625 -117.03125 C 64.316406 -116.113281 65.144531 -115.65625 66.25 -115.65625 C 69.195312 -115.65625 71.863281 -116.484375 74.25 -118.140625 C 76.644531 -119.796875 79.035156 -121.726562 81.421875 -123.9375 C 83.816406 -126.144531 86.394531 -128.078125 89.15625 -129.734375 C 91.914062 -131.390625 95.140625 -132.21875 98.828125 -132.21875 C 105.816406 -132.21875 111.609375 -130.789062 116.203125 -127.9375 C 120.804688 -125.09375 123.109375 -121.828125 123.109375 -118.140625 Z M 123.109375 -118.140625 "/></g></g></g><g fill="#eee6d9" fill-opacity="1"><g transform="translate(685.258424, 667.535011)"><g><path d="M 139.125 -123.671875 C 139.125 -121.640625 138.894531 -118.691406 138.4375 -114.828125 C 137.976562 -110.960938 137.519531 -107.191406 137.0625 -103.515625 C 136.601562 -99.835938 136.28125 -97.257812 136.09375 -95.78125 C 136.28125 -94.675781 136.554688 -92.5625 136.921875 -89.4375 C 137.285156 -86.3125 137.648438 -82.90625 138.015625 -79.21875 C 138.390625 -75.539062 138.578125 -72.414062 138.578125 -69.84375 C 138.578125 -61.375 137.976562 -54.46875 136.78125 -49.125 C 135.582031 -43.789062 134.984375 -39.929688 134.984375 -37.546875 L 134.4375 -11.3125 L 133.328125 2.203125 L 127.8125 8.28125 C 127.070312 9.570312 125.875 11.132812 124.21875 12.96875 C 122.5625 14.8125 120.8125 15.734375 118.96875 15.734375 C 116.207031 15.734375 113.21875 14.8125 110 12.96875 C 106.78125 11.132812 104.988281 8.46875 104.625 4.96875 L 102.40625 -6.90625 C 102.40625 -6.90625 102.453125 -7.179688 102.546875 -7.734375 C 102.640625 -8.285156 102.6875 -8.835938 102.6875 -9.390625 C 102.6875 -9.941406 102.59375 -10.21875 102.40625 -10.21875 C 101.125 -10.21875 98.828125 -9.664062 95.515625 -8.5625 C 92.203125 -7.457031 88.195312 -6.304688 83.5 -5.109375 C 78.8125 -3.910156 73.707031 -3.3125 68.1875 -3.3125 C 58.976562 -3.3125 50.738281 -5.519531 43.46875 -9.9375 C 36.207031 -14.351562 30.503906 -20.195312 26.359375 -27.46875 C 22.222656 -34.738281 20.15625 -42.515625 20.15625 -50.796875 C 20.15625 -52.628906 20.335938 -55.109375 20.703125 -58.234375 C 21.066406 -61.367188 21.476562 -64.269531 21.9375 -66.9375 C 22.40625 -69.601562 22.640625 -70.9375 22.640625 -70.9375 L 29.8125 -86.125 L 36.71875 -91.921875 C 36.71875 -91.921875 37.585938 -92.796875 39.328125 -94.546875 C 41.078125 -96.296875 43.285156 -98.316406 45.953125 -100.609375 C 48.628906 -102.910156 51.160156 -104.707031 53.546875 -106 C 59.804688 -109.675781 65.375 -112.296875 70.25 -113.859375 C 75.125 -115.429688 81.148438 -116.304688 88.328125 -116.484375 L 100.484375 -116.765625 L 105.171875 -116.21875 C 105.359375 -116.21875 105.539062 -116.21875 105.71875 -116.21875 C 105.90625 -116.21875 106.09375 -116.21875 106.28125 -116.21875 C 107.9375 -116.21875 109.039062 -116.769531 109.59375 -117.875 C 110.144531 -118.976562 110.421875 -120.171875 110.421875 -121.453125 C 110.421875 -121.828125 110.375 -122.242188 110.28125 -122.703125 C 110.1875 -123.160156 110.140625 -123.570312 110.140625 -123.9375 L 108.484375 -134.15625 L 108.765625 -148.234375 C 108.765625 -148.234375 108.945312 -149.75 109.3125 -152.78125 C 109.675781 -155.820312 110.226562 -159.550781 110.96875 -163.96875 C 111.707031 -168.382812 112.71875 -172.800781 114 -177.21875 C 115.289062 -181.632812 116.945312 -185.359375 118.96875 -188.390625 C 121 -191.429688 123.394531 -192.953125 126.15625 -192.953125 C 129.46875 -192.953125 131.90625 -191.941406 133.46875 -189.921875 C 135.03125 -187.898438 136.039062 -185.507812 136.5 -182.75 C 136.96875 -179.988281 137.203125 -177.410156 137.203125 -175.015625 C 137.203125 -173.722656 137.15625 -172.570312 137.0625 -171.5625 C 136.96875 -170.550781 136.921875 -169.769531 136.921875 -169.21875 C 136.921875 -164.613281 137.285156 -158.816406 138.015625 -151.828125 C 138.753906 -144.835938 139.125 -135.453125 139.125 -123.671875 Z M 108.765625 -70.390625 C 108.941406 -70.753906 109.03125 -71.304688 109.03125 -72.046875 C 109.03125 -74.066406 108.0625 -76 106.125 -77.84375 C 104.195312 -79.6875 103.234375 -80.609375 103.234375 -80.609375 L 98.265625 -85.84375 L 86.40625 -85.84375 C 79.957031 -85.84375 73.878906 -84.1875 68.171875 -80.875 C 62.472656 -77.5625 57.875 -73.28125 54.375 -68.03125 C 50.882812 -62.789062 49.140625 -57.410156 49.140625 -51.890625 C 49.140625 -46.191406 51.023438 -41.410156 54.796875 -37.546875 C 58.566406 -33.679688 63.582031 -31.75 69.84375 -31.75 C 73.707031 -31.75 77.613281 -32.390625 81.5625 -33.671875 C 85.519531 -34.960938 89.523438 -37.359375 93.578125 -40.859375 C 95.046875 -41.773438 96.054688 -43.015625 96.609375 -44.578125 C 97.160156 -46.140625 97.4375 -46.921875 97.4375 -46.921875 L 101.859375 -55.765625 L 103.234375 -61 L 106.828125 -65.421875 Z M 108.765625 -70.390625 "/></g></g></g><g fill="#eee6d9" fill-opacity="1"><g transform="translate(816.103202, 667.535011)"><g><path d="M 68.734375 -113.453125 L 66.796875 -98.546875 L 68.453125 -68.734375 L 66.796875 -61.828125 C 66.796875 -61.828125 66.425781 -60.125 65.6875 -56.71875 C 64.957031 -53.320312 64.59375 -50.148438 64.59375 -47.203125 C 64.59375 -45.179688 64.773438 -42.832031 65.140625 -40.15625 C 65.515625 -37.488281 65.882812 -35.144531 66.25 -33.125 C 66.613281 -31.101562 66.796875 -30.09375 66.796875 -30.09375 L 65.421875 -23.1875 C 64.316406 -19.320312 62.289062 -15.867188 59.34375 -12.828125 C 56.40625 -9.796875 53.1875 -8.28125 49.6875 -8.28125 C 45.082031 -8.28125 41.769531 -9.613281 39.75 -12.28125 C 37.726562 -14.945312 36.71875 -19.226562 36.71875 -25.125 C 36.71875 -26.039062 36.992188 -27.460938 37.546875 -29.390625 C 38.097656 -31.328125 38.375 -33.21875 38.375 -35.0625 L 37.546875 -52.171875 C 37.546875 -52.171875 37.269531 -55.253906 36.71875 -61.421875 C 36.164062 -67.585938 35.890625 -74.347656 35.890625 -81.703125 C 35.890625 -86.492188 36.117188 -91.050781 36.578125 -95.375 C 37.035156 -99.695312 37.722656 -103.238281 38.640625 -106 L 41.125 -112.625 L 43.890625 -120.625 C 44.804688 -122.832031 46.597656 -124.898438 49.265625 -126.828125 C 51.941406 -128.765625 54.472656 -129.734375 56.859375 -129.734375 C 59.992188 -129.734375 62.296875 -128.8125 63.765625 -126.96875 C 65.234375 -125.132812 66.195312 -123.25 66.65625 -121.3125 C 67.125 -119.382812 67.359375 -118.421875 67.359375 -118.421875 Z M 67.078125 -173.078125 C 67.078125 -166.273438 65.097656 -160.707031 61.140625 -156.375 C 57.179688 -152.050781 53.269531 -149.890625 49.40625 -149.890625 C 49.226562 -149.890625 48.953125 -149.890625 48.578125 -149.890625 C 48.210938 -149.890625 47.847656 -149.890625 47.484375 -149.890625 C 44.535156 -149.890625 41.769531 -150.394531 39.1875 -151.40625 C 36.613281 -152.425781 34.867188 -153.851562 33.953125 -155.6875 L 29.8125 -163.140625 L 32.015625 -173.90625 L 39.203125 -180.8125 L 45 -189.09375 L 54.375 -187.984375 C 58.0625 -187.253906 61.097656 -185.785156 63.484375 -183.578125 C 65.878906 -181.367188 67.078125 -177.867188 67.078125 -173.078125 Z M 67.078125 -173.078125 "/></g></g></g><g fill="#eee6d9" fill-opacity="1"><g transform="translate(885.390077, 667.535011)"><g><path d="M 131.671875 -76.46875 C 131.671875 -70.207031 129.414062 -64.679688 124.90625 -59.890625 C 120.394531 -55.109375 114.921875 -52.71875 108.484375 -52.71875 C 100.941406 -52.71875 93.03125 -53.59375 84.75 -55.34375 C 76.46875 -57.09375 69.378906 -57.96875 63.484375 -57.96875 C 55.941406 -57.96875 52.171875 -56.21875 52.171875 -52.71875 C 52.171875 -51.988281 52.539062 -51.070312 53.28125 -49.96875 C 55.664062 -46.832031 58.742188 -43.835938 62.515625 -40.984375 C 66.296875 -38.140625 69.882812 -35.75 73.28125 -33.8125 C 76.6875 -31.882812 78.851562 -30.644531 79.78125 -30.09375 L 87.234375 -28.15625 L 96.34375 -27.328125 L 101.03125 -22.90625 L 107.9375 -18.5 L 109.03125 -4.140625 L 104.625 0 L 101.578125 4.421875 C 101.578125 4.421875 100.332031 4.878906 97.84375 5.796875 C 95.363281 6.710938 93.484375 7.171875 92.203125 7.171875 C 87.597656 7.171875 82.71875 6.203125 77.5625 4.265625 C 72.414062 2.335938 68.046875 0.410156 64.453125 -1.515625 C 60.867188 -3.453125 59.078125 -4.421875 59.078125 -4.421875 L 48.03125 -11.046875 L 45 -16.28125 L 29.53125 -33.953125 C 29.53125 -33.953125 29.160156 -34.78125 28.421875 -36.4375 C 27.691406 -38.09375 26.957031 -40.070312 26.21875 -42.375 C 25.488281 -44.675781 25.125 -46.742188 25.125 -48.578125 C 25.125 -50.972656 25.441406 -53.457031 26.078125 -56.03125 C 26.722656 -58.613281 27.140625 -60.363281 27.328125 -61.28125 L 27.875 -76.46875 C 27.875 -77.75 28.195312 -79.863281 28.84375 -82.8125 C 29.488281 -85.757812 30.132812 -88.566406 30.78125 -91.234375 C 31.425781 -93.898438 31.75 -95.234375 31.75 -95.234375 C 31.75 -95.234375 33.035156 -96.613281 35.609375 -99.375 C 38.179688 -102.132812 41.304688 -105.257812 44.984375 -108.75 C 48.671875 -112.25 51.988281 -114.921875 54.9375 -116.765625 C 58.613281 -118.972656 62.015625 -120.582031 65.140625 -121.59375 C 68.273438 -122.601562 69.84375 -123.109375 69.84375 -123.109375 L 76.46875 -125.875 L 91.640625 -127.25 C 103.785156 -127.25 113.492188 -122.785156 120.765625 -113.859375 C 128.035156 -104.941406 131.671875 -92.476562 131.671875 -76.46875 Z M 106.546875 -88.890625 C 106.546875 -91.460938 105.210938 -94.40625 102.546875 -97.71875 C 99.878906 -101.03125 96.796875 -102.6875 93.296875 -102.6875 C 91.828125 -102.6875 90.171875 -102.363281 88.328125 -101.71875 C 86.492188 -101.070312 85.578125 -100.75 85.578125 -100.75 L 78.953125 -99.09375 L 67.90625 -99.375 C 65.507812 -99.375 63.617188 -98.175781 62.234375 -95.78125 C 60.859375 -93.394531 60.171875 -91.097656 60.171875 -88.890625 C 60.171875 -87.960938 60.304688 -86.945312 60.578125 -85.84375 C 60.859375 -84.738281 61.460938 -83.820312 62.390625 -83.09375 C 63.304688 -82.539062 64.363281 -82.21875 65.5625 -82.125 C 66.757812 -82.03125 68 -81.984375 69.28125 -81.984375 C 70.207031 -81.984375 71.175781 -81.984375 72.1875 -81.984375 C 73.195312 -81.984375 74.070312 -81.984375 74.8125 -81.984375 C 75.363281 -81.984375 75.914062 -81.9375 76.46875 -81.84375 C 77.019531 -81.75 77.476562 -81.703125 77.84375 -81.703125 L 86.671875 -80.609375 L 96.34375 -80.875 C 101.125 -81.0625 104.019531 -81.84375 105.03125 -83.21875 C 106.039062 -84.601562 106.546875 -86.492188 106.546875 -88.890625 Z M 106.546875 -88.890625 "/></g></g></g><g fill="#eee6d9" fill-opacity="1"><g transform="translate(1005.193091, 667.535011)"><g><path d="M 123.109375 -118.140625 C 123.109375 -115.929688 122.003906 -113.492188 119.796875 -110.828125 C 117.585938 -108.160156 114.78125 -105.859375 111.375 -103.921875 C 107.976562 -101.992188 104.4375 -100.847656 100.75 -100.484375 C 94.3125 -99.742188 88.285156 -98.128906 82.671875 -95.640625 C 77.054688 -93.160156 73.882812 -89.894531 73.15625 -85.84375 L 72.046875 -79.21875 L 66.25 -65.96875 C 66.25 -65.96875 66.15625 -65.320312 65.96875 -64.03125 C 65.789062 -62.75 65.703125 -60.546875 65.703125 -57.421875 C 65.703125 -50.796875 66.484375 -44.90625 68.046875 -39.75 C 69.609375 -34.59375 70.390625 -30.726562 70.390625 -28.15625 C 70.390625 -25.582031 69.742188 -22.546875 68.453125 -19.046875 C 67.171875 -15.546875 65.285156 -12.507812 62.796875 -9.9375 C 60.316406 -7.363281 57.421875 -6.078125 54.109375 -6.078125 C 51.710938 -6.078125 49.457031 -7.269531 47.34375 -9.65625 C 45.226562 -12.050781 43.617188 -14.535156 42.515625 -17.109375 L 40.03125 -23.734375 L 36.984375 -30.359375 L 37.265625 -46.09375 L 36.15625 -51.625 L 36.4375 -61 L 35.609375 -68.453125 L 37.8125 -80.875 L 36.4375 -99.09375 L 33.40625 -114.28125 L 32.296875 -131.390625 C 32.296875 -131.578125 32.296875 -131.757812 32.296875 -131.9375 C 32.296875 -132.125 32.296875 -132.3125 32.296875 -132.5 C 32.296875 -136 33.535156 -139.035156 36.015625 -141.609375 C 38.503906 -144.191406 42.050781 -145.484375 46.65625 -145.484375 C 49.226562 -145.484375 52.125 -144.238281 55.34375 -141.75 C 58.5625 -139.269531 60.171875 -136.738281 60.171875 -134.15625 L 59.90625 -131.671875 L 61.5625 -126.703125 L 61.5625 -123.109375 L 62.390625 -120.078125 C 62.753906 -118.972656 63.210938 -117.957031 63.765625 -117.03125 C 64.316406 -116.113281 65.144531 -115.65625 66.25 -115.65625 C 69.195312 -115.65625 71.863281 -116.484375 74.25 -118.140625 C 76.644531 -119.796875 79.035156 -121.726562 81.421875 -123.9375 C 83.816406 -126.144531 86.394531 -128.078125 89.15625 -129.734375 C 91.914062 -131.390625 95.140625 -132.21875 98.828125 -132.21875 C 105.816406 -132.21875 111.609375 -130.789062 116.203125 -127.9375 C 120.804688 -125.09375 123.109375 -121.828125 123.109375 -118.140625 Z M 123.109375 -118.140625 "/></g></g></g><g fill="#eee6d9" fill-opacity="1"><g transform="translate(1103.188566, 667.535011)"><g><path d="M 131.671875 -76.46875 C 131.671875 -70.207031 129.414062 -64.679688 124.90625 -59.890625 C 120.394531 -55.109375 114.921875 -52.71875 108.484375 -52.71875 C 100.941406 -52.71875 93.03125 -53.59375 84.75 -55.34375 C 76.46875 -57.09375 69.378906 -57.96875 63.484375 -57.96875 C 55.941406 -57.96875 52.171875 -56.21875 52.171875 -52.71875 C 52.171875 -51.988281 52.539062 -51.070312 53.28125 -49.96875 C 55.664062 -46.832031 58.742188 -43.835938 62.515625 -40.984375 C 66.296875 -38.140625 69.882812 -35.75 73.28125 -33.8125 C 76.6875 -31.882812 78.851562 -30.644531 79.78125 -30.09375 L 87.234375 -28.15625 L 96.34375 -27.328125 L 101.03125 -22.90625 L 107.9375 -18.5 L 109.03125 -4.140625 L 104.625 0 L 101.578125 4.421875 C 101.578125 4.421875 100.332031 4.878906 97.84375 5.796875 C 95.363281 6.710938 93.484375 7.171875 92.203125 7.171875 C 87.597656 7.171875 82.71875 6.203125 77.5625 4.265625 C 72.414062 2.335938 68.046875 0.410156 64.453125 -1.515625 C 60.867188 -3.453125 59.078125 -4.421875 59.078125 -4.421875 L 48.03125 -11.046875 L 45 -16.28125 L 29.53125 -33.953125 C 29.53125 -33.953125 29.160156 -34.78125 28.421875 -36.4375 C 27.691406 -38.09375 26.957031 -40.070312 26.21875 -42.375 C 25.488281 -44.675781 25.125 -46.742188 25.125 -48.578125 C 25.125 -50.972656 25.441406 -53.457031 26.078125 -56.03125 C 26.722656 -58.613281 27.140625 -60.363281 27.328125 -61.28125 L 27.875 -76.46875 C 27.875 -77.75 28.195312 -79.863281 28.84375 -82.8125 C 29.488281 -85.757812 30.132812 -88.566406 30.78125 -91.234375 C 31.425781 -93.898438 31.75 -95.234375 31.75 -95.234375 C 31.75 -95.234375 33.035156 -96.613281 35.609375 -99.375 C 38.179688 -102.132812 41.304688 -105.257812 44.984375 -108.75 C 48.671875 -112.25 51.988281 -114.921875 54.9375 -116.765625 C 58.613281 -118.972656 62.015625 -120.582031 65.140625 -121.59375 C 68.273438 -122.601562 69.84375 -123.109375 69.84375 -123.109375 L 76.46875 -125.875 L 91.640625 -127.25 C 103.785156 -127.25 113.492188 -122.785156 120.765625 -113.859375 C 128.035156 -104.941406 131.671875 -92.476562 131.671875 -76.46875 Z M 106.546875 -88.890625 C 106.546875 -91.460938 105.210938 -94.40625 102.546875 -97.71875 C 99.878906 -101.03125 96.796875 -102.6875 93.296875 -102.6875 C 91.828125 -102.6875 90.171875 -102.363281 88.328125 -101.71875 C 86.492188 -101.070312 85.578125 -100.75 85.578125 -100.75 L 78.953125 -99.09375 L 67.90625 -99.375 C 65.507812 -99.375 63.617188 -98.175781 62.234375 -95.78125 C 60.859375 -93.394531 60.171875 -91.097656 60.171875 -88.890625 C 60.171875 -87.960938 60.304688 -86.945312 60.578125 -85.84375 C 60.859375 -84.738281 61.460938 -83.820312 62.390625 -83.09375 C 63.304688 -82.539062 64.363281 -82.21875 65.5625 -82.125 C 66.757812 -82.03125 68 -81.984375 69.28125 -81.984375 C 70.207031 -81.984375 71.175781 -81.984375 72.1875 -81.984375 C 73.195312 -81.984375 74.070312 -81.984375 74.8125 -81.984375 C 75.363281 -81.984375 75.914062 -81.9375 76.46875 -81.84375 C 77.019531 -81.75 77.476562 -81.703125 77.84375 -81.703125 L 86.671875 -80.609375 L 96.34375 -80.875 C 101.125 -81.0625 104.019531 -81.84375 105.03125 -83.21875 C 106.039062 -84.601562 106.546875 -86.492188 106.546875 -88.890625 Z M 106.546875 -88.890625 "/></g></g></g><g fill="#eee6d9" fill-opacity="1"><g transform="translate(297.835577, 871.534993)"><g><path d="M 157.625 -157.625 C 156.707031 -155.226562 154.867188 -153.335938 152.109375 -151.953125 C 149.347656 -150.578125 146.585938 -149.890625 143.828125 -149.890625 C 141.796875 -149.890625 140.046875 -150.257812 138.578125 -151 C 135.628906 -151.914062 133.234375 -153.0625 131.390625 -154.4375 C 129.554688 -155.820312 126.519531 -156.515625 122.28125 -156.515625 C 114.550781 -156.515625 107.972656 -155.179688 102.546875 -152.515625 C 97.117188 -149.847656 93.671875 -147.867188 92.203125 -146.578125 L 89.71875 -142.71875 L 74.53125 -130.015625 C 73.976562 -129.648438 72.273438 -127.765625 69.421875 -124.359375 C 66.566406 -120.953125 63.851562 -116.945312 61.28125 -112.34375 C 58.332031 -107.375 56.125 -101.757812 54.65625 -95.5 C 53.1875 -89.25 52.453125 -83.734375 52.453125 -78.953125 C 52.453125 -77.296875 52.816406 -75.175781 53.546875 -72.59375 C 54.285156 -70.019531 54.929688 -68 55.484375 -66.53125 L 62.9375 -60.453125 L 65.703125 -55.203125 L 68.734375 -51.890625 C 70.390625 -51.335938 72.828125 -50.460938 76.046875 -49.265625 C 79.265625 -48.078125 82.757812 -47.019531 86.53125 -46.09375 C 90.3125 -45.175781 93.765625 -44.71875 96.890625 -44.71875 C 98.910156 -44.71875 100.609375 -44.945312 101.984375 -45.40625 C 103.367188 -45.863281 104.0625 -46.09375 104.0625 -46.09375 L 113.171875 -50.234375 L 118.96875 -51.34375 L 127.53125 -56.03125 L 138.296875 -51.34375 L 139.125 -46.375 L 144.375 -41.125 C 144.375 -41.125 144.003906 -40.15625 143.265625 -38.21875 C 142.535156 -36.289062 141.570312 -34.082031 140.375 -31.59375 C 139.175781 -29.113281 137.75 -26.90625 136.09375 -24.96875 C 134.4375 -23.039062 132.59375 -22.078125 130.5625 -22.078125 L 125.875 -22.359375 C 125.132812 -22.171875 123.890625 -21.800781 122.140625 -21.25 C 120.398438 -20.695312 118.515625 -19.960938 116.484375 -19.046875 C 113.359375 -18.304688 110 -17.613281 106.40625 -16.96875 C 102.820312 -16.332031 98.914062 -16.015625 94.6875 -16.015625 C 91.375 -16.015625 87.234375 -16.472656 82.265625 -17.390625 C 77.296875 -18.304688 72.921875 -19.175781 69.140625 -20 C 65.367188 -20.832031 63.484375 -21.25 63.484375 -21.25 L 54.65625 -22.90625 L 41.953125 -33.40625 C 41.953125 -33.40625 40.941406 -34.460938 38.921875 -36.578125 C 36.898438 -38.691406 34.550781 -41.769531 31.875 -45.8125 C 29.207031 -49.863281 26.863281 -54.742188 24.84375 -60.453125 C 22.820312 -66.160156 21.8125 -72.601562 21.8125 -79.78125 C 21.8125 -85.476562 22.867188 -91.59375 24.984375 -98.125 C 27.097656 -104.664062 29.488281 -110.878906 32.15625 -116.765625 C 34.820312 -122.648438 37.210938 -127.429688 39.328125 -131.109375 C 41.453125 -134.796875 42.515625 -136.640625 42.515625 -136.640625 L 55.765625 -156.25 L 61 -159.828125 C 61.925781 -160.566406 63.257812 -161.851562 65 -163.6875 C 66.75 -165.53125 68.453125 -167.191406 70.109375 -168.671875 C 76.734375 -173.816406 84.738281 -177.863281 94.125 -180.8125 C 103.507812 -183.757812 112.53125 -185.234375 121.1875 -185.234375 C 130.9375 -185.234375 138.476562 -183.578125 143.8125 -180.265625 C 149.15625 -176.953125 153.300781 -173.175781 156.25 -168.9375 C 156.976562 -167.65625 157.523438 -166.503906 157.890625 -165.484375 C 158.265625 -164.472656 158.453125 -163.328125 158.453125 -162.046875 C 158.453125 -160.753906 158.175781 -159.28125 157.625 -157.625 Z M 157.625 -157.625 "/></g></g></g><g fill="#eee6d9" fill-opacity="1"><g transform="translate(435.30542, 871.534993)"><g><path d="M 123.109375 -118.140625 C 123.109375 -115.929688 122.003906 -113.492188 119.796875 -110.828125 C 117.585938 -108.160156 114.78125 -105.859375 111.375 -103.921875 C 107.976562 -101.992188 104.4375 -100.847656 100.75 -100.484375 C 94.3125 -99.742188 88.285156 -98.128906 82.671875 -95.640625 C 77.054688 -93.160156 73.882812 -89.894531 73.15625 -85.84375 L 72.046875 -79.21875 L 66.25 -65.96875 C 66.25 -65.96875 66.15625 -65.320312 65.96875 -64.03125 C 65.789062 -62.75 65.703125 -60.546875 65.703125 -57.421875 C 65.703125 -50.796875 66.484375 -44.90625 68.046875 -39.75 C 69.609375 -34.59375 70.390625 -30.726562 70.390625 -28.15625 C 70.390625 -25.582031 69.742188 -22.546875 68.453125 -19.046875 C 67.171875 -15.546875 65.285156 -12.507812 62.796875 -9.9375 C 60.316406 -7.363281 57.421875 -6.078125 54.109375 -6.078125 C 51.710938 -6.078125 49.457031 -7.269531 47.34375 -9.65625 C 45.226562 -12.050781 43.617188 -14.535156 42.515625 -17.109375 L 40.03125 -23.734375 L 36.984375 -30.359375 L 37.265625 -46.09375 L 36.15625 -51.625 L 36.4375 -61 L 35.609375 -68.453125 L 37.8125 -80.875 L 36.4375 -99.09375 L 33.40625 -114.28125 L 32.296875 -131.390625 C 32.296875 -131.578125 32.296875 -131.757812 32.296875 -131.9375 C 32.296875 -132.125 32.296875 -132.3125 32.296875 -132.5 C 32.296875 -136 33.535156 -139.035156 36.015625 -141.609375 C 38.503906 -144.191406 42.050781 -145.484375 46.65625 -145.484375 C 49.226562 -145.484375 52.125 -144.238281 55.34375 -141.75 C 58.5625 -139.269531 60.171875 -136.738281 60.171875 -134.15625 L 59.90625 -131.671875 L 61.5625 -126.703125 L 61.5625 -123.109375 L 62.390625 -120.078125 C 62.753906 -118.972656 63.210938 -117.957031 63.765625 -117.03125 C 64.316406 -116.113281 65.144531 -115.65625 66.25 -115.65625 C 69.195312 -115.65625 71.863281 -116.484375 74.25 -118.140625 C 76.644531 -119.796875 79.035156 -121.726562 81.421875 -123.9375 C 83.816406 -126.144531 86.394531 -128.078125 89.15625 -129.734375 C 91.914062 -131.390625 95.140625 -132.21875 98.828125 -132.21875 C 105.816406 -132.21875 111.609375 -130.789062 116.203125 -127.9375 C 120.804688 -125.09375 123.109375 -121.828125 123.109375 -118.140625 Z M 123.109375 -118.140625 "/></g></g></g><g fill="#eee6d9" fill-opacity="1"><g transform="translate(533.300929, 871.534993)"><g><path d="M 131.671875 -76.46875 C 131.671875 -70.207031 129.414062 -64.679688 124.90625 -59.890625 C 120.394531 -55.109375 114.921875 -52.71875 108.484375 -52.71875 C 100.941406 -52.71875 93.03125 -53.59375 84.75 -55.34375 C 76.46875 -57.09375 69.378906 -57.96875 63.484375 -57.96875 C 55.941406 -57.96875 52.171875 -56.21875 52.171875 -52.71875 C 52.171875 -51.988281 52.539062 -51.070312 53.28125 -49.96875 C 55.664062 -46.832031 58.742188 -43.835938 62.515625 -40.984375 C 66.296875 -38.140625 69.882812 -35.75 73.28125 -33.8125 C 76.6875 -31.882812 78.851562 -30.644531 79.78125 -30.09375 L 87.234375 -28.15625 L 96.34375 -27.328125 L 101.03125 -22.90625 L 107.9375 -18.5 L 109.03125 -4.140625 L 104.625 0 L 101.578125 4.421875 C 101.578125 4.421875 100.332031 4.878906 97.84375 5.796875 C 95.363281 6.710938 93.484375 7.171875 92.203125 7.171875 C 87.597656 7.171875 82.71875 6.203125 77.5625 4.265625 C 72.414062 2.335938 68.046875 0.410156 64.453125 -1.515625 C 60.867188 -3.453125 59.078125 -4.421875 59.078125 -4.421875 L 48.03125 -11.046875 L 45 -16.28125 L 29.53125 -33.953125 C 29.53125 -33.953125 29.160156 -34.78125 28.421875 -36.4375 C 27.691406 -38.09375 26.957031 -40.070312 26.21875 -42.375 C 25.488281 -44.675781 25.125 -46.742188 25.125 -48.578125 C 25.125 -50.972656 25.441406 -53.457031 26.078125 -56.03125 C 26.722656 -58.613281 27.140625 -60.363281 27.328125 -61.28125 L 27.875 -76.46875 C 27.875 -77.75 28.195312 -79.863281 28.84375 -82.8125 C 29.488281 -85.757812 30.132812 -88.566406 30.78125 -91.234375 C 31.425781 -93.898438 31.75 -95.234375 31.75 -95.234375 C 31.75 -95.234375 33.035156 -96.613281 35.609375 -99.375 C 38.179688 -102.132812 41.304688 -105.257812 44.984375 -108.75 C 48.671875 -112.25 51.988281 -114.921875 54.9375 -116.765625 C 58.613281 -118.972656 62.015625 -120.582031 65.140625 -121.59375 C 68.273438 -122.601562 69.84375 -123.109375 69.84375 -123.109375 L 76.46875 -125.875 L 91.640625 -127.25 C 103.785156 -127.25 113.492188 -122.785156 120.765625 -113.859375 C 128.035156 -104.941406 131.671875 -92.476562 131.671875 -76.46875 Z M 106.546875 -88.890625 C 106.546875 -91.460938 105.210938 -94.40625 102.546875 -97.71875 C 99.878906 -101.03125 96.796875 -102.6875 93.296875 -102.6875 C 91.828125 -102.6875 90.171875 -102.363281 88.328125 -101.71875 C 86.492188 -101.070312 85.578125 -100.75 85.578125 -100.75 L 78.953125 -99.09375 L 67.90625 -99.375 C 65.507812 -99.375 63.617188 -98.175781 62.234375 -95.78125 C 60.859375 -93.394531 60.171875 -91.097656 60.171875 -88.890625 C 60.171875 -87.960938 60.304688 -86.945312 60.578125 -85.84375 C 60.859375 -84.738281 61.460938 -83.820312 62.390625 -83.09375 C 63.304688 -82.539062 64.363281 -82.21875 65.5625 -82.125 C 66.757812 -82.03125 68 -81.984375 69.28125 -81.984375 C 70.207031 -81.984375 71.175781 -81.984375 72.1875 -81.984375 C 73.195312 -81.984375 74.070312 -81.984375 74.8125 -81.984375 C 75.363281 -81.984375 75.914062 -81.9375 76.46875 -81.84375 C 77.019531 -81.75 77.476562 -81.703125 77.84375 -81.703125 L 86.671875 -80.609375 L 96.34375 -80.875 C 101.125 -81.0625 104.019531 -81.84375 105.03125 -83.21875 C 106.039062 -84.601562 106.546875 -86.492188 106.546875 -88.890625 Z M 106.546875 -88.890625 "/></g></g></g><g fill="#eee6d9" fill-opacity="1"><g transform="translate(655.864372, 871.534993)"><g><path d="M 126.703125 -33.953125 C 126.703125 -33.953125 126.5625 -32.753906 126.28125 -30.359375 C 126.007812 -27.972656 125.597656 -25.210938 125.046875 -22.078125 C 124.492188 -18.953125 123.800781 -16.097656 122.96875 -13.515625 C 122.144531 -10.941406 121.179688 -9.472656 120.078125 -9.109375 C 118.785156 -8.554688 117.3125 -8.28125 115.65625 -8.28125 C 113.632812 -8.28125 111.703125 -8.554688 109.859375 -9.109375 C 108.023438 -9.660156 107.109375 -9.9375 107.109375 -9.9375 L 97.71875 -16.28125 L 78.125 -12.140625 C 73.707031 -11.410156 69.425781 -10.859375 65.28125 -10.484375 C 61.144531 -10.117188 57.328125 -9.9375 53.828125 -9.9375 C 47.753906 -9.9375 42.832031 -11.773438 39.0625 -15.453125 C 35.289062 -19.140625 31.5625 -23.28125 27.875 -27.875 C 24.75 -31.738281 22.128906 -35.785156 20.015625 -40.015625 C 17.898438 -44.253906 16.84375 -47.570312 16.84375 -49.96875 C 16.84375 -56.40625 17.804688 -62.472656 19.734375 -68.171875 C 21.671875 -73.878906 23.925781 -78.941406 26.5 -83.359375 C 29.070312 -87.773438 31.320312 -91.222656 33.25 -93.703125 C 35.1875 -96.191406 36.15625 -97.4375 36.15625 -97.4375 L 44.171875 -107.9375 L 49.40625 -110.421875 C 49.40625 -110.421875 51.195312 -111.289062 54.78125 -113.03125 C 58.375 -114.78125 62.289062 -115.65625 66.53125 -115.65625 C 68.738281 -115.65625 71.175781 -114.78125 73.84375 -113.03125 C 76.507812 -111.289062 78.765625 -110.421875 80.609375 -110.421875 C 81.335938 -110.421875 81.890625 -110.601562 82.265625 -110.96875 L 88.328125 -116.765625 C 88.328125 -116.765625 89.289062 -117.128906 91.21875 -117.859375 C 93.15625 -118.597656 94.953125 -118.96875 96.609375 -118.96875 C 98.816406 -118.96875 101.300781 -117.445312 104.0625 -114.40625 C 106.820312 -111.375 109.304688 -107.554688 111.515625 -102.953125 C 113.722656 -98.359375 115.101562 -93.757812 115.65625 -89.15625 L 117.046875 -78.671875 L 122.84375 -54.109375 L 123.109375 -43.34375 C 123.109375 -43.34375 123.429688 -42.554688 124.078125 -40.984375 C 124.722656 -39.421875 125.320312 -37.859375 125.875 -36.296875 C 126.425781 -34.734375 126.703125 -33.953125 126.703125 -33.953125 Z M 90.8125 -58.796875 C 90.8125 -60.265625 90.535156 -61.6875 89.984375 -63.0625 C 89.429688 -64.445312 89.15625 -65.140625 89.15625 -65.140625 L 83.640625 -73.703125 L 80.875 -80.609375 C 80.144531 -82.265625 79.085938 -83.367188 77.703125 -83.921875 C 76.328125 -84.472656 74.625 -84.75 72.59375 -84.75 C 71.488281 -84.75 70.335938 -84.703125 69.140625 -84.609375 C 67.953125 -84.515625 66.710938 -84.46875 65.421875 -84.46875 C 61.742188 -84.46875 58.109375 -83.269531 54.515625 -80.875 C 50.929688 -78.488281 47.941406 -75.40625 45.546875 -71.625 C 43.148438 -67.851562 41.953125 -63.851562 41.953125 -59.625 C 41.953125 -58.882812 42.320312 -57.59375 43.0625 -55.75 C 43.800781 -53.914062 44.488281 -52.257812 45.125 -50.78125 C 45.769531 -49.3125 46.09375 -48.578125 46.09375 -48.578125 L 52.171875 -44.171875 L 54.9375 -39.75 C 55.851562 -38.457031 57.460938 -37.671875 59.765625 -37.390625 C 62.066406 -37.117188 63.582031 -36.984375 64.3125 -36.984375 C 72.414062 -36.984375 78.859375 -39.007812 83.640625 -43.0625 C 88.421875 -47.113281 90.8125 -52.359375 90.8125 -58.796875 Z M 90.8125 -58.796875 "/></g></g></g><g fill="#eee6d9" fill-opacity="1"><g transform="translate(769.318342, 871.534993)"><g><path d="M 112.625 -123.390625 C 112.625 -122.097656 111.84375 -120.71875 110.28125 -119.25 C 108.71875 -117.78125 107.289062 -116.398438 106 -115.109375 C 104.707031 -113.640625 103.28125 -112.117188 101.71875 -110.546875 C 100.15625 -108.984375 98.363281 -108.203125 96.34375 -108.203125 C 96.15625 -108.203125 96.015625 -108.203125 95.921875 -108.203125 C 95.828125 -108.203125 95.691406 -108.203125 95.515625 -108.203125 L 90.8125 -108.765625 L 83.359375 -107.375 L 78.125 -107.109375 L 77.84375 -84.46875 L 74.53125 -70.671875 L 75.90625 -53 L 75.078125 -40.03125 L 76.734375 -22.359375 L 75.078125 -14.359375 L 75.640625 -9.109375 L 71.765625 -2.203125 L 65.421875 6.625 L 61.28125 5.796875 L 53 6.078125 C 53 6.078125 52.492188 5.0625 51.484375 3.03125 C 50.472656 1.007812 49.503906 -1.332031 48.578125 -4 C 47.660156 -6.664062 47.203125 -8.921875 47.203125 -10.765625 C 47.203125 -13.160156 47.523438 -15.597656 48.171875 -18.078125 C 48.816406 -20.566406 49.320312 -22.453125 49.6875 -23.734375 L 48.3125 -48.859375 L 51.34375 -57.96875 L 51.625 -64.046875 L 50.234375 -77.015625 L 50.515625 -93.859375 L 52.171875 -103.796875 L 50.515625 -106.828125 L 30.09375 -108.765625 C 27.332031 -108.941406 25.078125 -109.992188 23.328125 -111.921875 C 21.578125 -113.859375 20.703125 -116.484375 20.703125 -119.796875 C 20.703125 -121.085938 21.207031 -123.25 22.21875 -126.28125 C 23.226562 -129.320312 24.238281 -132.175781 25.25 -134.84375 C 26.269531 -137.519531 26.78125 -138.859375 26.78125 -138.859375 C 26.78125 -138.859375 27.742188 -138.625 29.671875 -138.15625 C 31.609375 -137.695312 33.816406 -137.191406 36.296875 -136.640625 C 38.785156 -136.085938 40.671875 -135.8125 41.953125 -135.8125 C 44.160156 -136 46.597656 -136.273438 49.265625 -136.640625 C 51.941406 -137.015625 53.28125 -138.304688 53.28125 -140.515625 C 53.28125 -140.515625 53.28125 -140.554688 53.28125 -140.640625 C 53.28125 -140.734375 53.28125 -140.78125 53.28125 -140.78125 L 52.171875 -154.03125 L 53.828125 -161.21875 L 54.375 -166.1875 L 56.3125 -171.703125 C 56.3125 -172.066406 56.265625 -172.429688 56.171875 -172.796875 C 56.078125 -173.171875 56.03125 -173.632812 56.03125 -174.1875 C 56.03125 -176.207031 56.441406 -178.597656 57.265625 -181.359375 C 58.097656 -184.117188 59.753906 -186.554688 62.234375 -188.671875 C 64.722656 -190.796875 68.363281 -191.859375 73.15625 -191.859375 C 81.25 -191.859375 85.296875 -187.71875 85.296875 -179.4375 C 85.296875 -179.0625 85.066406 -177.863281 84.609375 -175.84375 C 84.148438 -173.820312 83.6875 -171.796875 83.21875 -169.765625 C 82.757812 -167.742188 82.441406 -166.457031 82.265625 -165.90625 L 82.8125 -154.59375 L 81.984375 -145.484375 C 81.984375 -144.378906 82.210938 -143.363281 82.671875 -142.4375 C 83.128906 -141.519531 84.003906 -141.0625 85.296875 -141.0625 L 96.890625 -139.953125 C 98.910156 -139.773438 101.160156 -138.851562 103.640625 -137.1875 C 106.128906 -135.53125 108.25 -133.457031 110 -130.96875 C 111.75 -128.488281 112.625 -125.960938 112.625 -123.390625 Z M 112.625 -123.390625 "/></g></g></g><g fill="#eee6d9" fill-opacity="1"><g transform="translate(855.167883, 871.534993)"><g><path d="M 68.734375 -113.453125 L 66.796875 -98.546875 L 68.453125 -68.734375 L 66.796875 -61.828125 C 66.796875 -61.828125 66.425781 -60.125 65.6875 -56.71875 C 64.957031 -53.320312 64.59375 -50.148438 64.59375 -47.203125 C 64.59375 -45.179688 64.773438 -42.832031 65.140625 -40.15625 C 65.515625 -37.488281 65.882812 -35.144531 66.25 -33.125 C 66.613281 -31.101562 66.796875 -30.09375 66.796875 -30.09375 L 65.421875 -23.1875 C 64.316406 -19.320312 62.289062 -15.867188 59.34375 -12.828125 C 56.40625 -9.796875 53.1875 -8.28125 49.6875 -8.28125 C 45.082031 -8.28125 41.769531 -9.613281 39.75 -12.28125 C 37.726562 -14.945312 36.71875 -19.226562 36.71875 -25.125 C 36.71875 -26.039062 36.992188 -27.460938 37.546875 -29.390625 C 38.097656 -31.328125 38.375 -33.21875 38.375 -35.0625 L 37.546875 -52.171875 C 37.546875 -52.171875 37.269531 -55.253906 36.71875 -61.421875 C 36.164062 -67.585938 35.890625 -74.347656 35.890625 -81.703125 C 35.890625 -86.492188 36.117188 -91.050781 36.578125 -95.375 C 37.035156 -99.695312 37.722656 -103.238281 38.640625 -106 L 41.125 -112.625 L 43.890625 -120.625 C 44.804688 -122.832031 46.597656 -124.898438 49.265625 -126.828125 C 51.941406 -128.765625 54.472656 -129.734375 56.859375 -129.734375 C 59.992188 -129.734375 62.296875 -128.8125 63.765625 -126.96875 C 65.234375 -125.132812 66.195312 -123.25 66.65625 -121.3125 C 67.125 -119.382812 67.359375 -118.421875 67.359375 -118.421875 Z M 67.078125 -173.078125 C 67.078125 -166.273438 65.097656 -160.707031 61.140625 -156.375 C 57.179688 -152.050781 53.269531 -149.890625 49.40625 -149.890625 C 49.226562 -149.890625 48.953125 -149.890625 48.578125 -149.890625 C 48.210938 -149.890625 47.847656 -149.890625 47.484375 -149.890625 C 44.535156 -149.890625 41.769531 -150.394531 39.1875 -151.40625 C 36.613281 -152.425781 34.867188 -153.851562 33.953125 -155.6875 L 29.8125 -163.140625 L 32.015625 -173.90625 L 39.203125 -180.8125 L 45 -189.09375 L 54.375 -187.984375 C 58.0625 -187.253906 61.097656 -185.785156 63.484375 -183.578125 C 65.878906 -181.367188 67.078125 -177.867188 67.078125 -173.078125 Z M 67.078125 -173.078125 "/></g></g></g><g fill="#eee6d9" fill-opacity="1"><g transform="translate(924.454757, 871.534993)"><g><path d="M 146.859375 -87.78125 C 146.859375 -85.207031 146.488281 -82.675781 145.75 -80.1875 C 145.019531 -77.707031 143.085938 -74.257812 139.953125 -69.84375 C 136.828125 -65.425781 131.675781 -58.984375 124.5 -50.515625 L 113.734375 -37.8125 L 110.140625 -31.1875 L 102.96875 -23.734375 L 98 -16.84375 L 94.953125 -14.078125 L 87.78125 -5.25 C 86.488281 -3.40625 84.414062 -1.742188 81.5625 -0.265625 C 78.71875 1.203125 76.554688 1.9375 75.078125 1.9375 C 72.867188 1.9375 69.96875 0.460938 66.375 -2.484375 C 62.789062 -5.429688 59.25 -9.296875 55.75 -14.078125 C 52.257812 -18.859375 49.503906 -23.828125 47.484375 -28.984375 C 45.085938 -35.054688 41.957031 -40.988281 38.09375 -46.78125 C 34.226562 -52.582031 30.820312 -57.414062 27.875 -61.28125 C 24.9375 -65.144531 23.46875 -67.078125 23.46875 -67.078125 L 19.875 -72.59375 L 14.078125 -76.734375 L 12.140625 -86.40625 C 12.140625 -86.40625 12.691406 -87.644531 13.796875 -90.125 C 14.898438 -92.613281 16.554688 -95.097656 18.765625 -97.578125 C 20.972656 -100.066406 23.828125 -101.3125 27.328125 -101.3125 C 29.898438 -101.3125 33.394531 -99.285156 37.8125 -95.234375 C 42.226562 -91.179688 46.828125 -86.023438 51.609375 -79.765625 C 56.398438 -73.515625 60.546875 -66.984375 64.046875 -60.171875 C 65.703125 -57.234375 66.941406 -53.832031 67.765625 -49.96875 C 68.597656 -46.101562 69.84375 -44.171875 71.5 -44.171875 C 72.601562 -44.171875 73.75 -44.722656 74.9375 -45.828125 C 76.132812 -46.929688 76.734375 -47.484375 76.734375 -47.484375 L 82.8125 -49.40625 C 86.488281 -50.507812 90.71875 -53.453125 95.5 -58.234375 C 100.289062 -63.023438 104.34375 -68.457031 107.65625 -74.53125 L 117.3125 -92.203125 L 122.84375 -95.515625 C 123.570312 -96.429688 125.085938 -97.71875 127.390625 -99.375 C 129.691406 -101.03125 131.851562 -101.859375 133.875 -101.859375 C 137.5625 -101.859375 140.644531 -100.476562 143.125 -97.71875 C 145.613281 -94.957031 146.859375 -91.644531 146.859375 -87.78125 Z M 146.859375 -87.78125 "/></g></g></g><g fill="#eee6d9" fill-opacity="1"><g transform="translate(1049.502598, 871.534993)"><g><path d="M 131.671875 -76.46875 C 131.671875 -70.207031 129.414062 -64.679688 124.90625 -59.890625 C 120.394531 -55.109375 114.921875 -52.71875 108.484375 -52.71875 C 100.941406 -52.71875 93.03125 -53.59375 84.75 -55.34375 C 76.46875 -57.09375 69.378906 -57.96875 63.484375 -57.96875 C 55.941406 -57.96875 52.171875 -56.21875 52.171875 -52.71875 C 52.171875 -51.988281 52.539062 -51.070312 53.28125 -49.96875 C 55.664062 -46.832031 58.742188 -43.835938 62.515625 -40.984375 C 66.296875 -38.140625 69.882812 -35.75 73.28125 -33.8125 C 76.6875 -31.882812 78.851562 -30.644531 79.78125 -30.09375 L 87.234375 -28.15625 L 96.34375 -27.328125 L 101.03125 -22.90625 L 107.9375 -18.5 L 109.03125 -4.140625 L 104.625 0 L 101.578125 4.421875 C 101.578125 4.421875 100.332031 4.878906 97.84375 5.796875 C 95.363281 6.710938 93.484375 7.171875 92.203125 7.171875 C 87.597656 7.171875 82.71875 6.203125 77.5625 4.265625 C 72.414062 2.335938 68.046875 0.410156 64.453125 -1.515625 C 60.867188 -3.453125 59.078125 -4.421875 59.078125 -4.421875 L 48.03125 -11.046875 L 45 -16.28125 L 29.53125 -33.953125 C 29.53125 -33.953125 29.160156 -34.78125 28.421875 -36.4375 C 27.691406 -38.09375 26.957031 -40.070312 26.21875 -42.375 C 25.488281 -44.675781 25.125 -46.742188 25.125 -48.578125 C 25.125 -50.972656 25.441406 -53.457031 26.078125 -56.03125 C 26.722656 -58.613281 27.140625 -60.363281 27.328125 -61.28125 L 27.875 -76.46875 C 27.875 -77.75 28.195312 -79.863281 28.84375 -82.8125 C 29.488281 -85.757812 30.132812 -88.566406 30.78125 -91.234375 C 31.425781 -93.898438 31.75 -95.234375 31.75 -95.234375 C 31.75 -95.234375 33.035156 -96.613281 35.609375 -99.375 C 38.179688 -102.132812 41.304688 -105.257812 44.984375 -108.75 C 48.671875 -112.25 51.988281 -114.921875 54.9375 -116.765625 C 58.613281 -118.972656 62.015625 -120.582031 65.140625 -121.59375 C 68.273438 -122.601562 69.84375 -123.109375 69.84375 -123.109375 L 76.46875 -125.875 L 91.640625 -127.25 C 103.785156 -127.25 113.492188 -122.785156 120.765625 -113.859375 C 128.035156 -104.941406 131.671875 -92.476562 131.671875 -76.46875 Z M 106.546875 -88.890625 C 106.546875 -91.460938 105.210938 -94.40625 102.546875 -97.71875 C 99.878906 -101.03125 96.796875 -102.6875 93.296875 -102.6875 C 91.828125 -102.6875 90.171875 -102.363281 88.328125 -101.71875 C 86.492188 -101.070312 85.578125 -100.75 85.578125 -100.75 L 78.953125 -99.09375 L 67.90625 -99.375 C 65.507812 -99.375 63.617188 -98.175781 62.234375 -95.78125 C 60.859375 -93.394531 60.171875 -91.097656 60.171875 -88.890625 C 60.171875 -87.960938 60.304688 -86.945312 60.578125 -85.84375 C 60.859375 -84.738281 61.460938 -83.820312 62.390625 -83.09375 C 63.304688 -82.539062 64.363281 -82.21875 65.5625 -82.125 C 66.757812 -82.03125 68 -81.984375 69.28125 -81.984375 C 70.207031 -81.984375 71.175781 -81.984375 72.1875 -81.984375 C 73.195312 -81.984375 74.070312 -81.984375 74.8125 -81.984375 C 75.363281 -81.984375 75.914062 -81.9375 76.46875 -81.84375 C 77.019531 -81.75 77.476562 -81.703125 77.84375 -81.703125 L 86.671875 -80.609375 L 96.34375 -80.875 C 101.125 -81.0625 104.019531 -81.84375 105.03125 -83.21875 C 106.039062 -84.601562 106.546875 -86.492188 106.546875 -88.890625 Z M 106.546875 -88.890625 "/></g></g></g><g transform="matrix(1, 0, 0, 1, 495, 920)"><g clip-path="url(#bd5b28566d)"><g fill="#f0eee9" fill-opacity="1"><g transform="translate(1.599984, 49.598447)"><g><path d="M 21.984375 0.59375 C 18.722656 0.59375 16.035156 -0.015625 13.921875 -1.234375 C 11.816406 -2.453125 10.15625 -4.082031 8.9375 -6.125 C 7.71875 -8.175781 6.820312 -10.472656 6.25 -13.015625 C 5.6875 -15.554688 5.328125 -18.171875 5.171875 -20.859375 C 5.023438 -23.554688 4.953125 -26.125 4.953125 -28.5625 C 4.953125 -29.039062 4.953125 -29.800781 4.953125 -30.84375 C 4.953125 -31.882812 4.953125 -33.054688 4.953125 -34.359375 C 4.953125 -35.671875 4.960938 -36.957031 4.984375 -38.21875 C 5.003906 -39.476562 5.046875 -40.5625 5.109375 -41.46875 C 5.179688 -42.382812 5.28125 -42.953125 5.40625 -43.171875 C 5.757812 -43.910156 6.25 -44.519531 6.875 -45 C 7.507812 -45.476562 8.238281 -45.71875 9.0625 -45.71875 C 10.15625 -45.71875 11.082031 -45.335938 11.84375 -44.578125 C 12.601562 -43.816406 12.984375 -42.894531 12.984375 -41.8125 C 12.984375 -41.070312 12.945312 -40.332031 12.875 -39.59375 C 12.8125 -38.851562 12.738281 -38.113281 12.65625 -37.375 C 12.519531 -35.457031 12.441406 -33.539062 12.421875 -31.625 C 12.398438 -29.71875 12.390625 -27.804688 12.390625 -25.890625 C 12.390625 -24.546875 12.421875 -23.035156 12.484375 -21.359375 C 12.554688 -19.679688 12.742188 -18.015625 13.046875 -16.359375 C 13.347656 -14.710938 13.832031 -13.203125 14.5 -11.828125 C 15.175781 -10.460938 16.113281 -9.351562 17.3125 -8.5 C 18.507812 -7.65625 20.066406 -7.234375 21.984375 -7.234375 C 24.023438 -7.234375 25.707031 -7.734375 27.03125 -8.734375 C 28.351562 -9.734375 29.40625 -11.046875 30.1875 -12.671875 C 30.976562 -14.304688 31.546875 -16.09375 31.890625 -18.03125 C 32.234375 -19.96875 32.457031 -21.878906 32.5625 -23.765625 C 32.675781 -25.660156 32.734375 -27.347656 32.734375 -28.828125 C 32.734375 -31.003906 32.613281 -33.144531 32.375 -35.25 C 32.132812 -37.351562 32.015625 -39.472656 32.015625 -41.609375 C 32.015625 -42.691406 32.394531 -43.613281 33.15625 -44.375 C 33.925781 -45.132812 34.851562 -45.515625 35.9375 -45.515625 C 36.800781 -45.515625 37.535156 -45.273438 38.140625 -44.796875 C 38.753906 -44.328125 39.238281 -43.722656 39.59375 -42.984375 C 39.675781 -42.765625 39.757812 -42.207031 39.84375 -41.3125 C 39.9375 -40.425781 40.003906 -39.363281 40.046875 -38.125 C 40.085938 -36.882812 40.117188 -35.632812 40.140625 -34.375 C 40.160156 -33.113281 40.171875 -31.984375 40.171875 -30.984375 C 40.171875 -29.984375 40.171875 -29.265625 40.171875 -28.828125 C 40.171875 -26.390625 40.039062 -23.820312 39.78125 -21.125 C 39.519531 -18.4375 39.019531 -15.804688 38.28125 -13.234375 C 37.539062 -10.671875 36.492188 -8.34375 35.140625 -6.25 C 33.796875 -4.164062 32.046875 -2.503906 29.890625 -1.265625 C 27.742188 -0.0234375 25.109375 0.59375 21.984375 0.59375 Z M 21.984375 0.59375 "/></g></g></g><g fill="#f0eee9" fill-opacity="1"><g transform="translate(46.662663, 49.598447)"><g><path d="M 5.09375 -31.3125 C 5.09375 -32.394531 5.472656 -33.316406 6.234375 -34.078125 C 6.992188 -34.835938 7.914062 -35.21875 9 -35.21875 C 10.082031 -35.21875 11.003906 -34.835938 11.765625 -34.078125 C 12.523438 -33.316406 12.90625 -32.394531 12.90625 -31.3125 C 12.90625 -31.09375 12.90625 -30.875 12.90625 -30.65625 C 12.90625 -30.4375 12.90625 -30.21875 12.90625 -30 L 12.84375 -27.328125 C 12.84375 -27.148438 12.84375 -26.941406 12.84375 -26.703125 C 12.84375 -26.460938 12.84375 -26.234375 12.84375 -26.015625 C 14.019531 -28.546875 15.5625 -30.601562 17.46875 -32.1875 C 19.382812 -33.769531 21.800781 -34.5625 24.71875 -34.5625 C 27.113281 -34.5625 29.046875 -33.929688 30.515625 -32.671875 C 31.992188 -31.410156 33.113281 -29.8125 33.875 -27.875 C 34.632812 -25.945312 35.144531 -23.894531 35.40625 -21.71875 C 35.675781 -19.539062 35.8125 -17.539062 35.8125 -15.71875 C 35.8125 -15.320312 35.8125 -14.632812 35.8125 -13.65625 C 35.8125 -12.6875 35.796875 -11.601562 35.765625 -10.40625 C 35.742188 -9.207031 35.710938 -8.007812 35.671875 -6.8125 C 35.628906 -5.613281 35.5625 -4.59375 35.46875 -3.75 C 35.382812 -2.90625 35.300781 -2.375 35.21875 -2.15625 C 34.875 -1.414062 34.394531 -0.804688 33.78125 -0.328125 C 33.175781 0.148438 32.4375 0.390625 31.5625 0.390625 C 30.476562 0.390625 29.554688 0.0078125 28.796875 -0.75 C 28.035156 -1.507812 27.65625 -2.429688 27.65625 -3.515625 C 27.65625 -3.828125 27.664062 -4.125 27.6875 -4.40625 C 27.707031 -4.6875 27.738281 -4.976562 27.78125 -5.28125 L 27.984375 -7.046875 C 28.148438 -8.566406 28.253906 -10.109375 28.296875 -11.671875 C 28.347656 -13.234375 28.375 -14.800781 28.375 -16.375 C 28.375 -17.15625 28.335938 -18.140625 28.265625 -19.328125 C 28.203125 -20.523438 28.019531 -21.710938 27.71875 -22.890625 C 27.414062 -24.066406 26.9375 -25.046875 26.28125 -25.828125 C 25.632812 -26.609375 24.742188 -27 23.609375 -27 C 22.390625 -27 21.332031 -26.507812 20.4375 -25.53125 C 19.550781 -24.550781 18.800781 -23.253906 18.1875 -21.640625 C 17.582031 -20.035156 17.039062 -18.265625 16.5625 -16.328125 C 16.082031 -14.398438 15.632812 -12.46875 15.21875 -10.53125 C 14.8125 -8.59375 14.359375 -6.816406 13.859375 -5.203125 C 13.359375 -3.597656 12.78125 -2.304688 12.125 -1.328125 C 11.476562 -0.359375 10.675781 0.125 9.71875 0.125 C 8.84375 0.125 8.132812 -0.109375 7.59375 -0.578125 C 7.050781 -1.054688 6.585938 -1.644531 6.203125 -2.34375 C 6.066406 -2.601562 5.941406 -3.40625 5.828125 -4.75 C 5.722656 -6.101562 5.625 -7.757812 5.53125 -9.71875 C 5.445312 -11.675781 5.375 -13.773438 5.3125 -16.015625 C 5.25 -18.253906 5.207031 -20.414062 5.1875 -22.5 C 5.164062 -24.582031 5.144531 -26.414062 5.125 -28 C 5.101562 -29.59375 5.09375 -30.695312 5.09375 -31.3125 Z M 5.09375 -31.3125 "/></g></g></g><g fill="#f0eee9" fill-opacity="1"><g transform="translate(87.356022, 49.598447)"><g><path d="M 4.109375 -16.828125 C 4.109375 -17.566406 4.3125 -18.25 4.71875 -18.875 C 5.132812 -19.507812 5.628906 -20.046875 6.203125 -20.484375 C 6.203125 -21.171875 6.203125 -21.863281 6.203125 -22.5625 C 6.203125 -23.257812 6.203125 -23.957031 6.203125 -24.65625 L 6.328125 -33 C 6.328125 -33.695312 6.328125 -34.390625 6.328125 -35.078125 C 6.328125 -35.773438 6.328125 -36.472656 6.328125 -37.171875 C 6.328125 -37.390625 6.328125 -37.609375 6.328125 -37.828125 C 6.328125 -38.046875 6.328125 -38.238281 6.328125 -38.40625 L 6.125 -40.890625 C 6.125 -41.109375 6.125 -41.328125 6.125 -41.546875 C 6.125 -41.765625 6.125 -41.957031 6.125 -42.125 C 6.125 -43.039062 6.210938 -43.976562 6.390625 -44.9375 C 6.566406 -45.894531 6.9375 -46.6875 7.5 -47.3125 C 8.0625 -47.945312 8.929688 -48.265625 10.109375 -48.265625 C 11.191406 -48.265625 12.113281 -47.882812 12.875 -47.125 C 13.632812 -46.363281 14.015625 -45.4375 14.015625 -44.34375 C 14.015625 -42.820312 13.972656 -41.300781 13.890625 -39.78125 C 13.804688 -38.257812 13.765625 -36.738281 13.765625 -35.21875 C 13.765625 -34.78125 13.765625 -34.351562 13.765625 -33.9375 C 13.765625 -33.53125 13.765625 -33.128906 13.765625 -32.734375 L 13.890625 -27.65625 C 13.890625 -27.257812 13.890625 -26.851562 13.890625 -26.4375 C 13.890625 -26.03125 13.890625 -25.609375 13.890625 -25.171875 C 14.765625 -25.648438 15.816406 -26.390625 17.046875 -27.390625 C 18.285156 -28.390625 19.566406 -29.421875 20.890625 -30.484375 C 22.222656 -31.554688 23.507812 -32.472656 24.75 -33.234375 C 25.988281 -33.992188 27.019531 -34.375 27.84375 -34.375 C 28.9375 -34.375 29.863281 -33.992188 30.625 -33.234375 C 31.382812 -32.472656 31.765625 -31.546875 31.765625 -30.453125 C 31.765625 -30.023438 31.675781 -29.59375 31.5 -29.15625 C 31.320312 -28.71875 31.101562 -28.300781 30.84375 -27.90625 C 30.625 -27.601562 30.046875 -27.09375 29.109375 -26.375 C 28.179688 -25.664062 27.078125 -24.863281 25.796875 -23.96875 C 24.515625 -23.070312 23.195312 -22.175781 21.84375 -21.28125 C 20.5 -20.394531 19.28125 -19.59375 18.1875 -18.875 C 17.101562 -18.164062 16.300781 -17.632812 15.78125 -17.28125 C 16.5625 -16.800781 17.679688 -16.09375 19.140625 -15.15625 C 20.597656 -14.226562 22.128906 -13.207031 23.734375 -12.09375 C 25.347656 -10.988281 26.804688 -9.925781 28.109375 -8.90625 C 29.410156 -7.882812 30.28125 -7.066406 30.71875 -6.453125 C 30.976562 -6.066406 31.191406 -5.664062 31.359375 -5.25 C 31.535156 -4.832031 31.625 -4.382812 31.625 -3.90625 C 31.625 -2.820312 31.242188 -1.898438 30.484375 -1.140625 C 29.722656 -0.378906 28.800781 0 27.71875 0 C 26.84375 0 25.972656 -0.300781 25.109375 -0.90625 C 24.242188 -1.519531 23.425781 -2.226562 22.65625 -3.03125 C 21.894531 -3.832031 21.191406 -4.492188 20.546875 -5.015625 C 19.453125 -5.972656 18.316406 -6.851562 17.140625 -7.65625 C 15.972656 -8.46875 14.757812 -9.21875 13.5 -9.90625 C 13.5 -9.082031 13.519531 -8.101562 13.5625 -6.96875 C 13.601562 -5.84375 13.535156 -4.734375 13.359375 -3.640625 C 13.191406 -2.554688 12.820312 -1.644531 12.25 -0.90625 C 11.6875 -0.164062 10.773438 0.203125 9.515625 0.203125 C 8.429688 0.203125 7.507812 -0.175781 6.75 -0.9375 C 5.988281 -1.707031 5.609375 -2.632812 5.609375 -3.71875 C 5.609375 -5.375 5.679688 -7.015625 5.828125 -8.640625 C 5.984375 -10.273438 6.082031 -11.894531 6.125 -13.5 C 4.78125 -14.195312 4.109375 -15.304688 4.109375 -16.828125 Z M 4.109375 -16.828125 "/></g></g></g><g fill="#f0eee9" fill-opacity="1"><g transform="translate(121.723653, 49.598447)"><g><path d="M 5.09375 -31.3125 C 5.09375 -32.394531 5.472656 -33.316406 6.234375 -34.078125 C 6.992188 -34.835938 7.914062 -35.21875 9 -35.21875 C 10.082031 -35.21875 11.003906 -34.835938 11.765625 -34.078125 C 12.523438 -33.316406 12.90625 -32.394531 12.90625 -31.3125 C 12.90625 -31.09375 12.90625 -30.875 12.90625 -30.65625 C 12.90625 -30.4375 12.90625 -30.21875 12.90625 -30 L 12.84375 -27.328125 C 12.84375 -27.148438 12.84375 -26.941406 12.84375 -26.703125 C 12.84375 -26.460938 12.84375 -26.234375 12.84375 -26.015625 C 14.019531 -28.546875 15.5625 -30.601562 17.46875 -32.1875 C 19.382812 -33.769531 21.800781 -34.5625 24.71875 -34.5625 C 27.113281 -34.5625 29.046875 -33.929688 30.515625 -32.671875 C 31.992188 -31.410156 33.113281 -29.8125 33.875 -27.875 C 34.632812 -25.945312 35.144531 -23.894531 35.40625 -21.71875 C 35.675781 -19.539062 35.8125 -17.539062 35.8125 -15.71875 C 35.8125 -15.320312 35.8125 -14.632812 35.8125 -13.65625 C 35.8125 -12.6875 35.796875 -11.601562 35.765625 -10.40625 C 35.742188 -9.207031 35.710938 -8.007812 35.671875 -6.8125 C 35.628906 -5.613281 35.5625 -4.59375 35.46875 -3.75 C 35.382812 -2.90625 35.300781 -2.375 35.21875 -2.15625 C 34.875 -1.414062 34.394531 -0.804688 33.78125 -0.328125 C 33.175781 0.148438 32.4375 0.390625 31.5625 0.390625 C 30.476562 0.390625 29.554688 0.0078125 28.796875 -0.75 C 28.035156 -1.507812 27.65625 -2.429688 27.65625 -3.515625 C 27.65625 -3.828125 27.664062 -4.125 27.6875 -4.40625 C 27.707031 -4.6875 27.738281 -4.976562 27.78125 -5.28125 L 27.984375 -7.046875 C 28.148438 -8.566406 28.253906 -10.109375 28.296875 -11.671875 C 28.347656 -13.234375 28.375 -14.800781 28.375 -16.375 C 28.375 -17.15625 28.335938 -18.140625 28.265625 -19.328125 C 28.203125 -20.523438 28.019531 -21.710938 27.71875 -22.890625 C 27.414062 -24.066406 26.9375 -25.046875 26.28125 -25.828125 C 25.632812 -26.609375 24.742188 -27 23.609375 -27 C 22.390625 -27 21.332031 -26.507812 20.4375 -25.53125 C 19.550781 -24.550781 18.800781 -23.253906 18.1875 -21.640625 C 17.582031 -20.035156 17.039062 -18.265625 16.5625 -16.328125 C 16.082031 -14.398438 15.632812 -12.46875 15.21875 -10.53125 C 14.8125 -8.59375 14.359375 -6.816406 13.859375 -5.203125 C 13.359375 -3.597656 12.78125 -2.304688 12.125 -1.328125 C 11.476562 -0.359375 10.675781 0.125 9.71875 0.125 C 8.84375 0.125 8.132812 -0.109375 7.59375 -0.578125 C 7.050781 -1.054688 6.585938 -1.644531 6.203125 -2.34375 C 6.066406 -2.601562 5.941406 -3.40625 5.828125 -4.75 C 5.722656 -6.101562 5.625 -7.757812 5.53125 -9.71875 C 5.445312 -11.675781 5.375 -13.773438 5.3125 -16.015625 C 5.25 -18.253906 5.207031 -20.414062 5.1875 -22.5 C 5.164062 -24.582031 5.144531 -26.414062 5.125 -28 C 5.101562 -29.59375 5.09375 -30.695312 5.09375 -31.3125 Z M 5.09375 -31.3125 "/></g></g></g><g fill="#f0eee9" fill-opacity="1"><g transform="translate(161.503973, 49.598447)"><g><path d="M 3.265625 -15.515625 C 3.265625 -18.390625 3.785156 -21.054688 4.828125 -23.515625 C 5.867188 -25.972656 7.3125 -28.113281 9.15625 -29.9375 C 11.007812 -31.757812 13.164062 -33.179688 15.625 -34.203125 C 18.082031 -35.222656 20.742188 -35.734375 23.609375 -35.734375 C 24.785156 -35.734375 25.742188 -35.320312 26.484375 -34.5 C 29.085938 -33.675781 31.3125 -32.382812 33.15625 -30.625 C 35.007812 -28.863281 36.425781 -26.804688 37.40625 -24.453125 C 38.382812 -22.109375 38.875 -19.585938 38.875 -16.890625 C 38.875 -13.285156 38.035156 -10.1875 36.359375 -7.59375 C 34.679688 -5.007812 32.429688 -3.03125 29.609375 -1.65625 C 26.785156 -0.289062 23.632812 0.390625 20.15625 0.390625 C 17.019531 0.390625 14.171875 -0.257812 11.609375 -1.5625 C 9.046875 -2.863281 7.015625 -4.710938 5.515625 -7.109375 C 4.015625 -9.503906 3.265625 -12.304688 3.265625 -15.515625 Z M 20.34375 -27.59375 C 17.257812 -27.019531 14.878906 -25.632812 13.203125 -23.4375 C 11.535156 -21.25 10.703125 -18.609375 10.703125 -15.515625 C 10.703125 -13.691406 11.132812 -12.179688 12 -10.984375 C 12.863281 -9.796875 14.023438 -8.90625 15.484375 -8.3125 C 16.941406 -7.726562 18.5 -7.4375 20.15625 -7.4375 C 22.15625 -7.4375 24.015625 -7.757812 25.734375 -8.40625 C 27.453125 -9.0625 28.832031 -10.082031 29.875 -11.46875 C 30.914062 -12.863281 31.4375 -14.671875 31.4375 -16.890625 C 31.4375 -19.890625 30.554688 -22.410156 28.796875 -24.453125 C 27.035156 -26.492188 24.585938 -27.515625 21.453125 -27.515625 C 21.285156 -27.515625 21.113281 -27.515625 20.9375 -27.515625 C 20.757812 -27.515625 20.5625 -27.539062 20.34375 -27.59375 Z M 20.34375 -27.59375 "/></g></g></g><g fill="#f0eee9" fill-opacity="1"><g transform="translate(203.632038, 49.598447)"><g><path d="M 5.15625 -17.609375 C 5.15625 -18.085938 5.164062 -18.835938 5.1875 -19.859375 C 5.207031 -20.878906 5.226562 -22.039062 5.25 -23.34375 C 5.269531 -24.65625 5.3125 -25.925781 5.375 -27.15625 C 5.445312 -28.394531 5.523438 -29.484375 5.609375 -30.421875 C 5.691406 -31.359375 5.800781 -31.976562 5.9375 -32.28125 C 6.28125 -33.019531 6.765625 -33.628906 7.390625 -34.109375 C 8.023438 -34.585938 8.757812 -34.828125 9.59375 -34.828125 C 10.675781 -34.828125 11.597656 -34.445312 12.359375 -33.6875 C 13.117188 -32.925781 13.5 -32 13.5 -30.90625 C 13.5 -30.21875 13.441406 -29.523438 13.328125 -28.828125 C 13.222656 -28.128906 13.128906 -27.410156 13.046875 -26.671875 C 12.867188 -25.109375 12.75 -23.539062 12.6875 -21.96875 C 12.625 -20.40625 12.59375 -18.84375 12.59375 -17.28125 C 12.59375 -15.800781 12.644531 -14.3125 12.75 -12.8125 C 12.851562 -11.3125 13.082031 -9.84375 13.4375 -8.40625 C 14.34375 -9.5 15.226562 -10.675781 16.09375 -11.9375 C 16.96875 -13.195312 17.894531 -14.390625 18.875 -15.515625 C 19.851562 -16.648438 20.972656 -17.578125 22.234375 -18.296875 C 23.492188 -19.015625 24.929688 -19.375 26.546875 -19.375 C 28.328125 -19.375 29.945312 -18.835938 31.40625 -17.765625 C 32.863281 -16.703125 34.09375 -15.476562 35.09375 -14.09375 C 35.132812 -14.832031 35.15625 -15.546875 35.15625 -16.234375 C 35.15625 -16.929688 35.15625 -17.628906 35.15625 -18.328125 C 35.15625 -18.929688 35.144531 -19.941406 35.125 -21.359375 C 35.101562 -22.773438 35.078125 -24.273438 35.046875 -25.859375 C 35.023438 -27.441406 35.035156 -28.875 35.078125 -30.15625 C 35.128906 -31.445312 35.21875 -32.285156 35.34375 -32.671875 C 35.65625 -33.410156 36.132812 -34.019531 36.78125 -34.5 C 37.4375 -34.976562 38.175781 -35.21875 39 -35.21875 C 40.082031 -35.21875 41.003906 -34.835938 41.765625 -34.078125 C 42.523438 -33.316406 42.90625 -32.394531 42.90625 -31.3125 C 42.90625 -28.4375 42.851562 -25.5625 42.75 -22.6875 C 42.644531 -19.820312 42.546875 -16.957031 42.453125 -14.09375 C 42.410156 -12.476562 42.398438 -10.84375 42.421875 -9.1875 C 42.441406 -7.539062 42.28125 -5.9375 41.9375 -4.375 C 41.71875 -3.414062 41.25 -2.546875 40.53125 -1.765625 C 39.8125 -0.984375 38.910156 -0.59375 37.828125 -0.59375 C 36.742188 -0.59375 35.734375 -0.957031 34.796875 -1.6875 C 33.859375 -2.425781 33.007812 -3.335938 32.25 -4.421875 C 31.488281 -5.515625 30.769531 -6.601562 30.09375 -7.6875 C 29.425781 -8.78125 28.796875 -9.695312 28.203125 -10.4375 C 27.617188 -11.175781 27.066406 -11.546875 26.546875 -11.546875 C 25.890625 -11.546875 25.210938 -11.15625 24.515625 -10.375 C 23.828125 -9.59375 23.085938 -8.625 22.296875 -7.46875 C 21.515625 -6.3125 20.65625 -5.144531 19.71875 -3.96875 C 18.789062 -2.800781 17.769531 -1.828125 16.65625 -1.046875 C 15.550781 -0.265625 14.300781 0.125 12.90625 0.125 C 11.382812 0.125 10.132812 -0.304688 9.15625 -1.171875 C 8.1875 -2.046875 7.425781 -3.175781 6.875 -4.5625 C 6.332031 -5.957031 5.941406 -7.457031 5.703125 -9.0625 C 5.460938 -10.675781 5.3125 -12.234375 5.25 -13.734375 C 5.1875 -15.234375 5.15625 -16.523438 5.15625 -17.609375 Z M 5.15625 -17.609375 "/></g></g></g><g fill="#f0eee9" fill-opacity="1"><g transform="translate(251.629344, 49.598447)"><g><path d="M 5.09375 -31.3125 C 5.09375 -32.394531 5.472656 -33.316406 6.234375 -34.078125 C 6.992188 -34.835938 7.914062 -35.21875 9 -35.21875 C 10.082031 -35.21875 11.003906 -34.835938 11.765625 -34.078125 C 12.523438 -33.316406 12.90625 -32.394531 12.90625 -31.3125 C 12.90625 -31.09375 12.90625 -30.875 12.90625 -30.65625 C 12.90625 -30.4375 12.90625 -30.21875 12.90625 -30 L 12.84375 -27.328125 C 12.84375 -27.148438 12.84375 -26.941406 12.84375 -26.703125 C 12.84375 -26.460938 12.84375 -26.234375 12.84375 -26.015625 C 14.019531 -28.546875 15.5625 -30.601562 17.46875 -32.1875 C 19.382812 -33.769531 21.800781 -34.5625 24.71875 -34.5625 C 27.113281 -34.5625 29.046875 -33.929688 30.515625 -32.671875 C 31.992188 -31.410156 33.113281 -29.8125 33.875 -27.875 C 34.632812 -25.945312 35.144531 -23.894531 35.40625 -21.71875 C 35.675781 -19.539062 35.8125 -17.539062 35.8125 -15.71875 C 35.8125 -15.320312 35.8125 -14.632812 35.8125 -13.65625 C 35.8125 -12.6875 35.796875 -11.601562 35.765625 -10.40625 C 35.742188 -9.207031 35.710938 -8.007812 35.671875 -6.8125 C 35.628906 -5.613281 35.5625 -4.59375 35.46875 -3.75 C 35.382812 -2.90625 35.300781 -2.375 35.21875 -2.15625 C 34.875 -1.414062 34.394531 -0.804688 33.78125 -0.328125 C 33.175781 0.148438 32.4375 0.390625 31.5625 0.390625 C 30.476562 0.390625 29.554688 0.0078125 28.796875 -0.75 C 28.035156 -1.507812 27.65625 -2.429688 27.65625 -3.515625 C 27.65625 -3.828125 27.664062 -4.125 27.6875 -4.40625 C 27.707031 -4.6875 27.738281 -4.976562 27.78125 -5.28125 L 27.984375 -7.046875 C 28.148438 -8.566406 28.253906 -10.109375 28.296875 -11.671875 C 28.347656 -13.234375 28.375 -14.800781 28.375 -16.375 C 28.375 -17.15625 28.335938 -18.140625 28.265625 -19.328125 C 28.203125 -20.523438 28.019531 -21.710938 27.71875 -22.890625 C 27.414062 -24.066406 26.9375 -25.046875 26.28125 -25.828125 C 25.632812 -26.609375 24.742188 -27 23.609375 -27 C 22.390625 -27 21.332031 -26.507812 20.4375 -25.53125 C 19.550781 -24.550781 18.800781 -23.253906 18.1875 -21.640625 C 17.582031 -20.035156 17.039062 -18.265625 16.5625 -16.328125 C 16.082031 -14.398438 15.632812 -12.46875 15.21875 -10.53125 C 14.8125 -8.59375 14.359375 -6.816406 13.859375 -5.203125 C 13.359375 -3.597656 12.78125 -2.304688 12.125 -1.328125 C 11.476562 -0.359375 10.675781 0.125 9.71875 0.125 C 8.84375 0.125 8.132812 -0.109375 7.59375 -0.578125 C 7.050781 -1.054688 6.585938 -1.644531 6.203125 -2.34375 C 6.066406 -2.601562 5.941406 -3.40625 5.828125 -4.75 C 5.722656 -6.101562 5.625 -7.757812 5.53125 -9.71875 C 5.445312 -11.675781 5.375 -13.773438 5.3125 -16.015625 C 5.25 -18.253906 5.207031 -20.414062 5.1875 -22.5 C 5.164062 -24.582031 5.144531 -26.414062 5.125 -28 C 5.101562 -29.59375 5.09375 -30.695312 5.09375 -31.3125 Z M 5.09375 -31.3125 "/></g></g></g><g fill="#f0eee9" fill-opacity="1"><g transform="translate(292.322717, 49.598447)"><g/></g></g><g fill="#f0eee9" fill-opacity="1"><g transform="translate(318.408196, 49.598447)"><g><path d="M 0.984375 -40.234375 C 0.984375 -41.929688 1.828125 -43.109375 3.515625 -43.765625 C 3.648438 -44.722656 4.085938 -45.523438 4.828125 -46.171875 C 5.566406 -46.828125 6.414062 -47.15625 7.375 -47.15625 C 9.15625 -47.15625 10.328125 -46.285156 10.890625 -44.546875 C 12.328125 -44.503906 13.914062 -44.414062 15.65625 -44.28125 C 17.394531 -44.15625 19.117188 -43.894531 20.828125 -43.5 C 22.546875 -43.101562 24.125 -42.515625 25.5625 -41.734375 C 27 -40.953125 28.148438 -39.921875 29.015625 -38.640625 C 29.890625 -37.359375 30.328125 -35.757812 30.328125 -33.84375 C 30.328125 -32.363281 30.03125 -30.9375 29.4375 -29.5625 C 28.851562 -28.195312 28.128906 -26.953125 27.265625 -25.828125 C 29.429688 -25.003906 31.285156 -23.753906 32.828125 -22.078125 C 34.378906 -20.398438 35.15625 -18.34375 35.15625 -15.90625 C 35.15625 -13.644531 34.515625 -11.632812 33.234375 -9.875 C 31.953125 -8.113281 30.265625 -6.59375 28.171875 -5.3125 C 26.085938 -4.03125 23.828125 -2.972656 21.390625 -2.140625 C 18.953125 -1.316406 16.546875 -0.695312 14.171875 -0.28125 C 11.804688 0.121094 9.734375 0.328125 7.953125 0.328125 C 6.785156 0.328125 5.6875 -0.0820312 4.65625 -0.90625 C 3.632812 -1.738281 3.125 -2.765625 3.125 -3.984375 C 3.125 -4.722656 3.164062 -5.457031 3.25 -6.1875 C 3.34375 -6.925781 3.410156 -7.664062 3.453125 -8.40625 C 3.585938 -11.144531 3.65625 -13.863281 3.65625 -16.5625 C 3.65625 -19.914062 3.628906 -23.265625 3.578125 -26.609375 C 3.535156 -29.953125 3.492188 -33.28125 3.453125 -36.59375 C 2.753906 -36.894531 2.164062 -37.378906 1.6875 -38.046875 C 1.21875 -38.722656 0.984375 -39.453125 0.984375 -40.234375 Z M 13.5625 -36.984375 L 11.546875 -36.984375 C 11.503906 -32.109375 11.394531 -27.222656 11.21875 -22.328125 C 11.039062 -17.441406 10.953125 -12.539062 10.953125 -7.625 C 11.785156 -7.71875 12.894531 -7.894531 14.28125 -8.15625 C 15.675781 -8.414062 17.132812 -8.757812 18.65625 -9.1875 C 20.175781 -9.625 21.609375 -10.164062 22.953125 -10.8125 C 24.304688 -11.46875 25.414062 -12.226562 26.28125 -13.09375 C 27.15625 -13.96875 27.59375 -14.972656 27.59375 -16.109375 C 27.59375 -17.023438 27.195312 -17.6875 26.40625 -18.09375 C 25.625 -18.507812 24.644531 -18.835938 23.46875 -19.078125 C 22.300781 -19.316406 21.128906 -19.585938 19.953125 -19.890625 C 18.785156 -20.191406 17.804688 -20.65625 17.015625 -21.28125 C 16.234375 -21.914062 15.84375 -22.863281 15.84375 -24.125 C 15.84375 -25.382812 16.203125 -26.375 16.921875 -27.09375 C 17.640625 -27.8125 18.453125 -28.421875 19.359375 -28.921875 C 20.273438 -29.421875 21.09375 -29.960938 21.8125 -30.546875 C 22.53125 -31.140625 22.890625 -31.957031 22.890625 -33 C 22.890625 -33.957031 22.539062 -34.707031 21.84375 -35.25 C 21.15625 -35.789062 20.285156 -36.179688 19.234375 -36.421875 C 18.191406 -36.660156 17.148438 -36.8125 16.109375 -36.875 C 15.066406 -36.945312 14.21875 -36.984375 13.5625 -36.984375 Z M 13.5625 -36.984375 "/></g></g></g><g fill="#f0eee9" fill-opacity="1"><g transform="translate(356.493005, 49.598447)"><g><path d="M 3.265625 -15.515625 C 3.265625 -18.390625 3.785156 -21.054688 4.828125 -23.515625 C 5.867188 -25.972656 7.3125 -28.113281 9.15625 -29.9375 C 11.007812 -31.757812 13.164062 -33.179688 15.625 -34.203125 C 18.082031 -35.222656 20.742188 -35.734375 23.609375 -35.734375 C 24.785156 -35.734375 25.742188 -35.320312 26.484375 -34.5 C 29.085938 -33.675781 31.3125 -32.382812 33.15625 -30.625 C 35.007812 -28.863281 36.425781 -26.804688 37.40625 -24.453125 C 38.382812 -22.109375 38.875 -19.585938 38.875 -16.890625 C 38.875 -13.285156 38.035156 -10.1875 36.359375 -7.59375 C 34.679688 -5.007812 32.429688 -3.03125 29.609375 -1.65625 C 26.785156 -0.289062 23.632812 0.390625 20.15625 0.390625 C 17.019531 0.390625 14.171875 -0.257812 11.609375 -1.5625 C 9.046875 -2.863281 7.015625 -4.710938 5.515625 -7.109375 C 4.015625 -9.503906 3.265625 -12.304688 3.265625 -15.515625 Z M 20.34375 -27.59375 C 17.257812 -27.019531 14.878906 -25.632812 13.203125 -23.4375 C 11.535156 -21.25 10.703125 -18.609375 10.703125 -15.515625 C 10.703125 -13.691406 11.132812 -12.179688 12 -10.984375 C 12.863281 -9.796875 14.023438 -8.90625 15.484375 -8.3125 C 16.941406 -7.726562 18.5 -7.4375 20.15625 -7.4375 C 22.15625 -7.4375 24.015625 -7.757812 25.734375 -8.40625 C 27.453125 -9.0625 28.832031 -10.082031 29.875 -11.46875 C 30.914062 -12.863281 31.4375 -14.671875 31.4375 -16.890625 C 31.4375 -19.890625 30.554688 -22.410156 28.796875 -24.453125 C 27.035156 -26.492188 24.585938 -27.515625 21.453125 -27.515625 C 21.285156 -27.515625 21.113281 -27.515625 20.9375 -27.515625 C 20.757812 -27.515625 20.5625 -27.539062 20.34375 -27.59375 Z M 20.34375 -27.59375 "/></g></g></g><g fill="#f0eee9" fill-opacity="1"><g transform="translate(397.708016, 49.598447)"><g><path d="M 3.265625 -15.515625 C 3.265625 -18.390625 3.785156 -21.054688 4.828125 -23.515625 C 5.867188 -25.972656 7.3125 -28.113281 9.15625 -29.9375 C 11.007812 -31.757812 13.164062 -33.179688 15.625 -34.203125 C 18.082031 -35.222656 20.742188 -35.734375 23.609375 -35.734375 C 24.785156 -35.734375 25.742188 -35.320312 26.484375 -34.5 C 29.085938 -33.675781 31.3125 -32.382812 33.15625 -30.625 C 35.007812 -28.863281 36.425781 -26.804688 37.40625 -24.453125 C 38.382812 -22.109375 38.875 -19.585938 38.875 -16.890625 C 38.875 -13.285156 38.035156 -10.1875 36.359375 -7.59375 C 34.679688 -5.007812 32.429688 -3.03125 29.609375 -1.65625 C 26.785156 -0.289062 23.632812 0.390625 20.15625 0.390625 C 17.019531 0.390625 14.171875 -0.257812 11.609375 -1.5625 C 9.046875 -2.863281 7.015625 -4.710938 5.515625 -7.109375 C 4.015625 -9.503906 3.265625 -12.304688 3.265625 -15.515625 Z M 20.34375 -27.59375 C 17.257812 -27.019531 14.878906 -25.632812 13.203125 -23.4375 C 11.535156 -21.25 10.703125 -18.609375 10.703125 -15.515625 C 10.703125 -13.691406 11.132812 -12.179688 12 -10.984375 C 12.863281 -9.796875 14.023438 -8.90625 15.484375 -8.3125 C 16.941406 -7.726562 18.5 -7.4375 20.15625 -7.4375 C 22.15625 -7.4375 24.015625 -7.757812 25.734375 -8.40625 C 27.453125 -9.0625 28.832031 -10.082031 29.875 -11.46875 C 30.914062 -12.863281 31.4375 -14.671875 31.4375 -16.890625 C 31.4375 -19.890625 30.554688 -22.410156 28.796875 -24.453125 C 27.035156 -26.492188 24.585938 -27.515625 21.453125 -27.515625 C 21.285156 -27.515625 21.113281 -27.515625 20.9375 -27.515625 C 20.757812 -27.515625 20.5625 -27.539062 20.34375 -27.59375 Z M 20.34375 -27.59375 "/></g></g></g><g fill="#f0eee9" fill-opacity="1"><g transform="translate(439.836106, 49.598447)"><g><path d="M 4.109375 -16.828125 C 4.109375 -17.566406 4.3125 -18.25 4.71875 -18.875 C 5.132812 -19.507812 5.628906 -20.046875 6.203125 -20.484375 C 6.203125 -21.171875 6.203125 -21.863281 6.203125 -22.5625 C 6.203125 -23.257812 6.203125 -23.957031 6.203125 -24.65625 L 6.328125 -33 C 6.328125 -33.695312 6.328125 -34.390625 6.328125 -35.078125 C 6.328125 -35.773438 6.328125 -36.472656 6.328125 -37.171875 C 6.328125 -37.390625 6.328125 -37.609375 6.328125 -37.828125 C 6.328125 -38.046875 6.328125 -38.238281 6.328125 -38.40625 L 6.125 -40.890625 C 6.125 -41.109375 6.125 -41.328125 6.125 -41.546875 C 6.125 -41.765625 6.125 -41.957031 6.125 -42.125 C 6.125 -43.039062 6.210938 -43.976562 6.390625 -44.9375 C 6.566406 -45.894531 6.9375 -46.6875 7.5 -47.3125 C 8.0625 -47.945312 8.929688 -48.265625 10.109375 -48.265625 C 11.191406 -48.265625 12.113281 -47.882812 12.875 -47.125 C 13.632812 -46.363281 14.015625 -45.4375 14.015625 -44.34375 C 14.015625 -42.820312 13.972656 -41.300781 13.890625 -39.78125 C 13.804688 -38.257812 13.765625 -36.738281 13.765625 -35.21875 C 13.765625 -34.78125 13.765625 -34.351562 13.765625 -33.9375 C 13.765625 -33.53125 13.765625 -33.128906 13.765625 -32.734375 L 13.890625 -27.65625 C 13.890625 -27.257812 13.890625 -26.851562 13.890625 -26.4375 C 13.890625 -26.03125 13.890625 -25.609375 13.890625 -25.171875 C 14.765625 -25.648438 15.816406 -26.390625 17.046875 -27.390625 C 18.285156 -28.390625 19.566406 -29.421875 20.890625 -30.484375 C 22.222656 -31.554688 23.507812 -32.472656 24.75 -33.234375 C 25.988281 -33.992188 27.019531 -34.375 27.84375 -34.375 C 28.9375 -34.375 29.863281 -33.992188 30.625 -33.234375 C 31.382812 -32.472656 31.765625 -31.546875 31.765625 -30.453125 C 31.765625 -30.023438 31.675781 -29.59375 31.5 -29.15625 C 31.320312 -28.71875 31.101562 -28.300781 30.84375 -27.90625 C 30.625 -27.601562 30.046875 -27.09375 29.109375 -26.375 C 28.179688 -25.664062 27.078125 -24.863281 25.796875 -23.96875 C 24.515625 -23.070312 23.195312 -22.175781 21.84375 -21.28125 C 20.5 -20.394531 19.28125 -19.59375 18.1875 -18.875 C 17.101562 -18.164062 16.300781 -17.632812 15.78125 -17.28125 C 16.5625 -16.800781 17.679688 -16.09375 19.140625 -15.15625 C 20.597656 -14.226562 22.128906 -13.207031 23.734375 -12.09375 C 25.347656 -10.988281 26.804688 -9.925781 28.109375 -8.90625 C 29.410156 -7.882812 30.28125 -7.066406 30.71875 -6.453125 C 30.976562 -6.066406 31.191406 -5.664062 31.359375 -5.25 C 31.535156 -4.832031 31.625 -4.382812 31.625 -3.90625 C 31.625 -2.820312 31.242188 -1.898438 30.484375 -1.140625 C 29.722656 -0.378906 28.800781 0 27.71875 0 C 26.84375 0 25.972656 -0.300781 25.109375 -0.90625 C 24.242188 -1.519531 23.425781 -2.226562 22.65625 -3.03125 C 21.894531 -3.832031 21.191406 -4.492188 20.546875 -5.015625 C 19.453125 -5.972656 18.316406 -6.851562 17.140625 -7.65625 C 15.972656 -8.46875 14.757812 -9.21875 13.5 -9.90625 C 13.5 -9.082031 13.519531 -8.101562 13.5625 -6.96875 C 13.601562 -5.84375 13.535156 -4.734375 13.359375 -3.640625 C 13.191406 -2.554688 12.820312 -1.644531 12.25 -0.90625 C 11.6875 -0.164062 10.773438 0.203125 9.515625 0.203125 C 8.429688 0.203125 7.507812 -0.175781 6.75 -0.9375 C 5.988281 -1.707031 5.609375 -2.632812 5.609375 -3.71875 C 5.609375 -5.375 5.679688 -7.015625 5.828125 -8.640625 C 5.984375 -10.273438 6.082031 -11.894531 6.125 -13.5 C 4.78125 -14.195312 4.109375 -15.304688 4.109375 -16.828125 Z M 4.109375 -16.828125 "/></g></g></g><g fill="#f0eee9" fill-opacity="1"><g transform="translate(473.747224, 49.598447)"><g><path d="M 17.9375 -35.34375 C 18.894531 -35.34375 20.066406 -35.222656 21.453125 -34.984375 C 22.847656 -34.742188 24.238281 -34.375 25.625 -33.875 C 27.019531 -33.375 28.179688 -32.703125 29.109375 -31.859375 C 30.046875 -31.015625 30.515625 -29.960938 30.515625 -28.703125 C 30.515625 -27.609375 30.132812 -26.679688 29.375 -25.921875 C 28.613281 -25.160156 27.691406 -24.78125 26.609375 -24.78125 C 25.953125 -24.78125 25.164062 -25.007812 24.25 -25.46875 C 23.34375 -25.925781 22.300781 -26.378906 21.125 -26.828125 C 19.957031 -27.285156 18.632812 -27.515625 17.15625 -27.515625 C 16.675781 -27.515625 16.054688 -27.460938 15.296875 -27.359375 C 14.535156 -27.253906 13.859375 -27.046875 13.265625 -26.734375 C 12.679688 -26.429688 12.390625 -25.929688 12.390625 -25.234375 C 12.390625 -24.585938 12.832031 -24.035156 13.71875 -23.578125 C 14.613281 -23.117188 15.753906 -22.671875 17.140625 -22.234375 C 18.535156 -21.804688 20.023438 -21.304688 21.609375 -20.734375 C 23.203125 -20.171875 24.691406 -19.453125 26.078125 -18.578125 C 27.472656 -17.710938 28.613281 -16.59375 29.5 -15.21875 C 30.394531 -13.851562 30.84375 -12.148438 30.84375 -10.109375 C 30.84375 -8.285156 30.421875 -6.71875 29.578125 -5.40625 C 28.734375 -4.101562 27.613281 -3.023438 26.21875 -2.171875 C 24.820312 -1.328125 23.320312 -0.695312 21.71875 -0.28125 C 20.113281 0.121094 18.523438 0.328125 16.953125 0.328125 C 15.867188 0.328125 14.566406 0.175781 13.046875 -0.125 C 11.523438 -0.4375 10.015625 -0.90625 8.515625 -1.53125 C 7.015625 -2.164062 5.765625 -2.984375 4.765625 -3.984375 C 3.765625 -4.984375 3.265625 -6.15625 3.265625 -7.5 C 3.265625 -8.582031 3.644531 -9.503906 4.40625 -10.265625 C 5.164062 -11.023438 6.085938 -11.40625 7.171875 -11.40625 C 7.785156 -11.40625 8.394531 -11.207031 9 -10.8125 C 9.601562 -10.425781 10.265625 -9.972656 10.984375 -9.453125 C 11.703125 -8.929688 12.539062 -8.472656 13.5 -8.078125 C 14.457031 -7.691406 15.609375 -7.5 16.953125 -7.5 C 17.523438 -7.5 18.285156 -7.550781 19.234375 -7.65625 C 20.191406 -7.769531 21.0625 -8.019531 21.84375 -8.40625 C 22.625 -8.800781 23.015625 -9.390625 23.015625 -10.171875 C 23.015625 -10.992188 22.566406 -11.664062 21.671875 -12.1875 C 20.785156 -12.71875 19.644531 -13.207031 18.25 -13.65625 C 16.863281 -14.113281 15.375 -14.601562 13.78125 -15.125 C 12.195312 -15.644531 10.707031 -16.316406 9.3125 -17.140625 C 7.925781 -17.972656 6.785156 -19.03125 5.890625 -20.3125 C 5.003906 -21.59375 4.5625 -23.210938 4.5625 -25.171875 C 4.5625 -26.953125 4.960938 -28.472656 5.765625 -29.734375 C 6.578125 -30.992188 7.644531 -32.046875 8.96875 -32.890625 C 10.289062 -33.742188 11.734375 -34.363281 13.296875 -34.75 C 14.867188 -35.144531 16.414062 -35.34375 17.9375 -35.34375 Z M 17.9375 -35.34375 "/></g></g></g></g></g><g clip-path="url(#f9a243d9d4)"><g clip-path="url(#a42b0581ba)"><g transform="matrix(1, 0, 0, 1, 538, 468)"><g clip-path="url(#7b6b790804)"><g clip-path="url(#2c514f4408)"><g clip-path="url(#fcd8b82da0)"><path fill="#f0eee9" d="M 0.289062 0.941406 L 64.414062 0.941406 L 64.414062 65.070312 L 0.289062 65.070312 Z M 0.289062 0.941406 " fill-opacity="1" fill-rule="nonzero"/></g></g></g></g></g></g></svg>