<svg xmlns="http://www.w3.org/2000/svg" xmlns:xlink="http://www.w3.org/1999/xlink" width="2000" zoomAndPan="magnify" viewBox="0 0 1500 1499.999933" height="2000" preserveAspectRatio="xMidYMid meet" version="1.0"><defs><clipPath id="cc0f868eed"><path d="M 442 894.347656 L 1061.5 894.347656 L 1061.5 1077.703125 L 442 1077.703125 Z M 442 894.347656 " clip-rule="nonzero"/></clipPath><clipPath id="8ee7444f16"><path d="M 329.421875 700 L 1170.921875 700 L 1170.921875 906 L 329.421875 906 Z M 329.421875 700 " clip-rule="nonzero"/></clipPath><clipPath id="a5f9060bfc"><path d="M 441.765625 426 L 802 426 L 802 500 L 441.765625 500 Z M 441.765625 426 " clip-rule="nonzero"/></clipPath><clipPath id="6a775c0e9a"><path d="M 988 567 L 1058.265625 567 L 1058.265625 608 L 988 608 Z M 988 567 " clip-rule="nonzero"/></clipPath><clipPath id="db622b52c9"><path d="M 774 702 L 848 702 L 848 721.464844 L 774 721.464844 Z M 774 702 " clip-rule="nonzero"/></clipPath><clipPath id="f608127312"><path d="M 772 700 L 850 700 L 850 721.464844 L 772 721.464844 Z M 772 700 " clip-rule="nonzero"/></clipPath></defs><g clip-path="url(#cc0f868eed)"><path fill="#f65b0b" d="M 755.128906 933.46875 L 755.089844 933.414062 C 755.089844 933.414062 634.875 838.519531 442 945.324219 C 519.339844 1026.867188 628.699219 1077.738281 749.960938 1077.738281 C 873.035156 1077.738281 983.851562 1025.339844 1061.371094 941.648438 C 872.5 840.8125 755.128906 933.46875 755.128906 933.46875 " fill-opacity="1" fill-rule="nonzero"/></g><g clip-path="url(#8ee7444f16)"><path fill="#f65b0b" d="M 898.828125 806.5625 C 898.828125 806.5625 1041.914062 794.273438 1134.757812 832.519531 C 1143.921875 812.886719 1151.621094 792.4375 1157.722656 771.304688 C 1126.488281 759.507812 1069.632812 747.886719 967.441406 749.316406 C 967.441406 749.316406 1074.84375 725.351562 1163.054688 750.988281 C 1166.199219 737.644531 1168.714844 724.0625 1170.570312 710.273438 C 1101.167969 697.871094 909.742188 678.339844 751.527344 798.878906 C 590.960938 676.496094 396.160156 698.425781 329.421875 710.765625 C 331.472656 725.914062 334.332031 740.796875 337.933594 755.390625 C 422.554688 736.695312 517.347656 757.84375 517.347656 757.84375 C 430.675781 756.632812 376.621094 764.8125 343.140625 774.519531 C 349.351562 795.398438 357.128906 815.601562 366.332031 834.996094 C 458.695312 804.164062 585.960938 815.089844 585.960938 815.089844 C 468.882812 818.75 404.742188 833.722656 371.550781 845.617188 C 382.230469 866.582031 394.589844 886.546875 408.472656 905.320312 C 618.75 770.792969 751.476562 875.5625 751.476562 875.5625 L 751.515625 875.617188 C 751.515625 875.617188 883.347656 771.539062 1092.402344 904.023438 C 1106.332031 885.03125 1118.71875 864.835938 1129.378906 843.628906 C 1103.207031 831.511719 1038.910156 810.9375 898.828125 806.5625 " fill-opacity="1" fill-rule="nonzero"/></g><path fill="#ffffff" d="M 538.039062 462.683594 C 505.335938 467.835938 469.800781 475.121094 443.601562 496.871094 C 480.960938 476.417969 517.964844 468.15625 560.757812 472.390625 C 587.230469 475.011719 610.855469 490.539062 637.738281 487.164062 C 664.460938 483.808594 677.5625 462.5 700.101562 450.441406 C 731.675781 433.554688 765.28125 438.117188 799.484375 431.238281 C 778.882812 428.507812 756.449219 429.121094 735.753906 429.339844 C 708.125 429.625 684.484375 447.316406 660.035156 457.828125 C 619.867188 475.101562 578.75 442.277344 538.039062 462.683594 " fill-opacity="1" fill-rule="evenodd"/><g clip-path="url(#a5f9060bfc)"><path stroke-linecap="square" transform="matrix(1.483335, 0, 0, 1.483335, 442.875259, 342.715702)" fill="none" stroke-linejoin="miter" d="M 64.155306 80.877146 C 42.553327 84.582374 17.498929 88.748451 0.489642 103.924875 C 20.084952 92.730189 39.585458 86.994591 62.161804 86.994591 C 73.303822 86.994591 84.042926 87.379071 94.855766 90.339039 C 104.270258 92.914528 113.99286 98.18401 123.93667 97.912768 C 147.168739 97.283379 157.470694 80.748108 176.602521 70.775331 C 196.160963 60.578712 219.105988 63.301673 240.270819 59.678081 C 226.416374 58.005857 211.313686 58.253399 197.446074 58.398237 C 179.799498 58.579943 164.97332 69.416484 149.420316 76.213352 C 120.968801 88.645748 92.45935 66.880496 64.155306 80.877146 " stroke="#000000" stroke-width="0.126" stroke-opacity="1" stroke-miterlimit="10"/></g><path fill="#ffffff" d="M 571.902344 543.9375 C 543.359375 550.257812 513.46875 549.082031 485.667969 558.917969 C 515.886719 543.523438 553.554688 544.800781 586.101562 550.480469 C 622.828125 556.882812 669.046875 561.273438 698.105469 587.519531 C 701.847656 590.898438 704.511719 595.09375 707.988281 598.597656 C 714.570312 605.230469 707.703125 605.949219 718.296875 605.773438 C 730.566406 605.574219 744.507812 591.054688 756.789062 587.414062 C 800.511719 574.441406 839.050781 571.164062 884.878906 571.164062 C 853.558594 566.554688 820.914062 564.503906 789.285156 566.625 C 767.445312 568.085938 730.183594 584.636719 709.042969 576.859375 C 700.394531 573.675781 692.71875 561.738281 684.644531 556.386719 C 674.363281 549.570312 662.835938 544.734375 650.78125 542.140625 C 624.933594 536.585938 597.628906 538.140625 571.902344 543.9375 " fill-opacity="1" fill-rule="evenodd"/><path stroke-linecap="square" transform="matrix(1.483335, 0, 0, 1.483335, 442.875259, 342.715702)" fill="none" stroke-linejoin="miter" d="M 86.984461 135.655004 C 67.663028 140.021221 47.872844 139.707844 28.848988 145.754186 C 49.934816 135.154653 75.484298 136.563535 98.187048 140.208194 C 122.756896 144.147797 148.964734 148.482413 169.652915 163.184821 C 177.471551 168.741346 178.387983 180.215175 187.662903 176.559982 C 199.020862 172.083161 207.890235 166.258027 219.993452 163.255923 C 247.383698 156.459055 269.488661 154.007337 297.979678 154.007337 C 278.292198 151.468716 258.717956 150.273142 238.851403 150.736624 C 219.390398 151.189573 200.71942 156.917271 181.290016 157.925872 C 176.054769 158.197115 170.848489 149.886028 166.958922 146.894458 C 159.19822 140.927119 150.476319 137.124454 141.04076 134.709604 C 123.457387 130.211716 104.549401 131.947142 86.984461 135.655004 " stroke="#000000" stroke-width="0.126" stroke-opacity="1" stroke-miterlimit="10"/><path fill="#ffffff" d="M 750.472656 546.675781 C 764.855469 537.457031 780.570312 525.339844 798.640625 529.789062 C 816.585938 534.207031 823.921875 536.945312 843.230469 529.582031 C 876.933594 516.722656 930.605469 502.242188 959.128906 536.125 C 928.738281 522.277344 879.335938 517.617188 849.964844 536.019531 C 828.261719 549.609375 822.292969 548.285156 798.015625 541.1875 C 779.703125 535.835938 767.660156 539.546875 750.472656 546.675781 " fill-opacity="1" fill-rule="evenodd"/><path stroke-linecap="square" transform="matrix(1.483335, 0, 0, 1.483335, 442.875259, 342.715702)" fill="none" stroke-linejoin="miter" d="M 207.368817 137.501034 C 215.672003 132.202584 229.992564 120.723488 240.621064 126.545989 C 251.017823 132.236819 260.492884 130.119546 271.408427 125.310913 C 292.765498 115.904322 330.173289 109.168023 348.033172 130.388155 C 326.831474 121.389745 292.984072 117.88729 272.809409 131.38359 C 261.232876 139.131124 255.096997 139.955385 241.189884 134.369893 C 228.583682 129.311085 219.285061 132.681868 207.368817 137.501034 " stroke="#000000" stroke-width="0.126" stroke-opacity="1" stroke-miterlimit="10"/><path fill="#ffffff" d="M 492.1875 609.566406 C 509.179688 601.367188 528.261719 596.136719 547.296875 598.0625 C 563.125 599.667969 568.722656 611.246094 586.207031 606.402344 C 608.917969 600.109375 620.714844 593.90625 646.152344 598.167969 C 666.390625 601.5625 688.902344 610.476562 702.941406 626.027344 C 682.96875 614.417969 660.292969 609.085938 637.421875 607.246094 C 618.078125 605.6875 606.765625 612.179688 588.941406 616.742188 C 555.949219 625.1875 525.984375 600.574219 492.1875 609.566406 " fill-opacity="1" fill-rule="evenodd"/><path stroke-linecap="square" transform="matrix(1.483335, 0, 0, 1.483335, 442.875259, 342.715702)" fill="none" stroke-linejoin="miter" d="M 33.244173 179.899164 C 43.714668 174.724486 60.026097 168.891451 71.813304 172.430773 C 83.237098 175.862125 87.168801 180.812962 99.748668 176.486246 C 125.192813 167.727477 155.198049 170.194996 175.32531 190.999047 C 163.32743 184.273282 150.131341 180.288911 136.471769 178.761525 C 121.392782 177.0735 112.281134 181.105273 98.329253 184.739398 C 76.176888 190.50923 56.04436 173.844922 33.244173 179.899164 " stroke="#000000" stroke-width="0.126" stroke-opacity="1" stroke-miterlimit="10"/><path fill="#ffffff" d="M 922.109375 447.699219 C 900.417969 434.976562 881.046875 430.34375 856.90625 437.144531 C 867.0625 437.867188 878.050781 437.714844 887.929688 440.417969 C 897.023438 442.90625 903.074219 451.550781 911.386719 453.820312 C 923.03125 456.996094 924.578125 450.238281 933.679688 445.164062 C 947.835938 437.269531 955.09375 432.820312 972.589844 429.546875 C 952.96875 421.976562 934.632812 432.792969 922.109375 447.699219 " fill-opacity="1" fill-rule="evenodd"/><path stroke-linecap="square" transform="matrix(1.483335, 0, 0, 1.483335, 442.875259, 342.715702)" fill="none" stroke-linejoin="miter" d="M 322.939273 70.775331 C 308.918922 62.46161 294.882771 58.321868 279.121727 63.659819 C 287.793593 64.370843 297.597831 63.873126 305.637675 67.786394 C 310.496343 70.151209 314.304274 76.202818 320.242646 75.755136 C 324.961742 75.39699 329.996849 69.800964 333.854816 67.07537 C 341.449611 61.713718 347.703994 60.296936 357.110585 58.537808 C 343.932931 53.236725 331.479467 60.957925 322.939273 70.775331 " stroke="#000000" stroke-width="0.126" stroke-opacity="1" stroke-miterlimit="10"/><path fill="#ffffff" d="M 851.015625 614.214844 C 823.253906 614.210938 798.292969 592.964844 770.457031 615.902344 C 804.765625 605.554688 828.265625 607.816406 858.800781 627.722656 C 867.441406 620.683594 855.207031 618.433594 860.269531 611.894531 C 868.507812 601.257812 910.007812 609.148438 919.796875 609.148438 C 909.734375 603.121094 897.582031 599.527344 885.828125 601.339844 C 873.203125 603.289062 864.222656 614.375 851.015625 614.214844 " fill-opacity="1" fill-rule="evenodd"/><path stroke-linecap="square" transform="matrix(1.483335, 0, 0, 1.483335, 442.875259, 342.715702)" fill="none" stroke-linejoin="miter" d="M 275.150523 183.032939 C 256.724454 182.637925 238.86457 169.331233 220.841415 184.170578 C 244.473764 177.397411 259.197239 179.159172 280.398937 192.13932 C 286.095034 187.530828 276.4172 183.117209 283.303604 180.044003 C 293.147344 175.654084 310.909791 179.617388 321.377652 179.617388 C 314.628186 175.538214 306.525139 173.133897 298.616966 174.353173 C 290.139974 175.661985 284.006729 182.996071 275.150523 183.032939 " stroke="#000000" stroke-width="0.126" stroke-opacity="1" stroke-miterlimit="10"/><path fill="#ffffff" d="M 955.132812 486.742188 C 930.828125 476.730469 918.652344 475.84375 892.660156 480.832031 C 911.964844 480.105469 929.5625 488.320312 948.613281 489.277344 C 962.011719 489.949219 973.601562 484.546875 986.683594 483.578125 C 975.722656 480.480469 962.441406 474.914062 955.132812 486.742188 " fill-opacity="1" fill-rule="evenodd"/><path stroke-linecap="square" transform="matrix(1.483335, 0, 0, 1.483335, 442.875259, 342.715702)" fill="none" stroke-linejoin="miter" d="M 345.341812 97.096406 C 329.949448 90.576048 319.563223 89.080263 303.225459 93.112035 C 315.765825 92.57745 327.200153 97.709994 339.527212 98.663293 C 349.220846 99.411186 357.155354 95.806028 366.61198 94.963332 C 359.409565 92.772323 350.118844 89.10923 345.341812 97.096406 " stroke="#000000" stroke-width="0.126" stroke-opacity="1" stroke-miterlimit="10"/><path fill="#ffffff" d="M 823.042969 466.480469 C 827.621094 466.488281 830.554688 469.195312 834.609375 469.859375 C 838.789062 470.539062 837.96875 475.285156 842.796875 472.335938 C 847.015625 469.761719 851.203125 467.164062 855.539062 464.792969 C 865.203125 459.507812 875.347656 458.855469 885.929688 456.984375 C 876.90625 460.023438 861.0625 462.667969 855.539062 471.546875 C 850.492188 479.660156 846.726562 480.296875 837.34375 478.722656 C 811.125 474.328125 805.5 474.25 781.1875 483.789062 C 792.019531 471.847656 806.992188 466.046875 823.042969 466.480469 " fill-opacity="1" fill-rule="evenodd"/><path stroke-linecap="square" transform="matrix(1.483335, 0, 0, 1.483335, 442.875259, 342.715702)" fill="none" stroke-linejoin="miter" d="M 256.292572 83.436835 C 266.868404 83.69491 265.161945 89.435775 275.858914 83.579039 C 283.393141 79.455097 290.427017 78.604501 298.688069 77.03498 C 292.070274 79.310259 285.220737 81.07202 279.545708 85.288132 C 276.22496 87.75565 276.359265 90.881525 272.029915 92.258806 C 265.583293 94.310243 256.592782 88.298136 250.051357 87.990025 C 241.656 87.597645 235.496421 91.779522 228.072798 95.102904 C 235.140909 86.899787 245.661438 83.273562 256.292572 83.436835 " stroke="#000000" stroke-width="0.126" stroke-opacity="1" stroke-miterlimit="10"/><path fill="#ffffff" d="M 757 497.507812 C 737 495.960938 720.410156 484.339844 700.628906 498.5625 C 725.585938 490.949219 740.507812 493.523438 762.464844 506.792969 C 763.0625 505.175781 762.949219 496.457031 762.675781 496.664062 C 772.519531 489.335938 793.105469 493.917969 804.953125 493.917969 C 785.308594 481.054688 775.820312 496.304688 757 497.507812 " fill-opacity="1" fill-rule="evenodd"/><path stroke-linecap="square" transform="matrix(1.483335, 0, 0, 1.483335, 442.875259, 342.715702)" fill="none" stroke-linejoin="miter" d="M 211.769268 104.211918 C 198.222934 103.761603 187.389027 95.36888 173.766323 105.065148 C 181.658696 102.508093 189.709074 100.419787 198.01226 102.218416 C 204.545786 103.635198 212.29332 111.274762 217.01505 108.62027 C 218.471333 107.801276 212.656732 102.42909 219.990819 101.507392 C 227.719919 100.535658 236.323316 101.791801 244.097184 101.791801 C 230.282241 93.591318 224.520309 103.456126 211.769268 104.211918 " stroke="#000000" stroke-width="0.126" stroke-opacity="1" stroke-miterlimit="10"/><path fill="#ffffff" d="M 654.355469 520.933594 C 639.769531 518.585938 629.628906 513.285156 614.8125 521.566406 C 620.8125 519.5625 627.179688 517.976562 633.53125 517.976562 C 640.828125 517.976562 653.125 528.363281 658.140625 527.472656 C 662.902344 526.628906 656.515625 520.78125 658.5625 520.089844 C 667.84375 516.945312 677.722656 518.648438 688.007812 518.402344 C 674.824219 510.082031 667.074219 518.703125 654.355469 520.933594 " fill-opacity="1" fill-rule="evenodd"/><path stroke-linecap="square" transform="matrix(1.483335, 0, 0, 1.483335, 442.875259, 342.715702)" fill="none" stroke-linejoin="miter" d="M 142.57078 120.146768 C 133.272159 118.250703 124.971606 115.08006 115.912626 120.573383 C 120.926666 118.935393 126.448957 117.576546 131.723705 118.508778 C 136.598174 119.372542 142.412774 123.981034 145.830959 123.56232 C 146.584118 123.47015 144.137667 119.356741 147.532151 118.298105 C 152.490889 116.749651 160.119919 118.56408 165.25773 118.440309 C 156.425225 112.76528 151.166277 118.614115 142.57078 120.146768 " stroke="#000000" stroke-width="0.126" stroke-opacity="1" stroke-miterlimit="10"/><path fill="#ffffff" d="M 741.851562 524.941406 C 725.457031 522.726562 714.53125 510.496094 698.3125 526.207031 C 718.652344 517.035156 730.09375 520.355469 745.847656 535.914062 C 746.554688 533.921875 746.164062 523.71875 746.480469 523.464844 C 754.679688 516.8125 768.246094 521.0625 778.660156 520.71875 C 763.847656 506.242188 756.175781 522.304688 741.851562 524.941406 " fill-opacity="1" fill-rule="evenodd"/><path stroke-linecap="square" transform="matrix(1.483335, 0, 0, 1.483335, 442.875259, 342.715702)" fill="none" stroke-linejoin="miter" d="M 201.417278 122.848662 C 190.609705 120.689254 182.66203 113.331466 172.204703 123.701891 C 185.514029 116.912923 194.009455 120.360076 204.250842 130.106379 C 205.111972 127.314949 203.363378 121.660987 206.236444 120.217871 C 211.469058 117.589713 220.828248 120.18627 226.371606 120.004563 C 216.290858 109.881681 211.250484 121.25544 201.417278 122.848662 " stroke="#000000" stroke-width="0.126" stroke-opacity="1" stroke-miterlimit="10"/><path fill="#ffffff" d="M 975.742188 644.605469 C 956.710938 633.679688 938.441406 628.507812 917.269531 635.320312 C 927.121094 636.214844 937.582031 635.910156 947.140625 638.800781 C 954.421875 641.003906 960.320312 649.121094 967.332031 650.304688 C 976.238281 651.808594 980.945312 646.488281 987.941406 641.441406 C 999.0625 633.421875 1007.058594 631.394531 1021.175781 628.777344 C 1003.332031 622.261719 987.449219 631.355469 975.742188 644.605469 " fill-opacity="1" fill-rule="evenodd"/><path stroke-linecap="square" transform="matrix(1.483335, 0, 0, 1.483335, 442.875259, 342.715702)" fill="none" stroke-linejoin="miter" d="M 359.235759 203.52098 C 346.763862 196.437068 333.757379 192.24729 319.816031 197.26133 C 327.173819 197.948654 335.132027 197.608942 342.079 200.389838 C 346.935034 202.333305 351.032642 208.17424 356.683971 207.78976 C 360.981719 207.49745 364.552642 203.007462 368.099865 200.74535 C 375.57879 195.973586 380.858805 194.419865 389.865116 192.847711 C 378.027874 188.162849 366.999093 194.749043 359.235759 203.52098 " stroke="#000000" stroke-width="0.126" stroke-opacity="1" stroke-miterlimit="10"/><path fill="#ffffff" d="M 807.6875 584.886719 C 841.082031 585.398438 873.761719 591.320312 903.28125 607.46875 C 913.859375 613.253906 931.28125 597.832031 942.929688 593.328125 C 962.304688 585.828125 987.121094 576.703125 1007.925781 576.023438 C 985.738281 586.441406 961.308594 591.273438 939.355469 602.296875 C 929.90625 607.042969 920.585938 618.054688 909.484375 616.332031 C 897.605469 614.484375 887.269531 601.710938 874.359375 598.183594 C 852.507812 592.207031 830.527344 585.371094 807.6875 584.886719 " fill-opacity="1" fill-rule="evenodd"/><path stroke-linecap="square" transform="matrix(1.483335, 0, 0, 1.483335, 442.875259, 342.715702)" fill="none" stroke-linejoin="miter" d="M 245.940581 163.255923 C 257.996397 163.85371 269.886308 164.62267 281.673515 167.382499 C 287.101002 168.651809 292.357317 170.353001 297.555696 172.362304 C 301.91928 174.045062 310.230367 180.783995 314.428045 180.755027 C 317.44595 180.736593 325.211918 174.213601 328.46683 172.715183 C 333.770546 170.276632 339.155899 168.206761 344.70189 166.387064 C 355.994014 162.679203 369.066331 157.604595 380.932541 157.280683 C 366.051061 163.540333 350.38482 167.745911 335.698213 174.495378 C 328.35886 177.868794 322.212447 185.87177 313.648552 184.312783 C 305.895751 182.901268 297.663667 174.332105 289.189308 171.793484 C 275.158423 167.593173 260.656156 163.716772 245.940581 163.255923 " stroke="#000000" stroke-width="0.126" stroke-opacity="1" stroke-miterlimit="10"/><path fill="#ffffff" d="M 901.078125 568.835938 C 916.414062 558.964844 925.421875 560.800781 942.089844 562.1875 C 954.492188 563.21875 964.617188 553.898438 976.796875 553.007812 C 964.277344 555.765625 956.289062 566.925781 942.71875 565.882812 C 925.417969 564.546875 919.347656 559.675781 901.078125 568.835938 " fill-opacity="1" fill-rule="evenodd"/><path stroke-linecap="square" transform="matrix(1.483335, 0, 0, 1.483335, 442.875259, 342.715702)" fill="none" stroke-linejoin="miter" d="M 308.900488 152.44045 C 318.71526 145.762086 323.695065 147.392175 334.281431 147.745054 C 343.738057 148.061065 350.766666 142.494006 359.946783 141.769815 C 352.009643 143.615845 344.954699 152.630056 336.19593 150.236274 C 325.27512 147.247337 320.024072 146.507345 308.900488 152.44045 " stroke="#000000" stroke-width="0.126" stroke-opacity="1" stroke-miterlimit="10"/><path fill="#ffffff" d="M 990.894531 605.355469 C 997.800781 589.871094 1010.929688 595.460938 1022.019531 588.046875 C 1027.648438 584.289062 1026.824219 576.949219 1034.328125 574.4375 C 1041.789062 571.941406 1049.265625 570.851562 1057.148438 570.953125 C 1040.234375 569.636719 1039.007812 575.027344 1030.011719 585.941406 C 1023.722656 593.574219 1025.996094 591.183594 1016.550781 594.800781 C 1007.84375 598.140625 999.382812 601.199219 990.894531 605.355469 " fill-opacity="1" fill-rule="evenodd"/><g clip-path="url(#6a775c0e9a)"><path stroke-linecap="square" transform="matrix(1.483335, 0, 0, 1.483335, 442.875259, 342.715702)" fill="none" stroke-linejoin="miter" d="M 369.300706 177.060333 C 374.886199 165.831412 384.830009 171.703948 390.994855 164.751708 C 398.060332 156.7856 401.697091 153.675526 414.105786 153.867766 C 403.266612 152.543153 401.9578 157.133212 395.814021 163.972214 C 391.160761 169.149526 392.940956 168.462203 385.251357 170.300333 C 379.707999 171.627579 374.414816 174.624415 369.300706 177.060333 " stroke="#000000" stroke-width="0.126" stroke-opacity="1" stroke-miterlimit="10"/></g><path fill="#ffffff" d="M 886.773438 660.855469 C 890.820312 661.054688 894.476562 662.183594 897.921875 664.339844 C 904.984375 668.753906 909.144531 662.921875 916.007812 659.484375 C 924.816406 655.074219 933.578125 654.210938 943.144531 652.625 C 927.175781 658.4375 914.1875 672.941406 898.550781 671.410156 C 876.894531 669.285156 869.859375 665.621094 849.332031 676.261719 C 857.433594 665.402344 873.273438 660.59375 886.773438 660.855469 " fill-opacity="1" fill-rule="evenodd"/><path stroke-linecap="square" transform="matrix(1.483335, 0, 0, 1.483335, 442.875259, 342.715702)" fill="none" stroke-linejoin="miter" d="M 299.256888 214.476024 C 308.460706 214.871038 307.460005 219.326792 316.840262 214.618229 C 323.650297 211.200045 329.72034 209.949168 337.259834 208.9274 C 326.541797 212.838035 316.679623 223.843114 305.800948 221.259725 C 292.557457 218.112783 286.292541 218.989714 273.873312 224.720045 C 280.406838 217.520263 289.692292 214.425989 299.256888 214.476024 " stroke="#000000" stroke-width="0.126" stroke-opacity="1" stroke-miterlimit="10"/><path fill="#ffffff" d="M 827.460938 687.867188 C 809.402344 687.007812 794.78125 676.476562 776.769531 688.925781 C 798.136719 682.175781 813.265625 684.136719 832.296875 696.101562 C 833.488281 678.695312 851.894531 684.703125 870.578125 684.703125 C 853.054688 674.683594 844.21875 686.847656 827.460938 687.867188 " fill-opacity="1" fill-rule="evenodd"/><path stroke-linecap="square" transform="matrix(1.483335, 0, 0, 1.483335, 442.875259, 342.715702)" fill="none" stroke-linejoin="miter" d="M 259.12877 232.686153 C 247.030819 231.819756 237.121244 225.265163 225.097029 233.399811 C 239.401789 228.764984 249.95392 230.226535 262.531154 238.237411 C 263.052572 226.207929 276.277629 230.553079 288.338712 230.553079 C 276.301329 223.658775 270.539397 231.598549 259.12877 232.686153 " stroke="#000000" stroke-width="0.126" stroke-opacity="1" stroke-miterlimit="10"/><path fill="#ffffff" d="M 735.125 708.339844 C 722.054688 706.039062 712.710938 702.257812 699.578125 708.976562 C 705.808594 707.039062 712.574219 705.304688 719.140625 706.023438 C 725.835938 706.75 734.207031 713.660156 739.332031 713.195312 C 742.871094 712.875 736.84375 708.167969 738.910156 707.710938 C 747.53125 705.808594 755.925781 706.566406 765.410156 706.234375 C 753.332031 699.066406 746.589844 706.347656 735.125 708.339844 " fill-opacity="1" fill-rule="evenodd"/><path stroke-linecap="square" transform="matrix(1.483335, 0, 0, 1.483335, 442.875259, 342.715702)" fill="none" stroke-linejoin="miter" d="M 197.022093 246.487929 C 188.479265 244.799904 181.471723 242.490391 173.057932 246.917178 C 177.15554 245.555697 181.895704 244.396991 186.246121 244.926309 C 190.522802 245.445093 196.313702 250.193157 199.573881 249.903481 C 202.381111 249.655939 197.274901 246.048148 200.424477 245.35029 C 205.930967 244.136282 211.787702 245.266021 217.441664 245.06588 C 209.417621 240.12031 204.745926 245.329223 197.022093 246.487929 " stroke="#000000" stroke-width="0.126" stroke-opacity="1" stroke-miterlimit="10"/><g clip-path="url(#db622b52c9)"><path fill="#ffffff" d="M 813.789062 711.929688 C 799.394531 709.269531 788.707031 699.605469 774.667969 712.984375 C 792.035156 704.546875 803.632812 708.570312 817.574219 721.425781 C 820.296875 703.460938 826.246094 709.09375 847.023438 708.339844 C 833.3125 695.335938 826.765625 709.355469 813.789062 711.929688 " fill-opacity="1" fill-rule="evenodd"/></g><g clip-path="url(#f608127312)"><path stroke-linecap="square" transform="matrix(1.483335, 0, 0, 1.483335, 442.875259, 342.715702)" fill="none" stroke-linejoin="miter" d="M 250.05399 248.908046 C 240.6948 246.732838 232.797161 240.61276 223.680246 249.619071 C 235.449019 243.475292 243.328224 246.732838 252.463573 255.309901 C 254.733585 242.988109 258.55205 246.993547 272.45653 246.487929 C 263.213211 238.037271 258.894395 246.719671 250.05399 248.908046 " stroke="#000000" stroke-width="0.126" stroke-opacity="1" stroke-miterlimit="10"/></g></svg>