<svg xmlns="http://www.w3.org/2000/svg" xmlns:xlink="http://www.w3.org/1999/xlink" width="2000" zoomAndPan="magnify" viewBox="0 0 1500 1499.999933" height="2000" preserveAspectRatio="xMidYMid meet" version="1.0"><defs><g/><clipPath id="c59644c7b5"><path d="M 709.75 998.148438 L 796 998.148438 L 796 1005.070312 L 709.75 1005.070312 Z M 709.75 998.148438 " clip-rule="nonzero"/></clipPath><clipPath id="cd13fcbd78"><path d="M 0.75 0.148438 L 87 0.148438 L 87 7.070312 L 0.75 7.070312 Z M 0.75 0.148438 " clip-rule="nonzero"/></clipPath><clipPath id="d89a7e4901"><rect x="0" width="87" y="0" height="8"/></clipPath><clipPath id="11e869ad07"><path d="M 612.203125 612 L 895.074219 612 L 895.074219 695.488281 L 612.203125 695.488281 Z M 612.203125 612 " clip-rule="nonzero"/></clipPath><clipPath id="99a8e483a1"><path d="M 560.875 523 L 944.875 523 L 944.875 617 L 560.875 617 Z M 560.875 523 " clip-rule="nonzero"/></clipPath><clipPath id="e38737b83f"><path d="M 612.164062 399 L 776 399 L 776 431 L 612.164062 431 Z M 612.164062 399 " clip-rule="nonzero"/></clipPath><clipPath id="7660d84777"><path d="M 612.164062 398 L 777 398 L 777 432 L 612.164062 432 Z M 612.164062 398 " clip-rule="nonzero"/></clipPath><clipPath id="b59faa89a9"><path d="M 862 464 L 893.414062 464 L 893.414062 481 L 862 481 Z M 862 464 " clip-rule="nonzero"/></clipPath><clipPath id="69414e0aa9"><path d="M 861 462 L 893.414062 462 L 893.414062 482 L 861 482 Z M 861 462 " clip-rule="nonzero"/></clipPath><clipPath id="277a01f00f"><path d="M 764 524 L 798 524 L 798 532.9375 L 764 532.9375 Z M 764 524 " clip-rule="nonzero"/></clipPath><clipPath id="df95e1e009"><path d="M 762 523 L 799 523 L 799 532.9375 L 762 532.9375 Z M 762 523 " clip-rule="nonzero"/></clipPath><clipPath id="cff7a18d44"><rect x="0" width="583" y="0" height="127"/></clipPath><clipPath id="37c60131d7"><rect x="0" width="478" y="0" height="47"/></clipPath></defs><rect x="-150" width="1800" fill="#ffffff" y="-149.999993" height="1799.99992" fill-opacity="1"/><rect x="-150" width="1800" fill="#ffffff" y="-149.999993" height="1799.99992" fill-opacity="1"/><g clip-path="url(#c59644c7b5)"><g transform="matrix(1, 0, 0, 1, 709, 998)"><g clip-path="url(#d89a7e4901)"><g clip-path="url(#cd13fcbd78)"><path fill="#343231" d="M 0.75 -25.140625 L 87.011719 -25.140625 L 87.011719 31.480469 L 0.75 31.480469 Z M 0.75 -25.140625 " fill-opacity="1" fill-rule="nonzero"/></g></g></g></g><g clip-path="url(#11e869ad07)"><path fill="#343231" d="M 755.214844 629.820312 L 755.195312 629.792969 C 755.195312 629.792969 700.316406 586.476562 612.269531 635.230469 C 647.574219 672.457031 697.5 695.679688 752.855469 695.679688 C 809.039062 695.679688 859.628906 671.757812 895.015625 633.554688 C 808.796875 587.523438 755.214844 629.820312 755.214844 629.820312 " fill-opacity="1" fill-rule="nonzero"/></g><g clip-path="url(#99a8e483a1)"><path fill="#343231" d="M 820.8125 571.886719 C 820.8125 571.886719 886.132812 566.277344 928.515625 583.738281 C 932.699219 574.773438 936.214844 565.4375 939 555.792969 C 924.742188 550.40625 898.785156 545.101562 852.136719 545.753906 C 852.136719 545.753906 901.164062 534.8125 941.433594 546.515625 C 942.867188 540.425781 944.019531 534.226562 944.863281 527.929688 C 913.183594 522.269531 825.796875 513.351562 753.570312 568.378906 C 680.269531 512.511719 591.34375 522.519531 560.875 528.15625 C 561.8125 535.070312 563.117188 541.867188 564.761719 548.527344 C 603.390625 539.992188 646.667969 549.648438 646.667969 549.648438 C 607.101562 549.09375 582.425781 552.828125 567.140625 557.257812 C 569.976562 566.789062 573.523438 576.011719 577.726562 584.867188 C 619.890625 570.792969 677.988281 575.78125 677.988281 575.78125 C 624.542969 577.449219 595.261719 584.285156 580.109375 589.714844 C 584.984375 599.285156 590.625 608.398438 596.964844 616.972656 C 692.957031 555.558594 753.546875 603.386719 753.546875 603.386719 L 753.5625 603.410156 C 753.5625 603.410156 813.746094 555.898438 909.179688 616.378906 C 915.539062 607.707031 921.195312 598.488281 926.0625 588.808594 C 914.113281 583.277344 884.761719 573.886719 820.8125 571.886719 " fill-opacity="1" fill-rule="nonzero"/></g><g clip-path="url(#e38737b83f)"><path fill="#f65b0b" d="M 656.109375 414.898438 C 641.179688 417.25 624.957031 420.578125 612.996094 430.507812 C 630.054688 421.167969 646.945312 417.398438 666.480469 419.332031 C 678.566406 420.527344 689.351562 427.613281 701.625 426.074219 C 713.820312 424.542969 719.800781 414.816406 730.09375 409.3125 C 744.503906 401.601562 759.847656 403.683594 775.460938 400.542969 C 766.054688 399.296875 755.816406 399.578125 746.367188 399.675781 C 733.753906 399.808594 722.964844 407.882812 711.800781 412.683594 C 693.464844 420.570312 674.695312 405.585938 656.109375 414.898438 " fill-opacity="1" fill-rule="evenodd"/></g><g clip-path="url(#7660d84777)"><path stroke-linecap="square" transform="matrix(0.677155, 0, 0, 0.677155, 612.666005, 360.133046)" fill="none" stroke-linejoin="miter" d="M 64.155755 80.875748 C 42.552263 84.584973 17.499134 88.749918 0.487465 103.927165 C 20.083477 92.730268 39.587191 86.996257 62.159812 86.996257 C 73.304791 86.996257 84.045967 87.382755 94.856366 90.336289 C 104.270759 92.914864 113.996657 98.187385 123.935994 97.91626 C 147.166238 97.281711 157.468999 80.748838 176.603521 70.774889 C 196.159152 60.581733 219.106734 63.298754 240.271811 59.676059 C 226.415579 58.003158 211.313325 58.251209 197.445555 58.395425 C 179.799338 58.580021 164.973977 69.419263 149.42177 76.214701 C 120.970922 88.646083 92.456619 66.881069 64.155755 80.875748 " stroke="#000000" stroke-width="0.126" stroke-opacity="1" stroke-miterlimit="10"/></g><path fill="#f65b0b" d="M 671.566406 451.992188 C 658.539062 454.878906 644.890625 454.339844 632.203125 458.832031 C 645.996094 451.804688 663.191406 452.386719 678.050781 454.980469 C 694.816406 457.902344 715.914062 459.90625 729.179688 471.886719 C 730.890625 473.429688 732.105469 475.347656 733.691406 476.945312 C 736.699219 479.972656 733.5625 480.300781 738.398438 480.222656 C 744 480.128906 750.363281 473.503906 755.96875 471.839844 C 775.929688 465.917969 793.523438 464.421875 814.445312 464.421875 C 800.144531 462.316406 785.242188 461.382812 770.804688 462.347656 C 760.835938 463.015625 743.824219 470.570312 734.171875 467.019531 C 730.226562 465.570312 726.722656 460.117188 723.035156 457.675781 C 718.339844 454.5625 713.078125 452.355469 707.578125 451.171875 C 695.777344 448.636719 683.3125 449.347656 671.566406 451.992188 " fill-opacity="1" fill-rule="evenodd"/><path stroke-linecap="square" transform="matrix(0.677155, 0, 0, 0.677155, 612.666005, 360.133046)" fill="none" stroke-linejoin="miter" d="M 86.982196 135.654591 C 67.663078 140.021438 47.876702 139.709933 28.851784 145.755449 C 49.9361 135.152721 75.485331 136.566033 98.19063 140.206034 C 122.759195 144.151772 148.966049 148.484008 169.65233 163.182459 C 177.474583 168.743411 178.391794 180.211434 187.661971 176.559895 C 199.020389 172.083444 207.892531 166.257135 219.995102 163.257451 C 247.384523 156.462013 269.489886 154.010349 297.981114 154.010349 C 278.292805 151.472155 258.719867 150.272281 238.85273 150.733771 C 219.389397 151.189492 200.716364 156.917735 181.287643 157.927244 C 176.055502 158.198369 170.846435 149.885783 166.958383 146.891868 C 159.199586 140.927112 150.477428 137.12559 141.039961 134.708537 C 123.457198 130.209011 104.547653 131.945366 86.982196 135.654591 " stroke="#000000" stroke-width="0.126" stroke-opacity="1" stroke-miterlimit="10"/><path fill="#f65b0b" d="M 753.085938 453.242188 C 759.652344 449.035156 766.828125 443.503906 775.074219 445.535156 C 783.269531 447.550781 786.617188 448.800781 795.433594 445.4375 C 810.816406 439.570312 835.320312 432.957031 848.339844 448.425781 C 834.46875 442.105469 811.914062 439.976562 798.503906 448.378906 C 788.597656 454.582031 785.871094 453.976562 774.789062 450.738281 C 766.429688 448.292969 760.933594 449.988281 753.085938 453.242188 " fill-opacity="1" fill-rule="evenodd"/><path stroke-linecap="square" transform="matrix(0.677155, 0, 0, 0.677155, 612.666005, 360.133046)" fill="none" stroke-linejoin="miter" d="M 207.367587 137.50055 C 215.668635 132.204954 229.992125 120.725395 240.623697 126.545935 C 251.018756 132.239566 260.490835 130.122481 271.410838 125.31145 C 292.766279 115.902826 330.175799 109.170843 348.035455 130.387838 C 326.829997 121.388786 292.985487 117.887232 272.812613 131.38581 C 261.229218 139.127302 255.097172 139.952215 241.189022 134.368188 C 228.584581 129.309106 219.285561 132.68375 207.367587 137.50055 " stroke="#000000" stroke-width="0.126" stroke-opacity="1" stroke-miterlimit="10"/><path fill="#f65b0b" d="M 635.179688 481.953125 C 642.933594 478.210938 651.644531 475.820312 660.335938 476.703125 C 667.5625 477.433594 670.117188 482.71875 678.097656 480.507812 C 688.464844 477.636719 693.851562 474.804688 705.464844 476.75 C 714.703125 478.296875 724.980469 482.367188 731.390625 489.46875 C 722.269531 484.167969 711.917969 481.730469 701.480469 480.894531 C 692.648438 480.183594 687.484375 483.144531 679.347656 485.230469 C 664.285156 489.082031 650.605469 477.847656 635.179688 481.953125 " fill-opacity="1" fill-rule="evenodd"/><path stroke-linecap="square" transform="matrix(0.677155, 0, 0, 0.677155, 612.666005, 360.133046)" fill="none" stroke-linejoin="miter" d="M 33.247474 179.899928 C 43.711756 174.725473 60.025421 168.893396 71.810718 172.429561 C 83.23836 175.861892 87.172561 180.81137 99.748159 176.484903 C 125.193554 167.728134 155.196161 170.197104 175.328655 190.998758 C 163.324151 184.272544 150.131311 180.286426 136.471212 178.763509 C 121.392031 177.073303 112.277607 181.10557 98.329077 184.739803 C 76.177565 190.508425 56.045072 173.848643 33.247474 179.899928 " stroke="#000000" stroke-width="0.126" stroke-opacity="1" stroke-miterlimit="10"/><path fill="#f65b0b" d="M 831.441406 408.058594 C 821.539062 402.25 812.695312 400.136719 801.675781 403.242188 C 806.3125 403.570312 811.328125 403.5 815.835938 404.734375 C 819.988281 405.871094 822.75 409.816406 826.542969 410.851562 C 831.863281 412.300781 832.566406 409.21875 836.722656 406.902344 C 843.183594 403.296875 846.5 401.265625 854.484375 399.773438 C 845.527344 396.316406 837.15625 401.253906 831.441406 408.058594 " fill-opacity="1" fill-rule="evenodd"/><path stroke-linecap="square" transform="matrix(0.677155, 0, 0, 0.677155, 612.666005, 360.133046)" fill="none" stroke-linejoin="miter" d="M 322.936177 70.774889 C 308.918423 62.462304 294.883364 58.320433 279.123486 63.662177 C 287.793727 64.371718 297.600385 63.875616 305.636077 67.786743 C 310.499026 70.151878 314.300549 76.203163 320.24223 75.753211 C 324.960964 75.395556 329.996971 69.799992 333.85618 67.077202 C 341.447688 61.712383 347.700875 60.29907 357.109499 58.53964 C 343.933964 53.238276 331.479507 60.956693 322.936177 70.774889 " stroke="#000000" stroke-width="0.126" stroke-opacity="1" stroke-miterlimit="10"/><path fill="#f65b0b" d="M 798.984375 484.074219 C 786.3125 484.074219 774.917969 474.375 762.210938 484.84375 C 777.871094 480.121094 788.601562 481.152344 802.539062 490.242188 C 806.484375 487.027344 800.898438 486 803.210938 483.015625 C 806.972656 478.160156 825.917969 481.761719 830.382812 481.761719 C 825.789062 479.011719 820.242188 477.371094 814.878906 478.195312 C 809.113281 479.085938 805.015625 484.148438 798.984375 484.074219 " fill-opacity="1" fill-rule="evenodd"/><path stroke-linecap="square" transform="matrix(0.677155, 0, 0, 0.677155, 612.666005, 360.133046)" fill="none" stroke-linejoin="miter" d="M 275.148905 183.03229 C 256.723924 182.640024 238.864267 169.331811 220.84309 184.168709 C 244.471369 177.396346 259.198663 179.155776 280.398352 192.140946 C 286.091983 187.531816 276.418002 183.11882 283.305738 180.044144 C 293.147009 175.654222 310.908598 179.617266 321.378649 179.617266 C 314.62936 175.538849 306.524445 173.133333 298.615663 174.350513 C 290.141556 175.65999 284.00951 182.997679 275.148905 183.03229 " stroke="#000000" stroke-width="0.126" stroke-opacity="1" stroke-miterlimit="10"/><path fill="#f65b0b" d="M 846.515625 425.882812 C 835.421875 421.3125 829.863281 420.90625 817.996094 423.183594 C 826.808594 422.851562 834.84375 426.601562 843.539062 427.039062 C 849.65625 427.347656 854.945312 424.878906 860.917969 424.4375 C 855.914062 423.023438 849.851562 420.484375 846.515625 425.882812 " fill-opacity="1" fill-rule="evenodd"/><path stroke-linecap="square" transform="matrix(0.677155, 0, 0, 0.677155, 612.666005, 360.133046)" fill="none" stroke-linejoin="miter" d="M 345.341508 97.097115 C 329.950822 90.578572 319.561533 89.07873 303.224793 93.110997 C 315.765779 92.574515 327.199189 97.70859 339.526736 98.660412 C 349.223791 99.410333 357.155648 95.804944 366.610421 94.962725 C 359.411179 92.770648 350.117928 89.107573 345.341508 97.097115 " stroke="#000000" stroke-width="0.126" stroke-opacity="1" stroke-miterlimit="10"/><path fill="#f65b0b" d="M 786.214844 416.632812 C 788.304688 416.636719 789.644531 417.871094 791.496094 418.175781 C 793.40625 418.484375 793.03125 420.652344 795.234375 419.304688 C 797.160156 418.132812 799.070312 416.945312 801.050781 415.863281 C 805.460938 413.449219 810.09375 413.152344 814.925781 412.296875 C 810.804688 413.683594 803.570312 414.890625 801.050781 418.945312 C 798.746094 422.648438 797.027344 422.9375 792.746094 422.222656 C 780.773438 420.214844 778.207031 420.179688 767.109375 424.535156 C 772.054688 419.082031 778.886719 416.433594 786.214844 416.632812 " fill-opacity="1" fill-rule="evenodd"/><path stroke-linecap="square" transform="matrix(0.677155, 0, 0, 0.677155, 612.666005, 360.133046)" fill="none" stroke-linejoin="miter" d="M 256.291277 83.437017 C 266.865163 83.696605 265.163419 89.436384 275.858446 83.581232 C 283.392267 79.456667 290.424219 78.602911 298.690655 77.033845 C 292.068276 79.312451 285.220921 81.071881 279.544596 85.288744 C 276.227638 87.757715 276.360316 90.884309 272.02808 92.257241 C 265.584529 94.310871 256.591245 88.299966 250.049627 87.98846 C 241.656281 87.596194 235.495392 91.778445 228.071174 95.101172 C 235.143506 86.89819 245.659705 83.275495 256.291277 83.437017 " stroke="#000000" stroke-width="0.126" stroke-opacity="1" stroke-miterlimit="10"/><path fill="#f65b0b" d="M 756.066406 430.796875 C 746.9375 430.089844 739.363281 424.785156 730.332031 431.277344 C 741.726562 427.804688 748.539062 428.976562 758.5625 435.035156 C 758.832031 434.296875 758.78125 430.316406 758.65625 430.410156 C 763.152344 427.066406 772.546875 429.15625 777.957031 429.15625 C 768.988281 423.285156 764.660156 430.246094 756.066406 430.796875 " fill-opacity="1" fill-rule="evenodd"/><path stroke-linecap="square" transform="matrix(0.677155, 0, 0, 0.677155, 612.666005, 360.133046)" fill="none" stroke-linejoin="miter" d="M 211.769046 104.209827 C 198.224319 103.759875 187.390846 95.366529 173.765358 105.063584 C 181.662603 102.508084 189.709832 100.419842 198.01088 102.219653 C 204.54673 103.638734 212.293991 111.27639 217.012724 108.622824 C 218.472186 107.80368 212.657414 102.427323 219.989333 101.510112 C 227.719288 100.535215 236.320305 101.792774 244.096408 101.792774 C 230.280557 93.589793 224.517702 103.454138 211.769046 104.209827 " stroke="#000000" stroke-width="0.126" stroke-opacity="1" stroke-miterlimit="10"/><path fill="#f65b0b" d="M 709.207031 441.492188 C 702.550781 440.417969 697.917969 438 691.15625 441.78125 C 693.894531 440.863281 696.804688 440.140625 699.703125 440.140625 C 703.03125 440.140625 708.648438 444.882812 710.9375 444.476562 C 713.109375 444.089844 710.195312 441.421875 711.128906 441.105469 C 715.367188 439.671875 719.875 440.445312 724.570312 440.335938 C 718.550781 436.535156 715.015625 440.472656 709.207031 441.492188 " fill-opacity="1" fill-rule="evenodd"/><path stroke-linecap="square" transform="matrix(0.677155, 0, 0, 0.677155, 612.666005, 360.133046)" fill="none" stroke-linejoin="miter" d="M 142.568646 120.148532 C 133.275395 118.250656 124.968578 115.077913 115.91184 120.575411 C 120.924773 118.937122 126.445345 117.575727 131.723635 118.510244 C 136.598121 119.375537 142.412893 123.978898 145.833687 123.563557 C 146.583608 123.471259 144.137711 119.358231 147.53543 118.296805 C 152.490677 116.750814 160.122565 118.562161 165.25664 118.44102 C 156.424878 112.764695 151.163894 118.614079 142.568646 120.148532 " stroke="#000000" stroke-width="0.126" stroke-opacity="1" stroke-miterlimit="10"/><path fill="#f65b0b" d="M 749.152344 443.320312 C 741.667969 442.308594 736.679688 436.726562 729.277344 443.898438 C 738.5625 439.710938 743.785156 441.226562 750.976562 448.332031 C 751.296875 447.421875 751.121094 442.761719 751.265625 442.644531 C 755.007812 439.609375 761.203125 441.550781 765.953125 441.394531 C 759.191406 434.785156 755.691406 442.117188 749.152344 443.320312 " fill-opacity="1" fill-rule="evenodd"/><path stroke-linecap="square" transform="matrix(0.677155, 0, 0, 0.677155, 612.666005, 360.133046)" fill="none" stroke-linejoin="miter" d="M 201.414368 122.848248 C 190.609737 120.690783 182.660575 113.33002 172.20783 123.702004 C 185.516043 116.912335 194.007456 120.356203 204.25253 130.105175 C 205.112055 127.313162 203.364162 121.659912 206.236937 120.217756 C 211.469077 117.593033 220.831552 120.183144 226.36943 120.004317 C 216.291646 109.880384 211.24987 121.256108 201.414368 122.848248 " stroke="#000000" stroke-width="0.126" stroke-opacity="1" stroke-miterlimit="10"/><path fill="#f65b0b" d="M 855.925781 497.949219 C 847.238281 492.960938 838.894531 490.597656 829.230469 493.710938 C 833.726562 494.117188 838.503906 493.980469 842.867188 495.300781 C 846.191406 496.304688 848.882812 500.007812 852.085938 500.550781 C 856.148438 501.234375 858.300781 498.808594 861.492188 496.503906 C 866.570312 492.84375 870.222656 491.917969 876.664062 490.722656 C 868.519531 487.75 861.269531 491.898438 855.925781 497.949219 " fill-opacity="1" fill-rule="evenodd"/><path stroke-linecap="square" transform="matrix(0.677155, 0, 0, 0.677155, 612.666005, 360.133046)" fill="none" stroke-linejoin="miter" d="M 359.238121 203.522439 C 346.766358 196.43857 333.758113 192.244781 319.815352 197.263483 C 327.176115 197.949949 335.131046 197.6096 342.082236 200.390076 C 346.933648 202.334102 351.02937 208.171949 356.682621 207.79122 C 360.980245 207.49702 364.551022 203.009031 368.098725 200.747731 C 375.580629 195.971311 380.858919 194.419552 389.863739 192.850486 C 378.026525 188.166365 366.996918 194.748363 359.238121 203.522439 " stroke="#000000" stroke-width="0.126" stroke-opacity="1" stroke-miterlimit="10"/><path fill="#f65b0b" d="M 779.207031 470.683594 C 794.453125 470.917969 809.371094 473.621094 822.84375 480.996094 C 827.675781 483.636719 835.628906 476.597656 840.945312 474.539062 C 849.789062 471.117188 861.117188 466.949219 870.617188 466.640625 C 860.488281 471.394531 849.335938 473.601562 839.3125 478.632812 C 835 480.800781 830.746094 485.828125 825.675781 485.039062 C 820.253906 484.195312 815.535156 478.367188 809.640625 476.757812 C 799.667969 474.027344 789.632812 470.90625 779.207031 470.683594 " fill-opacity="1" fill-rule="evenodd"/><path stroke-linecap="square" transform="matrix(0.677155, 0, 0, 0.677155, 612.666005, 360.133046)" fill="none" stroke-linejoin="miter" d="M 245.942368 163.257451 C 257.998789 163.851619 269.887921 164.624615 281.673218 167.382016 C 287.101492 168.651113 292.356707 170.352857 297.554236 172.360338 C 301.915315 174.044776 310.227901 180.782527 314.427458 180.753684 C 317.444448 180.736378 325.214783 174.212066 328.468286 172.717993 C 333.769651 170.277865 339.157544 168.206929 344.701191 166.384045 C 355.996155 162.680589 369.067854 157.604201 380.933911 157.281158 C 366.050864 163.540114 350.383285 167.74544 335.696371 174.494728 C 328.358682 177.869373 322.215099 185.870453 313.648694 184.312925 C 305.895665 182.899612 297.66384 174.333207 289.189733 171.795013 C 275.160442 167.595455 260.658125 163.713172 245.942368 163.257451 " stroke="#000000" stroke-width="0.126" stroke-opacity="1" stroke-miterlimit="10"/><path fill="#f65b0b" d="M 821.839844 463.359375 C 828.839844 458.851562 832.953125 459.691406 840.5625 460.324219 C 846.222656 460.792969 850.847656 456.539062 856.40625 456.132812 C 850.691406 457.390625 847.042969 462.488281 840.847656 462.011719 C 832.949219 461.402344 830.179688 459.179688 821.839844 463.359375 " fill-opacity="1" fill-rule="evenodd"/><path stroke-linecap="square" transform="matrix(0.677155, 0, 0, 0.677155, 612.666005, 360.133046)" fill="none" stroke-linejoin="miter" d="M 308.901118 152.441283 C 318.713545 145.761218 323.697635 147.393738 334.283058 147.745624 C 343.737831 148.05713 350.769782 142.490409 359.947661 141.769331 C 352.010036 143.61529 344.95501 152.631648 336.192472 150.237669 C 325.272469 147.249523 320.023022 146.50537 308.901118 152.441283 " stroke="#000000" stroke-width="0.126" stroke-opacity="1" stroke-miterlimit="10"/><g clip-path="url(#b59faa89a9)"><path fill="#f65b0b" d="M 862.839844 480.03125 C 865.992188 472.960938 871.988281 475.511719 877.050781 472.128906 C 879.621094 470.414062 879.246094 467.0625 882.667969 465.917969 C 886.074219 464.777344 889.488281 464.277344 893.085938 464.324219 C 885.363281 463.726562 884.804688 466.1875 880.699219 471.167969 C 877.828125 474.652344 878.867188 473.558594 874.554688 475.210938 C 870.578125 476.738281 866.714844 478.132812 862.839844 480.03125 " fill-opacity="1" fill-rule="evenodd"/></g><g clip-path="url(#69414e0aa9)"><path stroke-linecap="square" transform="matrix(0.677155, 0, 0, 0.677155, 612.666005, 360.133046)" fill="none" stroke-linejoin="miter" d="M 369.298599 177.061766 C 374.888394 165.830257 384.827732 171.702715 390.994389 164.751524 C 398.060953 156.785056 401.695185 153.675769 414.109261 153.866133 C 403.26425 152.53935 401.960542 157.131174 395.81119 163.97276 C 391.16168 169.147215 392.938415 168.460749 385.248841 170.30094 C 379.705195 171.627723 374.415367 174.621638 369.298599 177.061766 " stroke="#000000" stroke-width="0.126" stroke-opacity="1" stroke-miterlimit="10"/></g><path fill="#f65b0b" d="M 815.308594 505.367188 C 817.15625 505.457031 818.824219 505.972656 820.398438 506.957031 C 823.621094 508.972656 825.523438 506.308594 828.65625 504.742188 C 832.675781 502.726562 836.675781 502.332031 841.042969 501.609375 C 833.753906 504.261719 827.824219 510.882812 820.6875 510.183594 C 810.800781 509.214844 807.589844 507.542969 798.21875 512.398438 C 801.914062 507.441406 809.148438 505.246094 815.308594 505.367188 " fill-opacity="1" fill-rule="evenodd"/><path stroke-linecap="square" transform="matrix(0.677155, 0, 0, 0.677155, 612.666005, 360.133046)" fill="none" stroke-linejoin="miter" d="M 299.25598 214.477053 C 308.462702 214.86932 307.458962 219.328465 316.838743 214.621269 C 323.651486 211.200476 329.720077 209.948685 337.259668 208.927638 C 326.541566 212.838765 316.677221 223.845297 305.797598 221.260954 C 292.558609 218.111286 286.293885 218.988117 273.87404 224.722128 C 280.404121 217.517118 289.691603 214.425136 299.25598 214.477053 " stroke="#000000" stroke-width="0.126" stroke-opacity="1" stroke-miterlimit="10"/><path fill="#f65b0b" d="M 788.230469 517.699219 C 779.988281 517.304688 773.316406 512.496094 765.089844 518.179688 C 774.847656 515.097656 781.753906 515.992188 790.441406 521.457031 C 790.984375 513.511719 799.386719 516.253906 807.917969 516.253906 C 799.917969 511.679688 795.882812 517.234375 788.230469 517.699219 " fill-opacity="1" fill-rule="evenodd"/><path stroke-linecap="square" transform="matrix(0.677155, 0, 0, 0.677155, 612.666005, 360.133046)" fill="none" stroke-linejoin="miter" d="M 259.12944 232.688596 C 247.032637 231.823302 237.122143 225.264378 225.094565 233.398136 C 239.400749 228.765932 249.951561 230.225394 262.532927 238.238011 C 263.052103 226.210432 276.279555 230.554205 288.341746 230.554205 C 276.30263 223.660701 270.539776 231.598326 259.12944 232.688596 " stroke="#000000" stroke-width="0.126" stroke-opacity="1" stroke-miterlimit="10"/><path fill="#f65b0b" d="M 746.078125 527.042969 C 740.113281 525.992188 735.847656 524.265625 729.851562 527.332031 C 732.695312 526.449219 735.785156 525.65625 738.78125 525.984375 C 741.839844 526.316406 745.660156 529.472656 748 529.261719 C 749.617188 529.113281 746.863281 526.964844 747.808594 526.757812 C 751.742188 525.886719 755.578125 526.234375 759.90625 526.082031 C 754.390625 522.808594 751.3125 526.136719 746.078125 527.042969 " fill-opacity="1" fill-rule="evenodd"/><path stroke-linecap="square" transform="matrix(0.677155, 0, 0, 0.677155, 612.666005, 360.133046)" fill="none" stroke-linejoin="miter" d="M 197.018677 246.487142 C 188.481115 244.802704 181.472239 242.489486 173.055818 246.91402 C 177.157309 245.558393 181.893348 244.3989 186.24289 244.923845 C 190.523208 245.443021 196.314905 250.196366 199.574177 249.902166 C 202.377728 249.654116 197.278265 246.048726 200.422165 245.350723 C 205.9312 244.133544 211.786352 245.264194 217.439602 245.06806 C 209.415448 240.118582 204.748632 245.327649 197.018677 246.487142 " stroke="#000000" stroke-width="0.126" stroke-opacity="1" stroke-miterlimit="10"/><g clip-path="url(#277a01f00f)"><path fill="#f65b0b" d="M 781.992188 528.679688 C 775.421875 527.46875 770.542969 523.054688 764.132812 529.164062 C 772.058594 525.3125 777.355469 527.148438 783.71875 533.019531 C 784.960938 524.816406 787.679688 527.386719 797.164062 527.042969 C 790.902344 521.105469 787.914062 527.507812 781.992188 528.679688 " fill-opacity="1" fill-rule="evenodd"/></g><g clip-path="url(#df95e1e009)"><path stroke-linecap="square" transform="matrix(0.677155, 0, 0, 0.677155, 612.666005, 360.133046)" fill="none" stroke-linejoin="miter" d="M 250.055396 248.904195 C 240.692921 246.729424 232.795676 240.614684 223.681252 249.619504 C 235.449243 243.475921 243.329182 246.729424 252.460911 255.313135 C 254.733749 242.985588 258.552577 246.994781 272.454958 246.487142 C 263.213625 238.036109 258.892926 246.717887 250.055396 248.904195 " stroke="#000000" stroke-width="0.126" stroke-opacity="1" stroke-miterlimit="10"/></g><g transform="matrix(1, 0, 0, 1, 459, 749)"><g clip-path="url(#cff7a18d44)"><g fill="#f65b0b" fill-opacity="1"><g transform="translate(2.533822, 99.940903)"><g><path d="M 35.671875 1.34375 L 32.359375 1.140625 L 30.28125 1.140625 L 26.234375 0.3125 L 22.296875 -1.453125 L 20.734375 -2.390625 L 18.671875 -3.3125 L 15.34375 -5.5 L 13.796875 -6.84375 L 12.546875 -8.296875 L 10.15625 -12.03125 L 8.5 -15.5625 L 7.46875 -19.8125 L 6.84375 -28.109375 L 7.15625 -44.796875 L 6.953125 -46.765625 L 7.265625 -48.84375 L 6.953125 -63.359375 L 7.15625 -65.015625 L 7.15625 -67.515625 L 6.953125 -69.578125 L 8.296875 -71.5625 L 10.46875 -72.390625 L 12.65625 -72.703125 L 17.109375 -72.28125 L 19.1875 -72.59375 L 21.15625 -72.59375 L 23.328125 -71.65625 L 24.578125 -69.375 L 24.78125 -66.375 L 24.578125 -63.046875 L 24.78125 -61.5 L 24.46875 -28.109375 L 25.09375 -22.09375 L 25.71875 -20.125 L 26.96875 -18.453125 L 28.625 -17.21875 L 30.390625 -16.171875 L 32.765625 -15.65625 L 39 -15.65625 L 42.625 -17 L 44.390625 -18.25 L 45.53125 -20.328125 L 46.140625 -21.875 L 46.875 -28.3125 L 46.671875 -69.171875 L 47.8125 -71.453125 L 49.984375 -72.484375 L 54.34375 -72.171875 L 60.875 -72.390625 L 63.15625 -71.65625 L 64.5 -69.484375 L 64.1875 -67.40625 L 64.1875 -58.796875 L 64.40625 -57.140625 L 64.1875 -54.859375 L 64.40625 -52.890625 L 64.40625 -24.890625 L 63.875 -19.90625 L 62.953125 -15.5625 L 61.90625 -13.796875 L 61.28125 -11.71875 L 58.90625 -8.09375 L 56 -5.1875 L 52.578125 -2.90625 L 48.84375 -0.9375 L 40.75 1.140625 L 38.78125 1.03125 Z M 35.671875 1.34375 "/></g></g></g><g fill="#f65b0b" fill-opacity="1"><g transform="translate(76.87903, 99.940903)"><g><path d="M 61.1875 -1.65625 L 59.84375 -3 L 58.59375 -4.5625 L 56.9375 -5.90625 L 55.578125 -7.578125 L 45.53125 -17.625 L 43.859375 -18.984375 L 29.03125 -33.5 L 27.6875 -33.8125 L 26.65625 -32.5625 L 27.0625 -30.390625 L 26.75 -4.984375 L 27.0625 -2.90625 L 26.140625 -0.828125 L 24.0625 0.203125 L 21.671875 0 L 19.5 0.3125 L 14.3125 0 L 10.78125 0.203125 L 8.8125 -0.9375 L 7.875 -3.21875 L 7.875 -5.1875 L 7.578125 -7.265625 L 7.875 -11.203125 L 7.671875 -13.28125 L 7.78125 -17.53125 L 7.46875 -19.703125 L 7.46875 -21.671875 L 7.671875 -23.953125 L 7.671875 -25.921875 L 7.875 -27.796875 L 7.46875 -42.625 L 7.78125 -44.796875 L 7.671875 -46.984375 L 7.875 -48.84375 L 7.578125 -53.09375 L 7.78125 -55.171875 L 7.578125 -69.6875 L 8.921875 -71.65625 L 11.40625 -72.90625 L 14.203125 -72.078125 L 18.359375 -69.28125 L 23.953125 -63.5625 L 25.296875 -61.8125 L 27.0625 -60.5625 L 28.109375 -59 L 30.078125 -57.65625 L 31.21875 -56.109375 L 34.421875 -53.40625 L 36.609375 -51.125 L 37.75 -49.671875 L 39.40625 -48.421875 L 43.03125 -44.703125 L 44.59375 -43.453125 L 49.15625 -38.78125 L 50.609375 -38.375 L 51.125 -40.03125 L 51.015625 -44.171875 L 51.4375 -46.359375 L 51.4375 -48.328125 L 51.015625 -50.5 L 51.125 -69.375 L 52.15625 -71.5625 L 54.65625 -72.59375 L 56.71875 -72.484375 L 58.59375 -72.703125 L 60.765625 -72.390625 L 63.046875 -72.59375 L 65.015625 -72.59375 L 67.09375 -72.390625 L 69.375 -71.34375 L 70.625 -69.484375 L 70.421875 -64.09375 L 70.625 -60.984375 L 70.203125 -58.90625 L 70.203125 -54.75 L 70.421875 -52.78125 L 70.109375 -48.640625 L 70.515625 -36.1875 L 70.3125 -33.90625 L 70.71875 -31 L 70.203125 -2.796875 L 69.28125 -0.625 L 66.890625 0.515625 L 64.1875 -0.3125 Z M 61.1875 -1.65625 "/></g></g></g><g fill="#f65b0b" fill-opacity="1"><g transform="translate(157.860255, 99.940903)"><g><path d="M 7.984375 -3.109375 L 7.671875 -5.1875 L 7.875 -7.046875 L 7.78125 -9.125 L 7.984375 -11.40625 L 7.46875 -15.5625 L 7.78125 -19.703125 L 7.671875 -21.875 L 7.984375 -23.75 L 7.78125 -48.640625 L 7.46875 -50.8125 L 7.984375 -54.96875 L 7.671875 -57.03125 L 7.578125 -59 L 7.875 -65.234375 L 7.671875 -67.296875 L 7.671875 -69.484375 L 9.125 -71.34375 L 10.78125 -72.703125 L 19.1875 -72.484375 L 21.265625 -72.703125 L 23.4375 -72.484375 L 25.296875 -71.453125 L 26.34375 -69.171875 L 26.4375 -67.09375 L 26.75 -65.125 L 26.4375 -50.09375 L 26.75 -48.21875 L 26.65625 -46.046875 L 28.515625 -44.90625 L 31 -45 L 35.5625 -45.9375 L 37.328125 -46.765625 L 39.203125 -47.90625 L 40.75 -49.265625 L 42 -50.921875 L 43.34375 -52.46875 L 44.171875 -54.4375 L 45.21875 -58.59375 L 45.734375 -62.953125 L 45.421875 -69.28125 L 46.5625 -71.453125 L 49.046875 -72.703125 L 52.0625 -72.390625 L 61.5 -72.703125 L 63.671875 -71.5625 L 64.5 -69.171875 L 64.609375 -65.015625 L 64.1875 -63.046875 L 64.40625 -60.765625 L 63.78125 -56.421875 L 63.671875 -54.4375 L 62.640625 -50.5 L 61.703125 -48.328125 L 61.1875 -46.453125 L 60.140625 -44.484375 L 57.859375 -40.96875 L 54.859375 -37.953125 L 53 -36.8125 L 52.0625 -34.421875 L 52.0625 -32.140625 L 55.6875 -26.96875 L 58.703125 -21.5625 L 59.9375 -19.703125 L 60.765625 -17.84375 L 62.015625 -16.171875 L 63.984375 -12.65625 L 65.546875 -10.890625 L 66.375 -8.921875 L 67.40625 -7.15625 L 68.859375 -5.59375 L 69.796875 -3.109375 L 69.28125 -0.71875 L 67.515625 0.203125 L 65.328125 0 L 53.828125 0 L 50.296875 -0.71875 L 48.328125 -2.28125 L 45.53125 -7.671875 L 44.171875 -9.4375 L 43.25 -11.203125 L 42 -12.96875 L 39.40625 -18.359375 L 35.15625 -25.40625 L 33.1875 -26.96875 L 30.078125 -27.578125 L 27.484375 -26.34375 L 26.546875 -24.46875 L 26.546875 -18.046875 L 26.34375 -15.765625 L 26.65625 -3.21875 L 25.609375 -0.9375 L 22.609375 0.109375 L 11.71875 0.203125 L 8.71875 -0.9375 Z M 7.984375 -3.109375 "/></g></g></g><g fill="#f65b0b" fill-opacity="1"><g transform="translate(232.516515, 99.940903)"><g><path d="M 61.1875 -1.65625 L 59.84375 -3 L 58.59375 -4.5625 L 56.9375 -5.90625 L 55.578125 -7.578125 L 45.53125 -17.625 L 43.859375 -18.984375 L 29.03125 -33.5 L 27.6875 -33.8125 L 26.65625 -32.5625 L 27.0625 -30.390625 L 26.75 -4.984375 L 27.0625 -2.90625 L 26.140625 -0.828125 L 24.0625 0.203125 L 21.671875 0 L 19.5 0.3125 L 14.3125 0 L 10.78125 0.203125 L 8.8125 -0.9375 L 7.875 -3.21875 L 7.875 -5.1875 L 7.578125 -7.265625 L 7.875 -11.203125 L 7.671875 -13.28125 L 7.78125 -17.53125 L 7.46875 -19.703125 L 7.46875 -21.671875 L 7.671875 -23.953125 L 7.671875 -25.921875 L 7.875 -27.796875 L 7.46875 -42.625 L 7.78125 -44.796875 L 7.671875 -46.984375 L 7.875 -48.84375 L 7.578125 -53.09375 L 7.78125 -55.171875 L 7.578125 -69.6875 L 8.921875 -71.65625 L 11.40625 -72.90625 L 14.203125 -72.078125 L 18.359375 -69.28125 L 23.953125 -63.5625 L 25.296875 -61.8125 L 27.0625 -60.5625 L 28.109375 -59 L 30.078125 -57.65625 L 31.21875 -56.109375 L 34.421875 -53.40625 L 36.609375 -51.125 L 37.75 -49.671875 L 39.40625 -48.421875 L 43.03125 -44.703125 L 44.59375 -43.453125 L 49.15625 -38.78125 L 50.609375 -38.375 L 51.125 -40.03125 L 51.015625 -44.171875 L 51.4375 -46.359375 L 51.4375 -48.328125 L 51.015625 -50.5 L 51.125 -69.375 L 52.15625 -71.5625 L 54.65625 -72.59375 L 56.71875 -72.484375 L 58.59375 -72.703125 L 60.765625 -72.390625 L 63.046875 -72.59375 L 65.015625 -72.59375 L 67.09375 -72.390625 L 69.375 -71.34375 L 70.625 -69.484375 L 70.421875 -64.09375 L 70.625 -60.984375 L 70.203125 -58.90625 L 70.203125 -54.75 L 70.421875 -52.78125 L 70.109375 -48.640625 L 70.515625 -36.1875 L 70.3125 -33.90625 L 70.71875 -31 L 70.203125 -2.796875 L 69.28125 -0.625 L 66.890625 0.515625 L 64.1875 -0.3125 Z M 61.1875 -1.65625 "/></g></g></g><g fill="#f65b0b" fill-opacity="1"><g transform="translate(313.49774, 99.940903)"><g><path d="M 38.78125 1.25 L 36.609375 1.03125 L 32.875 0.203125 L 30.59375 0 L 27.578125 -1.03125 L 19.5 -5.1875 L 16.078125 -7.875 L 14.9375 -9.234375 L 13.375 -10.6875 L 12.03125 -12.34375 L 10.78125 -13.578125 L 6.015625 -23.015625 L 5.078125 -26.96875 L 4.875 -28.9375 L 4.359375 -30.796875 L 4.046875 -32.984375 L 4.359375 -41.375 L 6.125 -49.359375 L 7.671875 -53.296875 L 10.890625 -58.796875 L 15.96875 -64.703125 L 19.5 -67.296875 L 21.359375 -68.234375 L 22.921875 -69.375 L 30.703125 -72.28125 L 41.6875 -73.84375 L 44.484375 -73.734375 L 50.5 -72.703125 L 58.484375 -70.203125 L 60.046875 -69.0625 L 63.15625 -67.71875 L 65.546875 -66.0625 L 68.546875 -63.46875 L 71.453125 -60.25 L 73.734375 -57.140625 L 75.703125 -53.296875 L 78.296875 -45.53125 L 79.015625 -41.28125 L 79.328125 -36.09375 L 78.921875 -33.078125 L 78.8125 -30.90625 L 78.296875 -28.828125 L 78.1875 -26.96875 L 77.359375 -23.015625 L 75.8125 -19.078125 L 71.25 -12.140625 L 69.796875 -10.6875 L 68.4375 -8.8125 L 65.546875 -6.328125 L 63.5625 -5.390625 L 62.015625 -4.140625 L 58.59375 -2.28125 L 50.8125 0.3125 L 44.59375 1.140625 Z M 44.59375 -17.109375 L 46.671875 -17.53125 L 48.21875 -18.25 L 50.09375 -18.765625 L 55.0625 -22.1875 L 56.515625 -23.859375 L 57.140625 -25.40625 L 58.28125 -27.28125 L 59 -29.140625 L 59.84375 -32.984375 L 60.046875 -39.296875 L 59.734375 -41.171875 L 58.796875 -43.140625 L 57.5625 -47.078125 L 53.515625 -51.328125 L 50.296875 -53.609375 L 48.421875 -54.4375 L 46.5625 -54.859375 L 41.578125 -55.484375 L 38.6875 -55.28125 L 34.640625 -54.234375 L 33.28125 -53.71875 L 28.109375 -50.1875 L 25.609375 -46.875 L 25 -45 L 24.15625 -43.140625 L 23.859375 -41.171875 L 23.328125 -39.296875 L 23.328125 -32.984375 L 24.15625 -29.140625 L 25.09375 -27.28125 L 25.609375 -25.609375 L 27.0625 -23.640625 L 28.421875 -22.1875 L 31.21875 -19.90625 L 32.875 -18.984375 L 36.609375 -17.421875 L 38.890625 -17.109375 Z M 44.59375 -17.109375 "/></g></g></g><g fill="#f65b0b" fill-opacity="1"><g transform="translate(399.455952, 99.940903)"><g><path d="M 25.296875 -2.078125 L 23.640625 -6.015625 L 22.609375 -10.0625 L 14.9375 -29.453125 L 14.625 -31.421875 L 13.578125 -33.59375 L 13.28125 -35.5625 L 10.890625 -41.28125 L 10.46875 -43.140625 L 9.546875 -45.21875 L 9.015625 -47.078125 L 8.09375 -49.046875 L 6.125 -54.96875 L 5.078125 -56.71875 L 4.5625 -58.90625 L 3.625 -60.765625 L 2.390625 -64.609375 L 1.453125 -66.578125 L 0.9375 -69.28125 L 1.453125 -71.65625 L 3.625 -72.390625 L 7.578125 -72.390625 L 9.234375 -72.59375 L 15.765625 -72.484375 L 17.53125 -72.703125 L 20.125 -71.453125 L 21.78125 -69.578125 L 22.296875 -67.515625 L 22.921875 -65.640625 L 23.328125 -63.46875 L 24.890625 -59.421875 L 25.921875 -57.453125 L 31.84375 -34.53125 L 32.453125 -34.640625 L 33.59375 -36.703125 L 33.90625 -38.46875 L 35.046875 -40.65625 L 35.78125 -42.625 L 36.09375 -44.59375 L 38.375 -50.40625 L 39 -52.6875 L 41.890625 -60.25 L 42.828125 -64.296875 L 44.703125 -68.34375 L 45.9375 -70.421875 L 48.21875 -71.5625 L 50.1875 -71.453125 L 52.890625 -70.515625 L 54.4375 -68.4375 L 58.796875 -56.515625 L 59.109375 -54.4375 L 60.046875 -52.375 L 60.453125 -50.40625 L 64.1875 -40.4375 L 64.5 -38.46875 L 65.640625 -36.703125 L 65.953125 -34.84375 L 66.890625 -34.640625 L 71.453125 -52.578125 L 72.703125 -55.6875 L 73.21875 -57.5625 L 74.140625 -59.625 L 75.90625 -65.75 L 76.84375 -67.515625 L 77.359375 -69.578125 L 78.921875 -71.453125 L 81.296875 -72.59375 L 83.171875 -72.484375 L 94.46875 -72.703125 L 97.6875 -71.859375 L 98.109375 -69.375 L 95.40625 -60.671875 L 94.265625 -58.90625 L 92.40625 -53 L 91.359375 -51.125 L 90.953125 -49.15625 L 90.015625 -47.078125 L 88.984375 -43.25 L 87.84375 -41.28125 L 85.453125 -33.59375 L 83.171875 -28.828125 L 82.34375 -25.828125 L 81.515625 -23.640625 L 81.09375 -21.671875 L 80.0625 -19.8125 L 78.703125 -15.65625 L 77.046875 -12.03125 L 75.90625 -7.984375 L 74.046875 -4.140625 L 73.625 -2.171875 L 71.859375 -0.3125 L 69.28125 0.625 L 65.75 0.828125 L 63.359375 -0.109375 L 61.5 -2.390625 L 59.9375 -6.125 L 59.53125 -8.09375 L 58.796875 -9.953125 L 57.65625 -12.03125 L 56.109375 -15.859375 L 55.484375 -17.84375 L 53.828125 -21.5625 L 53.296875 -23.640625 L 52.375 -25.609375 L 51.328125 -27.578125 L 50.8125 -29.34375 L 49.78125 -31.421875 L 48.953125 -31.3125 L 48.328125 -29.453125 L 46.453125 -25.40625 L 46.046875 -23.640625 L 41.890625 -13.796875 L 41.375 -11.71875 L 40.546875 -10.0625 L 39.09375 -5.90625 L 37.234375 -2.28125 L 35.5625 -0.203125 L 33.1875 0.625 L 29.140625 0.625 L 26.859375 -0.109375 Z M 25.296875 -2.078125 "/></g></g></g><g fill="#f65b0b" fill-opacity="1"><g transform="translate(501.174693, 99.940903)"><g><path d="M 61.1875 -1.65625 L 59.84375 -3 L 58.59375 -4.5625 L 56.9375 -5.90625 L 55.578125 -7.578125 L 45.53125 -17.625 L 43.859375 -18.984375 L 29.03125 -33.5 L 27.6875 -33.8125 L 26.65625 -32.5625 L 27.0625 -30.390625 L 26.75 -4.984375 L 27.0625 -2.90625 L 26.140625 -0.828125 L 24.0625 0.203125 L 21.671875 0 L 19.5 0.3125 L 14.3125 0 L 10.78125 0.203125 L 8.8125 -0.9375 L 7.875 -3.21875 L 7.875 -5.1875 L 7.578125 -7.265625 L 7.875 -11.203125 L 7.671875 -13.28125 L 7.78125 -17.53125 L 7.46875 -19.703125 L 7.46875 -21.671875 L 7.671875 -23.953125 L 7.671875 -25.921875 L 7.875 -27.796875 L 7.46875 -42.625 L 7.78125 -44.796875 L 7.671875 -46.984375 L 7.875 -48.84375 L 7.578125 -53.09375 L 7.78125 -55.171875 L 7.578125 -69.6875 L 8.921875 -71.65625 L 11.40625 -72.90625 L 14.203125 -72.078125 L 18.359375 -69.28125 L 23.953125 -63.5625 L 25.296875 -61.8125 L 27.0625 -60.5625 L 28.109375 -59 L 30.078125 -57.65625 L 31.21875 -56.109375 L 34.421875 -53.40625 L 36.609375 -51.125 L 37.75 -49.671875 L 39.40625 -48.421875 L 43.03125 -44.703125 L 44.59375 -43.453125 L 49.15625 -38.78125 L 50.609375 -38.375 L 51.125 -40.03125 L 51.015625 -44.171875 L 51.4375 -46.359375 L 51.4375 -48.328125 L 51.015625 -50.5 L 51.125 -69.375 L 52.15625 -71.5625 L 54.65625 -72.59375 L 56.71875 -72.484375 L 58.59375 -72.703125 L 60.765625 -72.390625 L 63.046875 -72.59375 L 65.015625 -72.59375 L 67.09375 -72.390625 L 69.375 -71.34375 L 70.625 -69.484375 L 70.421875 -64.09375 L 70.625 -60.984375 L 70.203125 -58.90625 L 70.203125 -54.75 L 70.421875 -52.78125 L 70.109375 -48.640625 L 70.515625 -36.1875 L 70.3125 -33.90625 L 70.71875 -31 L 70.203125 -2.796875 L 69.28125 -0.625 L 66.890625 0.515625 L 64.1875 -0.3125 Z M 61.1875 -1.65625 "/></g></g></g></g></g><g transform="matrix(1, 0, 0, 1, 516, 894)"><g clip-path="url(#37c60131d7)"><g fill="#f65b0b" fill-opacity="1"><g transform="translate(0.868992, 33.961013)"><g><path d="M 2.875 -1.1875 L 2.796875 -1.921875 L 2.875 -10.3125 L 2.765625 -11.46875 L 2.921875 -18.78125 L 2.796875 -20.40625 L 2.875 -22.65625 L 2.84375 -23.34375 L 2.875 -24.15625 L 2.796875 -24.84375 L 2.796875 -25.6875 L 3.1875 -26.5 L 4.03125 -26.875 L 8.671875 -26.796875 L 9.359375 -26.953125 L 10.84375 -26.765625 L 11.546875 -26.921875 L 15.484375 -26.796875 L 16.984375 -26.453125 L 17.640625 -26.234375 L 18.359375 -25.875 L 19.015625 -25.5 L 19.5625 -25.078125 L 20.125 -24.6875 L 20.703125 -24.15625 L 21.96875 -22.390625 L 22.234375 -21.59375 L 22.546875 -20.203125 L 22.625 -19.015625 L 22.578125 -17.71875 L 22.125 -16.328125 L 21.390625 -14.84375 L 21.125 -14.109375 L 21.515625 -13.234375 L 22.125 -12.6875 L 22.625 -12.109375 L 23.3125 -10.546875 L 23.734375 -9.171875 L 23.65625 -6.0625 L 23.34375 -5.328125 L 23.125 -4.59375 L 22.734375 -3.828125 L 21.703125 -2.421875 L 20.171875 -1.1875 L 19.484375 -0.84375 L 17.328125 -0.234375 L 16.640625 -0.109375 L 12.6875 0.078125 L 11.921875 -0.03125 L 6.359375 0.03125 L 5.21875 -0.078125 L 3.953125 0.03125 L 3.21875 -0.421875 Z M 10.734375 -16.375 L 13.6875 -16.484375 L 14.796875 -16.875 L 15.375 -17.328125 L 15.640625 -18.4375 L 15.53125 -19.59375 L 15.21875 -20.203125 L 14.609375 -20.515625 L 10.65625 -20.78125 L 9.9375 -20.328125 L 9.46875 -19.203125 L 9.515625 -17.90625 L 9.9375 -16.828125 Z M 10.625 -6.140625 L 13.578125 -6.0625 L 15.6875 -6.25 L 16.328125 -6.671875 L 16.75 -7.203125 L 16.953125 -8.328125 L 16.71875 -9.28125 L 16.328125 -9.96875 L 15.6875 -10.234375 L 12.078125 -10.578125 L 11.265625 -10.5 L 10.546875 -10.625 L 9.890625 -10.125 L 9.546875 -9.46875 L 9.4375 -7.171875 L 9.9375 -6.40625 Z M 10.625 -6.140625 "/></g></g></g><g fill="#f65b0b" fill-opacity="1"><g transform="translate(34.428467, 33.961013)"><g><path d="M 15.375 0.5 L 13.078125 0.390625 L 9.8125 -0.578125 L 9.09375 -0.875 L 6.484375 -2.265625 L 5.984375 -2.84375 L 4.90625 -3.875 L 3.109375 -6.328125 L 2.71875 -7.015625 L 2.5 -7.828125 L 1.921875 -9.125 L 1.5 -11.546875 L 1.65625 -15.984375 L 1.953125 -17.640625 L 2.6875 -19.75 L 3.03125 -20.40625 L 4.328125 -22.3125 L 5.375 -23.46875 L 6.59375 -24.3125 L 7.125 -24.765625 L 9.09375 -26 L 10.546875 -26.375 L 11.234375 -26.6875 L 12 -26.921875 L 12.765625 -27.078125 L 15.453125 -27.21875 L 17.25 -27.1875 L 22.28125 -25.609375 L 24.234375 -24.390625 L 25.875 -22.890625 L 26.375 -22.203125 L 26.84375 -21.734375 L 27.34375 -21.09375 L 27.609375 -20.40625 L 28.296875 -19.140625 L 28.484375 -18.25 L 28.796875 -17.453125 L 29.109375 -16.03125 L 29.296875 -13.375 L 29.109375 -10.703125 L 28.953125 -9.859375 L 28.71875 -9.234375 L 28.609375 -8.46875 L 28.34375 -7.75 L 26.84375 -5.09375 L 26.34375 -4.40625 L 23.65625 -1.84375 L 20.25 -0.3125 L 18.78125 0.15625 Z M 14.296875 -6.25 L 16.53125 -6.328125 L 17.25 -6.515625 L 17.9375 -6.59375 L 18.5625 -6.9375 L 19.25 -7.25 L 20.4375 -8.171875 L 20.890625 -8.859375 L 21.25 -9.4375 L 21.671875 -10 L 22.015625 -11.578125 L 22.234375 -13.5 L 22.09375 -15.140625 L 21.8125 -15.828125 L 21.59375 -16.609375 L 21.28125 -17.296875 L 20.40625 -18.59375 L 19.203125 -19.484375 L 17.171875 -20.359375 L 15.34375 -20.46875 L 13.578125 -20.328125 L 12.765625 -20.125 L 12.078125 -19.78125 L 10.96875 -19.015625 L 10.390625 -18.515625 L 9.890625 -17.90625 L 9.546875 -17.25 L 9.09375 -16.71875 L 8.859375 -16.03125 L 8.59375 -14.609375 L 8.546875 -13.453125 L 8.75 -11.546875 L 9.46875 -9.390625 L 9.96875 -8.859375 L 10.359375 -8.328125 L 11.546875 -7.28125 L 12.84375 -6.59375 L 13.53125 -6.515625 Z M 14.296875 -6.25 "/></g></g></g><g fill="#f65b0b" fill-opacity="1"><g transform="translate(73.426129, 33.961013)"><g><path d="M 15.375 0.5 L 13.078125 0.390625 L 9.8125 -0.578125 L 9.09375 -0.875 L 6.484375 -2.265625 L 5.984375 -2.84375 L 4.90625 -3.875 L 3.109375 -6.328125 L 2.71875 -7.015625 L 2.5 -7.828125 L 1.921875 -9.125 L 1.5 -11.546875 L 1.65625 -15.984375 L 1.953125 -17.640625 L 2.6875 -19.75 L 3.03125 -20.40625 L 4.328125 -22.3125 L 5.375 -23.46875 L 6.59375 -24.3125 L 7.125 -24.765625 L 9.09375 -26 L 10.546875 -26.375 L 11.234375 -26.6875 L 12 -26.921875 L 12.765625 -27.078125 L 15.453125 -27.21875 L 17.25 -27.1875 L 22.28125 -25.609375 L 24.234375 -24.390625 L 25.875 -22.890625 L 26.375 -22.203125 L 26.84375 -21.734375 L 27.34375 -21.09375 L 27.609375 -20.40625 L 28.296875 -19.140625 L 28.484375 -18.25 L 28.796875 -17.453125 L 29.109375 -16.03125 L 29.296875 -13.375 L 29.109375 -10.703125 L 28.953125 -9.859375 L 28.71875 -9.234375 L 28.609375 -8.46875 L 28.34375 -7.75 L 26.84375 -5.09375 L 26.34375 -4.40625 L 23.65625 -1.84375 L 20.25 -0.3125 L 18.78125 0.15625 Z M 14.296875 -6.25 L 16.53125 -6.328125 L 17.25 -6.515625 L 17.9375 -6.59375 L 18.5625 -6.9375 L 19.25 -7.25 L 20.4375 -8.171875 L 20.890625 -8.859375 L 21.25 -9.4375 L 21.671875 -10 L 22.015625 -11.578125 L 22.234375 -13.5 L 22.09375 -15.140625 L 21.8125 -15.828125 L 21.59375 -16.609375 L 21.28125 -17.296875 L 20.40625 -18.59375 L 19.203125 -19.484375 L 17.171875 -20.359375 L 15.34375 -20.46875 L 13.578125 -20.328125 L 12.765625 -20.125 L 12.078125 -19.78125 L 10.96875 -19.015625 L 10.390625 -18.515625 L 9.890625 -17.90625 L 9.546875 -17.25 L 9.09375 -16.71875 L 8.859375 -16.03125 L 8.59375 -14.609375 L 8.546875 -13.453125 L 8.75 -11.546875 L 9.46875 -9.390625 L 9.96875 -8.859375 L 10.359375 -8.328125 L 11.546875 -7.28125 L 12.84375 -6.59375 L 13.53125 -6.515625 Z M 14.296875 -6.25 "/></g></g></g><g fill="#f65b0b" fill-opacity="1"><g transform="translate(112.423792, 33.961013)"><g><path d="M 3.984375 0.109375 L 3.296875 -0.34375 L 2.921875 -1.53125 L 2.84375 -3.484375 L 2.921875 -4.25 L 2.84375 -5.0625 L 2.875 -5.671875 L 2.796875 -7.25 L 2.921875 -8.8125 L 2.84375 -9.515625 L 2.875 -11 L 2.765625 -11.84375 L 2.921875 -13.421875 L 2.796875 -14.078125 L 2.875 -18.78125 L 2.765625 -19.5625 L 2.875 -20.328125 L 2.796875 -25 L 2.875 -25.65625 L 3.21875 -26.375 L 3.984375 -26.875 L 4.828125 -26.921875 L 5.59375 -26.84375 L 6.328125 -26.875 L 8.25 -26.6875 L 9.359375 -26.34375 L 9.859375 -25.734375 L 9.78125 -24.15625 L 9.8125 -22.96875 L 9.734375 -22.046875 L 9.8125 -21.359375 L 9.859375 -18.59375 L 9.8125 -17.875 L 10 -17.0625 L 10.65625 -16.609375 L 11.5 -16.609375 L 12.265625 -16.828125 L 13.109375 -16.953125 L 13.796875 -17.25 L 15.140625 -18.21875 L 16.03125 -19.4375 L 16.25 -20.25 L 16.484375 -20.828125 L 16.796875 -23.3125 L 16.75 -24.078125 L 16.875 -24.8125 L 16.875 -25.65625 L 17.171875 -26.375 L 17.984375 -26.84375 L 19.140625 -26.875 L 20.28125 -26.71875 L 21.546875 -26.875 L 22.703125 -26.765625 L 23.546875 -26.421875 L 23.890625 -25.65625 L 23.765625 -23.28125 L 23.84375 -22.5 L 23.578125 -20.046875 L 22.921875 -17.828125 L 22.65625 -17.140625 L 22.09375 -16.140625 L 20.859375 -14.578125 L 19.671875 -13.578125 L 19.171875 -12.765625 L 19.328125 -11.890625 L 20.59375 -9.859375 L 20.890625 -9.203125 L 21.3125 -8.46875 L 21.734375 -7.9375 L 22.921875 -5.984375 L 23.421875 -5.375 L 25.8125 -1.03125 L 25.609375 -0.1875 L 24.8125 0 L 24.046875 -0.03125 L 23.34375 0.03125 L 19.484375 0.078125 L 18.59375 -0.3125 L 17.875 -1.03125 L 17.484375 -1.53125 L 17.09375 -2.265625 L 16.640625 -2.84375 L 15.90625 -4.25 L 15.5625 -4.796875 L 15.296875 -5.4375 L 13.734375 -8.015625 L 13.453125 -8.8125 L 13.078125 -9.4375 L 12.1875 -10.078125 L 11.15625 -10.15625 L 10.203125 -9.734375 L 9.78125 -9.09375 L 9.890625 -5.0625 L 9.78125 -4.25 L 9.859375 -1.1875 L 9.4375 -0.34375 L 8.671875 -0.03125 L 7.4375 0.078125 L 6.359375 0 Z M 3.984375 0.109375 "/></g></g></g><g fill="#f65b0b" fill-opacity="1"><g transform="translate(147.247061, 33.961013)"><g><path d="M 10.3125 0.34375 L 8.75 0.078125 L 7.25 -0.453125 L 6.484375 -0.6875 L 5.75 -1.03125 L 5.21875 -1.609375 L 3.875 -2.453125 L 3.375 -3.03125 L 2.84375 -3.53125 L 2.109375 -4.953125 L 1.875 -5.640625 L 1.71875 -6.40625 L 1.609375 -7.171875 L 1.921875 -7.96875 L 2.609375 -8.28125 L 5.5625 -8.4375 L 6.28125 -8.328125 L 6.984375 -8.390625 L 7.75 -8.09375 L 9.015625 -6.703125 L 9.65625 -6.28125 L 10.3125 -5.9375 L 12.265625 -5.75 L 12.953125 -5.859375 L 14.15625 -5.9375 L 15.453125 -6.515625 L 15.953125 -7.09375 L 16.25 -8.046875 L 16.03125 -9.015625 L 15.53125 -9.46875 L 14.15625 -10.125 L 8.125 -10.8125 L 6.75 -11.265625 L 4.140625 -12.6875 L 2.71875 -14.453125 L 2.109375 -15.796875 L 1.84375 -17.328125 L 1.796875 -18.515625 L 1.921875 -20.40625 L 2.609375 -22.5 L 3.953125 -24.3125 L 5.796875 -25.578125 L 7.09375 -26.34375 L 8.546875 -26.796875 L 9.234375 -26.921875 L 10 -26.953125 L 10.84375 -27.1875 L 13.796875 -27.109375 L 15.296875 -26.796875 L 17.453125 -26.078125 L 19.984375 -24.3125 L 20.828125 -23.15625 L 21.890625 -21.171875 L 21.96875 -20.4375 L 22.125 -19.703125 L 21.8125 -19.0625 L 21.09375 -18.515625 L 20.40625 -18.59375 L 19.625 -18.59375 L 18.59375 -18.671875 L 16.796875 -18.515625 L 15.953125 -19.015625 L 15.375 -19.78125 L 14.71875 -20.328125 L 14.03125 -20.78125 L 13.34375 -20.96875 L 12.109375 -21.125 L 10.890625 -21.09375 L 10.203125 -20.9375 L 9.578125 -20.59375 L 9.015625 -20.171875 L 8.546875 -19.671875 L 8.359375 -18.640625 L 8.515625 -17.484375 L 9.09375 -16.953125 L 10.5 -16.25 L 12.53125 -15.828125 L 13.65625 -15.828125 L 14.453125 -15.6875 L 15.21875 -15.640625 L 15.984375 -15.53125 L 18.984375 -14.609375 L 19.671875 -14.1875 L 20.28125 -13.875 L 20.96875 -13.265625 L 21.96875 -12.109375 L 22.390625 -11.5 L 22.96875 -9.28125 L 23.046875 -8.046875 L 22.8125 -6.140625 L 22.578125 -5.484375 L 22.359375 -4.796875 L 21.9375 -3.953125 L 21.546875 -3.40625 L 20.4375 -2.265625 L 17.828125 -0.6875 L 17.09375 -0.34375 L 16.40625 -0.265625 L 15.640625 0.03125 L 14.875 0.15625 L 14.109375 0.34375 L 13.34375 0.421875 Z M 10.3125 0.34375 "/></g></g></g><g fill="#f65b0b" fill-opacity="1"><g transform="translate(179.964023, 33.961013)"><g/></g></g><g fill="#f65b0b" fill-opacity="1"><g transform="translate(198.625993, 33.961013)"><g><path d="M 13.34375 0.3125 L 12.609375 0.265625 L 11.921875 0.109375 L 11.15625 -0.15625 L 10.46875 -0.3125 L 8.75 -1.03125 L 7.09375 -1.921875 L 5.375 -3.40625 L 3.796875 -5.09375 L 2.140625 -8.4375 L 1.609375 -10.625 L 1.375 -13.421875 L 1.765625 -16.71875 L 2.140625 -18.296875 L 3.109375 -20.4375 L 3.828125 -21.546875 L 4.875 -22.859375 L 6.515625 -24.34375 L 7.625 -25.1875 L 10.46875 -26.53125 L 14.1875 -27.265625 L 16.5625 -27.21875 L 17.328125 -27.109375 L 18.0625 -27.078125 L 21.734375 -25.84375 L 24.34375 -24.1875 L 25.421875 -23.078125 L 25.84375 -22.359375 L 26.375 -21.703125 L 26.71875 -21.09375 L 27.140625 -20.46875 L 27.375 -19.671875 L 27.640625 -18.984375 L 27.875 -18.140625 L 27.609375 -17.375 L 26.953125 -17.0625 L 25.8125 -16.953125 L 24.734375 -17.0625 L 23.96875 -17.03125 L 23.15625 -17.0625 L 22.46875 -16.984375 L 21.59375 -17.40625 L 20.859375 -18.140625 L 20.4375 -18.71875 L 19.328125 -19.828125 L 18.78125 -20.25 L 18.09375 -20.515625 L 16.90625 -20.859375 L 15.265625 -20.9375 L 12.6875 -20.59375 L 11.65625 -20.015625 L 10.734375 -19.28125 L 9.8125 -18.21875 L 9.4375 -17.484375 L 8.859375 -16.109375 L 8.59375 -14.578125 L 8.59375 -12.234375 L 8.703125 -11.390625 L 8.890625 -10.703125 L 9.171875 -10.15625 L 9.4375 -9.390625 L 10.28125 -8.046875 L 11.390625 -7.0625 L 12.734375 -6.359375 L 14.109375 -5.859375 L 15.21875 -5.75 L 17.25 -5.859375 L 18.59375 -6.59375 L 19.171875 -6.828125 L 19.78125 -7.359375 L 20.671875 -8.359375 L 21.046875 -9.09375 L 21.671875 -9.703125 L 22.546875 -10.15625 L 23.3125 -10.125 L 24.078125 -10.15625 L 24.84375 -10.046875 L 27 -10.203125 L 27.765625 -9.703125 L 27.984375 -9.015625 L 27 -6.09375 L 26.1875 -4.71875 L 25.3125 -3.5625 L 24.234375 -2.5 L 22.359375 -1.15625 L 21.703125 -0.84375 L 20.890625 -0.578125 L 20.203125 -0.1875 L 17.9375 0.265625 L 15.265625 0.453125 Z M 13.34375 0.3125 "/></g></g></g><g fill="#f65b0b" fill-opacity="1"><g transform="translate(236.130064, 33.961013)"><g><path d="M 15.375 0.5 L 13.078125 0.390625 L 9.8125 -0.578125 L 9.09375 -0.875 L 6.484375 -2.265625 L 5.984375 -2.84375 L 4.90625 -3.875 L 3.109375 -6.328125 L 2.71875 -7.015625 L 2.5 -7.828125 L 1.921875 -9.125 L 1.5 -11.546875 L 1.65625 -15.984375 L 1.953125 -17.640625 L 2.6875 -19.75 L 3.03125 -20.40625 L 4.328125 -22.3125 L 5.375 -23.46875 L 6.59375 -24.3125 L 7.125 -24.765625 L 9.09375 -26 L 10.546875 -26.375 L 11.234375 -26.6875 L 12 -26.921875 L 12.765625 -27.078125 L 15.453125 -27.21875 L 17.25 -27.1875 L 22.28125 -25.609375 L 24.234375 -24.390625 L 25.875 -22.890625 L 26.375 -22.203125 L 26.84375 -21.734375 L 27.34375 -21.09375 L 27.609375 -20.40625 L 28.296875 -19.140625 L 28.484375 -18.25 L 28.796875 -17.453125 L 29.109375 -16.03125 L 29.296875 -13.375 L 29.109375 -10.703125 L 28.953125 -9.859375 L 28.71875 -9.234375 L 28.609375 -8.46875 L 28.34375 -7.75 L 26.84375 -5.09375 L 26.34375 -4.40625 L 23.65625 -1.84375 L 20.25 -0.3125 L 18.78125 0.15625 Z M 14.296875 -6.25 L 16.53125 -6.328125 L 17.25 -6.515625 L 17.9375 -6.59375 L 18.5625 -6.9375 L 19.25 -7.25 L 20.4375 -8.171875 L 20.890625 -8.859375 L 21.25 -9.4375 L 21.671875 -10 L 22.015625 -11.578125 L 22.234375 -13.5 L 22.09375 -15.140625 L 21.8125 -15.828125 L 21.59375 -16.609375 L 21.28125 -17.296875 L 20.40625 -18.59375 L 19.203125 -19.484375 L 17.171875 -20.359375 L 15.34375 -20.46875 L 13.578125 -20.328125 L 12.765625 -20.125 L 12.078125 -19.78125 L 10.96875 -19.015625 L 10.390625 -18.515625 L 9.890625 -17.90625 L 9.546875 -17.25 L 9.09375 -16.71875 L 8.859375 -16.03125 L 8.59375 -14.609375 L 8.546875 -13.453125 L 8.75 -11.546875 L 9.46875 -9.390625 L 9.96875 -8.859375 L 10.359375 -8.328125 L 11.546875 -7.28125 L 12.84375 -6.59375 L 13.53125 -6.515625 Z M 14.296875 -6.25 "/></g></g></g><g fill="#f65b0b" fill-opacity="1"><g transform="translate(275.127726, 33.961013)"><g><path d="M 3.984375 0.109375 L 3.21875 -0.390625 L 2.796875 -1.1875 L 2.84375 -9.65625 L 2.765625 -10.390625 L 2.875 -14.265625 L 2.796875 -15.03125 L 2.84375 -21.171875 L 2.765625 -21.859375 L 2.875 -23.34375 L 2.765625 -25.6875 L 3.1875 -26.5 L 4.03125 -26.875 L 5.09375 -26.578125 L 5.984375 -25.921875 L 6.984375 -24.890625 L 7.59375 -24.34375 L 8.59375 -23.15625 L 9.125 -22.703125 L 12.609375 -18.828125 L 13.453125 -18.0625 L 14.15625 -17.171875 L 14.6875 -16.640625 L 15.140625 -15.984375 L 15.953125 -15.6875 L 16.640625 -16.140625 L 18.984375 -18.515625 L 19.484375 -19.171875 L 22.859375 -22.625 L 23.390625 -23.3125 L 23.84375 -23.734375 L 24.34375 -24.34375 L 25.953125 -26.03125 L 26.765625 -26.53125 L 27.875 -26.875 L 28.6875 -26.453125 L 29.140625 -25.65625 L 29.0625 -24.921875 L 29.109375 -23.34375 L 29.0625 -22.703125 L 29.140625 -21.046875 L 29.109375 -20.328125 L 29.140625 -16.53125 L 29.0625 -15.6875 L 29.140625 -4.171875 L 29.0625 -3.40625 L 29.171875 -1.421875 L 28.71875 -0.3125 L 27.921875 0.109375 L 23.28125 -0.03125 L 22.46875 -0.265625 L 22.15625 -1.15625 L 22.15625 -1.71875 L 22.09375 -3.453125 L 22.15625 -4.140625 L 22.09375 -5.5625 L 22.15625 -7.0625 L 22.046875 -8.59375 L 22.125 -10.703125 L 21.8125 -11.265625 L 21.3125 -11.046875 L 19.75 -9.4375 L 19.203125 -9.046875 L 18.140625 -7.78125 L 17.671875 -7.328125 L 17.140625 -6.75 L 16.375 -6.171875 L 15.53125 -6.21875 L 14.71875 -6.78125 L 13.6875 -7.78125 L 13.1875 -8.390625 L 11.625 -9.96875 L 11.15625 -10.546875 L 10.546875 -11.046875 L 10.15625 -11.203125 L 9.8125 -10.84375 L 9.8125 -9.359375 L 9.890625 -8.515625 L 9.8125 -7.125 L 9.859375 -6.328125 L 9.734375 -5.140625 L 9.859375 -1.109375 L 9.390625 -0.421875 L 8.328125 0.03125 L 7.09375 -0.03125 L 6.25 0.078125 L 4.75 0 Z M 3.984375 0.109375 "/></g></g></g><g fill="#f65b0b" fill-opacity="1"><g transform="translate(315.427451, 33.961013)"><g><path d="M 13.1875 0.5 L 11.96875 0.421875 L 11.203125 0.421875 L 9.703125 0.109375 L 8.25 -0.53125 L 7.671875 -0.875 L 6.90625 -1.234375 L 5.671875 -2.03125 L 5.09375 -2.53125 L 4.640625 -3.0625 L 3.75 -4.453125 L 3.140625 -5.75 L 2.765625 -7.328125 L 2.53125 -10.390625 L 2.640625 -16.5625 L 2.5625 -17.296875 L 2.6875 -18.0625 L 2.5625 -23.421875 L 2.640625 -24.046875 L 2.640625 -24.96875 L 2.5625 -25.734375 L 3.0625 -26.453125 L 3.875 -26.765625 L 4.671875 -26.875 L 6.328125 -26.71875 L 7.09375 -26.84375 L 7.828125 -26.84375 L 8.625 -26.5 L 9.09375 -25.65625 L 9.171875 -24.546875 L 9.09375 -23.3125 L 9.171875 -22.734375 L 9.046875 -10.390625 L 9.28125 -8.171875 L 9.515625 -7.4375 L 9.96875 -6.828125 L 10.578125 -6.359375 L 11.234375 -5.984375 L 12.109375 -5.796875 L 14.421875 -5.796875 L 15.765625 -6.28125 L 16.40625 -6.75 L 16.828125 -7.515625 L 17.0625 -8.09375 L 17.328125 -10.46875 L 17.25 -25.578125 L 17.671875 -26.421875 L 18.484375 -26.796875 L 20.09375 -26.6875 L 22.5 -26.765625 L 23.34375 -26.5 L 23.84375 -25.6875 L 23.734375 -24.921875 L 23.734375 -21.734375 L 23.8125 -21.125 L 23.734375 -20.28125 L 23.8125 -19.5625 L 23.8125 -9.203125 L 23.625 -7.359375 L 23.28125 -5.75 L 22.890625 -5.09375 L 22.65625 -4.328125 L 21.78125 -2.984375 L 20.703125 -1.921875 L 19.4375 -1.078125 L 18.0625 -0.34375 L 15.0625 0.421875 L 14.34375 0.390625 Z M 13.1875 0.5 "/></g></g></g><g fill="#f65b0b" fill-opacity="1"><g transform="translate(350.135822, 33.961013)"><g><path d="M 22.625 -0.65625 L 22.046875 -1.15625 L 21.046875 -2.265625 L 15.109375 -8.171875 L 14.453125 -8.59375 L 13.953125 -9.171875 L 11.234375 -11.765625 L 10.734375 -12.421875 L 10.234375 -12.609375 L 9.96875 -11.96875 L 9.890625 -11.203125 L 9.859375 -1.5 L 9.46875 -0.3125 L 8.703125 0.078125 L 7.90625 0.109375 L 6.40625 0 L 5.5625 0.078125 L 3.984375 0 L 3.1875 -0.265625 L 2.84375 -1 L 2.765625 -4.21875 L 2.84375 -4.953125 L 2.765625 -11.234375 L 2.875 -11.890625 L 2.796875 -13.453125 L 2.84375 -14.109375 L 2.84375 -25.734375 L 3.1875 -26.453125 L 4.0625 -26.84375 L 5.21875 -26.578125 L 6.09375 -26.109375 L 6.671875 -25.65625 L 14.21875 -18.015625 L 15.296875 -17.171875 L 18.015625 -14.453125 L 18.59375 -14.1875 L 18.828125 -14.84375 L 18.90625 -21.703125 L 18.828125 -22.546875 L 18.9375 -24.15625 L 18.828125 -24.765625 L 18.859375 -25.578125 L 19.28125 -26.375 L 20.015625 -26.796875 L 24.765625 -26.84375 L 25.53125 -26.421875 L 25.921875 -25.65625 L 26.03125 -20.328125 L 25.921875 -19.40625 L 25.921875 -15.609375 L 26.03125 -14.953125 L 25.953125 -0.953125 L 25.578125 -0.1875 L 24.734375 0.078125 L 23.65625 -0.03125 Z M 22.625 -0.65625 "/></g></g></g><g fill="#f65b0b" fill-opacity="1"><g transform="translate(387.295197, 33.961013)"><g><path d="M 12.84375 0.15625 L 12.078125 -0.03125 L 10.203125 -0.03125 L 9.046875 0.109375 L 7.515625 -0.03125 L 6.75 0.03125 L 5.5625 0.078125 L 4.453125 -0.078125 L 3.71875 0 L 2.984375 0 L 2.21875 -0.34375 L 1.84375 -1.375 L 1.953125 -4.90625 L 2.375 -5.59375 L 4.90625 -6.359375 L 5.328125 -7.515625 L 5.21875 -19.28125 L 4.875 -20.328125 L 4.140625 -20.78125 L 3.375 -20.78125 L 2.53125 -21.203125 L 2.109375 -21.96875 L 2.1875 -22.703125 L 2.078125 -25.53125 L 2.453125 -26.453125 L 3.21875 -26.84375 L 4.109375 -26.84375 L 4.828125 -26.71875 L 7.96875 -26.71875 L 8.75 -26.875 L 9.4375 -26.796875 L 14.078125 -26.796875 L 14.765625 -26.375 L 15.21875 -25.65625 L 15.1875 -21.859375 L 14.796875 -21.25 L 14 -20.9375 L 13.234375 -20.828125 L 12.390625 -20.46875 L 12.109375 -19.59375 L 11.96875 -15.71875 L 12.109375 -12.953125 L 12.046875 -12.109375 L 12.078125 -7.90625 L 11.96875 -7.171875 L 12.421875 -6.28125 L 13.34375 -5.984375 L 14.15625 -5.984375 L 15 -5.5625 L 15.453125 -4.828125 L 15.453125 -1.03125 L 15.0625 -0.3125 L 14.375 0.078125 Z M 12.84375 0.15625 "/></g></g></g><g fill="#f65b0b" fill-opacity="1"><g transform="translate(412.965529, 33.961013)"><g><path d="M 10 0.078125 L 8.8125 0.03125 L 7.703125 -0.34375 L 7.203125 -1.1875 L 7.28125 -1.921875 L 7.328125 -4.140625 L 7.25 -4.953125 L 7.28125 -8.046875 L 7.359375 -8.8125 L 7.25 -14.53125 L 7.328125 -15.609375 L 7.28125 -16.375 L 7.328125 -17.21875 L 7.25 -18.296875 L 7.328125 -19.515625 L 6.90625 -20.28125 L 6.171875 -20.671875 L 2.53125 -20.75 L 1.765625 -20.671875 L 1.078125 -21.046875 L 0.734375 -21.734375 L 0.65625 -22.921875 L 0.734375 -24.84375 L 0.6875 -25.609375 L 1.15625 -26.5 L 1.875 -26.875 L 4.5625 -26.71875 L 5.75 -26.84375 L 8.015625 -26.71875 L 8.703125 -26.875 L 9.546875 -26.796875 L 10.359375 -26.921875 L 11.078125 -26.875 L 11.84375 -26.71875 L 14.953125 -26.875 L 15.6875 -26.796875 L 16.484375 -26.921875 L 17.21875 -26.84375 L 19.59375 -26.84375 L 20.328125 -26.34375 L 20.75 -25.578125 L 20.703125 -21.9375 L 20.25 -21.09375 L 19.59375 -20.671875 L 18.90625 -20.703125 L 18.09375 -20.59375 L 16.671875 -20.78125 L 15.1875 -20.703125 L 14.453125 -20.25 L 14.15625 -19.09375 L 14.03125 -15.765625 L 14.15625 -14.953125 L 14.078125 -8.78125 L 14.1875 -7.9375 L 14.109375 -7.25 L 14.15625 -5.71875 L 14.078125 -4.90625 L 14.1875 -3.453125 L 14.078125 -1.453125 L 13.6875 -0.390625 L 12.578125 0 Z M 10 0.078125 "/></g></g></g><g fill="#f65b0b" fill-opacity="1"><g transform="translate(442.657039, 33.961013)"><g><path d="M 8.78125 -1.15625 L 8.8125 -2.609375 L 8.75 -3.328125 L 8.8125 -6.28125 L 8.75 -7.0625 L 8.78125 -10.078125 L 8.59375 -11.125 L 8.203125 -12.1875 L 5.25 -16.875 L 4.953125 -17.5625 L 4.03125 -18.78125 L 2.453125 -21.515625 L 2.03125 -22.046875 L 0.390625 -24.765625 L 0 -25.65625 L 0.109375 -26.5 L 0.875 -26.875 L 2.640625 -26.765625 L 4.59375 -26.921875 L 5.25 -26.765625 L 6.0625 -26.796875 L 6.9375 -26.453125 L 7.75 -25.734375 L 9.546875 -22.359375 L 9.96875 -21.703125 L 11.125 -19.5625 L 11.546875 -18.9375 L 11.96875 -18.21875 L 12.390625 -18.21875 L 12.890625 -18.859375 L 13.53125 -20.328125 L 13.921875 -20.96875 L 14.296875 -21.78125 L 15.140625 -23 L 15.609375 -24.15625 L 16.609375 -25.8125 L 17.296875 -26.453125 L 18.328125 -26.84375 L 18.984375 -26.796875 L 20.46875 -26.84375 L 21.25 -26.71875 L 22.046875 -26.796875 L 23.546875 -26.765625 L 24.234375 -26.609375 L 24.390625 -25.765625 L 23.96875 -24.8125 L 21.515625 -20.75 L 21.046875 -20.203125 L 16.1875 -12.1875 L 15.796875 -11.203125 L 15.5625 -10.078125 L 15.609375 -7.859375 L 15.484375 -7.171875 L 15.484375 -6.40625 L 15.5625 -5.640625 L 15.453125 -1.1875 L 15.140625 -0.390625 L 14.375 0.03125 L 13.609375 -0.03125 L 12.53125 0.03125 L 11.34375 -0.03125 L 10.65625 0.03125 L 9.890625 0 L 9.09375 -0.3125 Z M 8.78125 -1.15625 "/></g></g></g></g></g></svg>